<svg width="317" height="67" viewBox="0 0 317 67" fill="none" xmlns="http://www.w3.org/2000/svg">
<path d="M96.6035 38.6406C96.6738 38.6406 96.7559 38.6934 96.8496 38.7988C97.1426 39.1191 97.5 39.377 97.9219 39.5723C98.3477 39.7637 98.7676 39.8594 99.1816 39.8594C99.6387 39.8594 99.8672 39.7207 99.8672 39.4434C99.8672 39.2676 99.7871 39.0703 99.627 38.8516C99.4668 38.6289 99.084 38.1914 98.4785 37.5391C97.7168 36.7148 97.209 36.1035 96.9551 35.7051C96.6191 35.1777 96.4512 34.6758 96.4512 34.1992C96.4512 33.4805 96.7715 32.8926 97.4121 32.4355C98.041 31.9863 98.8164 31.7617 99.7383 31.7617C100.383 31.7617 100.975 31.8926 101.514 32.1543C101.717 32.2559 101.891 32.373 102.035 32.5059C102.184 32.6387 102.258 32.75 102.258 32.8398C102.258 32.8828 102.236 32.9238 102.193 32.9629C102.154 32.998 102.113 33.0156 102.07 33.0156C102.004 33.0156 101.906 32.9551 101.777 32.834C101.566 32.6348 101.289 32.4707 100.945 32.3418C100.602 32.209 100.271 32.1426 99.9551 32.1426C99.7598 32.1426 99.5996 32.1855 99.4746 32.2715C99.3535 32.3535 99.293 32.4609 99.293 32.5938C99.293 32.7539 99.3691 32.9492 99.5215 33.1797C99.6738 33.4102 99.9316 33.7168 100.295 34.0996C101.443 35.3223 102.146 36.1465 102.404 36.5723C102.674 37.0215 102.809 37.4551 102.809 37.873C102.809 38.2285 102.713 38.5645 102.521 38.8809C102.33 39.1973 102.064 39.457 101.725 39.6602C101.076 40.0469 100.285 40.2402 99.3516 40.2402C98.4922 40.2402 97.7363 40.0176 97.084 39.5723C96.627 39.2598 96.3984 39.0156 96.3984 38.8398C96.3984 38.7891 96.418 38.7441 96.457 38.7051C96.5 38.6621 96.5488 38.6406 96.6035 38.6406ZM111.281 34.7559L111.27 33.1094L111.258 32.377C111.258 32.1855 111.273 32.0566 111.305 31.9902C111.336 31.9238 111.4 31.8906 111.498 31.8906C111.646 31.8906 111.721 32.0098 111.721 32.248L111.715 32.6465L111.703 33.9473L111.686 36.0391L111.703 38.2188L111.715 39.748C111.715 39.8887 111.699 39.9844 111.668 40.0352C111.641 40.0859 111.584 40.1113 111.498 40.1113C111.408 40.1113 111.346 40.084 111.311 40.0293C111.279 39.9746 111.264 39.875 111.264 39.7305L111.27 39.2324L111.287 36.291V35.2012L111.064 35.1953L109.922 35.1719L107.408 35.2012L107.414 36.8184L107.449 40H103.857L103.887 34.9199L103.875 33.5781L103.869 32.3418L103.857 32.002H107.449L107.443 32.3066L107.414 34.7559C107.812 34.7832 108.445 34.7969 109.312 34.7969C110.109 34.7969 110.766 34.7832 111.281 34.7559ZM116.848 31.7617C117.465 31.7617 118.061 31.8926 118.635 32.1543C119.479 32.541 120.123 33.1367 120.568 33.9414C120.924 34.5859 121.102 35.2871 121.102 36.0449C121.102 36.6543 120.967 37.2441 120.697 37.8145C120.295 38.666 119.668 39.3125 118.816 39.7539C118.191 40.0781 117.535 40.2402 116.848 40.2402C116.121 40.2402 115.434 40.0566 114.785 39.6895C113.922 39.2051 113.307 38.5254 112.939 37.6504C112.713 37.1152 112.6 36.5625 112.6 35.9922C112.6 35.2773 112.777 34.5957 113.133 33.9473C113.57 33.1504 114.209 32.5547 115.049 32.1602C115.607 31.8984 116.207 31.7656 116.848 31.7617ZM116.385 32.1543L116.35 35.9688L116.379 39.1387L116.385 39.8535C116.518 39.877 116.645 39.8887 116.766 39.8887C117.629 39.8887 118.4 39.6504 119.08 39.1738C119.701 38.7363 120.15 38.1738 120.428 37.4863C120.623 37.0059 120.721 36.5078 120.721 35.9922C120.721 35.3125 120.557 34.6797 120.229 34.0938C119.826 33.375 119.26 32.8457 118.529 32.5059C117.982 32.248 117.406 32.1191 116.801 32.1191C116.66 32.1191 116.521 32.1309 116.385 32.1543ZM131.004 36.209C131.637 34.6973 132.156 33.3926 132.562 32.2949C132.629 32.1152 132.682 32.0039 132.721 31.9609C132.76 31.9141 132.826 31.8906 132.92 31.8906C132.998 31.8906 133.064 31.9102 133.119 31.9492C133.178 31.9883 133.207 32.0352 133.207 32.0898C133.207 32.1406 133.055 32.5117 132.75 33.2031L132.41 33.9648L129.498 40.5625L128.051 37.8379L126.914 35.8105L126.018 37.4512L124.652 40.0117L124.371 40.5625L123.24 37.7734L122.244 35.3535C121.752 34.1387 121.277 33.0469 120.82 32.0781L120.785 32.002H124.453L124.957 33.291C125.473 34.5801 125.881 35.5469 126.182 36.1914L127.266 34.1992L127.664 33.4492L127.934 32.9453L128.385 32.1016C128.455 31.9648 128.521 31.8418 128.584 31.7324L129.451 33.4258C129.951 34.3828 130.469 35.3105 131.004 36.209Z" fill="#FFC700"/>
</svg>
