<svg width="317" height="67" viewBox="0 0 317 67" fill="none" xmlns="http://www.w3.org/2000/svg">
<path d="M96.6035 38.6406C96.6738 38.6406 96.7559 38.6934 96.8496 38.7988C97.1426 39.1191 97.5 39.377 97.9219 39.5723C98.3477 39.7637 98.7676 39.8594 99.1816 39.8594C99.6387 39.8594 99.8672 39.7207 99.8672 39.4434C99.8672 39.2676 99.7871 39.0703 99.627 38.8516C99.4668 38.6289 99.084 38.1914 98.4785 37.5391C97.7168 36.7148 97.209 36.1035 96.9551 35.7051C96.6191 35.1777 96.4512 34.6758 96.4512 34.1992C96.4512 33.4805 96.7715 32.8926 97.4121 32.4355C98.041 31.9863 98.8164 31.7617 99.7383 31.7617C100.383 31.7617 100.975 31.8926 101.514 32.1543C101.717 32.2559 101.891 32.373 102.035 32.5059C102.184 32.6387 102.258 32.75 102.258 32.8398C102.258 32.8828 102.236 32.9238 102.193 32.9629C102.154 32.998 102.113 33.0156 102.07 33.0156C102.004 33.0156 101.906 32.9551 101.777 32.834C101.566 32.6348 101.289 32.4707 100.945 32.3418C100.602 32.209 100.271 32.1426 99.9551 32.1426C99.7598 32.1426 99.5996 32.1855 99.4746 32.2715C99.3535 32.3535 99.293 32.4609 99.293 32.5938C99.293 32.7539 99.3691 32.9492 99.5215 33.1797C99.6738 33.4102 99.9316 33.7168 100.295 34.0996C101.443 35.3223 102.146 36.1465 102.404 36.5723C102.674 37.0215 102.809 37.4551 102.809 37.873C102.809 38.2285 102.713 38.5645 102.521 38.8809C102.33 39.1973 102.064 39.457 101.725 39.6602C101.076 40.0469 100.285 40.2402 99.3516 40.2402C98.4922 40.2402 97.7363 40.0176 97.084 39.5723C96.627 39.2598 96.3984 39.0156 96.3984 38.8398C96.3984 38.7891 96.418 38.7441 96.457 38.7051C96.5 38.6621 96.5488 38.6406 96.6035 38.6406ZM111.281 34.7559L111.27 33.1094L111.258 32.377C111.258 32.1855 111.273 32.0566 111.305 31.9902C111.336 31.9238 111.4 31.8906 111.498 31.8906C111.646 31.8906 111.721 32.0098 111.721 32.248L111.715 32.6465L111.703 33.9473L111.686 36.0391L111.703 38.2188L111.715 39.748C111.715 39.8887 111.699 39.9844 111.668 40.0352C111.641 40.0859 111.584 40.1113 111.498 40.1113C111.408 40.1113 111.346 40.084 111.311 40.0293C111.279 39.9746 111.264 39.875 111.264 39.7305L111.27 39.2324L111.287 36.291V35.2012L111.064 35.1953L109.922 35.1719L107.408 35.2012L107.414 36.8184L107.449 40H103.857L103.887 34.9199L103.875 33.5781L103.869 32.3418L103.857 32.002H107.449L107.443 32.3066L107.414 34.7559C107.812 34.7832 108.445 34.7969 109.312 34.7969C110.109 34.7969 110.766 34.7832 111.281 34.7559ZM116.848 31.7617C117.465 31.7617 118.061 31.8926 118.635 32.1543C119.479 32.541 120.123 33.1367 120.568 33.9414C120.924 34.5859 121.102 35.2871 121.102 36.0449C121.102 36.6543 120.967 37.2441 120.697 37.8145C120.295 38.666 119.668 39.3125 118.816 39.7539C118.191 40.0781 117.535 40.2402 116.848 40.2402C116.121 40.2402 115.434 40.0566 114.785 39.6895C113.922 39.2051 113.307 38.5254 112.939 37.6504C112.713 37.1152 112.6 36.5625 112.6 35.9922C112.6 35.2773 112.777 34.5957 113.133 33.9473C113.57 33.1504 114.209 32.5547 115.049 32.1602C115.607 31.8984 116.207 31.7656 116.848 31.7617ZM116.385 32.1543L116.35 35.9688L116.379 39.1387L116.385 39.8535C116.518 39.877 116.645 39.8887 116.766 39.8887C117.629 39.8887 118.4 39.6504 119.08 39.1738C119.701 38.7363 120.15 38.1738 120.428 37.4863C120.623 37.0059 120.721 36.5078 120.721 35.9922C120.721 35.3125 120.557 34.6797 120.229 34.0938C119.826 33.375 119.26 32.8457 118.529 32.5059C117.982 32.248 117.406 32.1191 116.801 32.1191C116.66 32.1191 116.521 32.1309 116.385 32.1543ZM131.004 36.209C131.637 34.6973 132.156 33.3926 132.562 32.2949C132.629 32.1152 132.682 32.0039 132.721 31.9609C132.76 31.9141 132.826 31.8906 132.92 31.8906C132.998 31.8906 133.064 31.9102 133.119 31.9492C133.178 31.9883 133.207 32.0352 133.207 32.0898C133.207 32.1406 133.055 32.5117 132.75 33.2031L132.41 33.9648L129.498 40.5625L128.051 37.8379L126.914 35.8105L126.018 37.4512L124.652 40.0117L124.371 40.5625L123.24 37.7734L122.244 35.3535C121.752 34.1387 121.277 33.0469 120.82 32.0781L120.785 32.002H124.453L124.957 33.291C125.473 34.5801 125.881 35.5469 126.182 36.1914L127.266 34.1992L127.664 33.4492L127.934 32.9453L128.385 32.1016C128.455 31.9648 128.521 31.8418 128.584 31.7324L129.451 33.4258C129.951 34.3828 130.469 35.3105 131.004 36.209Z" fill="#FFC700"/>
<path d="M131.531 38.6406C131.602 38.6406 131.684 38.6934 131.777 38.7988C132.07 39.1191 132.428 39.377 132.85 39.5723C133.276 39.7637 133.695 39.8594 134.11 39.8594C134.567 39.8594 134.795 39.7207 134.795 39.4434C134.795 39.2676 134.715 39.0703 134.555 38.8516C134.395 38.6289 134.012 38.1914 133.406 37.5391C132.645 36.7148 132.137 36.1035 131.883 35.7051C131.547 35.1777 131.379 34.6758 131.379 34.1992C131.379 33.4805 131.699 32.8926 132.34 32.4355C132.969 31.9863 133.744 31.7617 134.666 31.7617C135.311 31.7617 135.902 31.8926 136.442 32.1543C136.645 32.2559 136.819 32.373 136.963 32.5059C137.111 32.6387 137.186 32.75 137.186 32.8398C137.186 32.8828 137.164 32.9238 137.121 32.9629C137.082 32.998 137.041 33.0156 136.998 33.0156C136.932 33.0156 136.834 32.9551 136.705 32.834C136.494 32.6348 136.217 32.4707 135.873 32.3418C135.529 32.209 135.199 32.1426 134.883 32.1426C134.688 32.1426 134.527 32.1855 134.402 32.2715C134.281 32.3535 134.221 32.4609 134.221 32.5938C134.221 32.7539 134.297 32.9492 134.449 33.1797C134.602 33.4102 134.86 33.7168 135.223 34.0996C136.371 35.3223 137.074 36.1465 137.332 36.5723C137.602 37.0215 137.736 37.4551 137.736 37.873C137.736 38.2285 137.641 38.5645 137.449 38.8809C137.258 39.1973 136.992 39.457 136.652 39.6602C136.004 40.0469 135.213 40.2402 134.279 40.2402C133.42 40.2402 132.664 40.0176 132.012 39.5723C131.555 39.2598 131.326 39.0156 131.326 38.8398C131.326 38.7891 131.346 38.7441 131.385 38.7051C131.428 38.6621 131.477 38.6406 131.531 38.6406ZM143.731 32.3945L143.701 34.2285L143.684 35.9688L143.701 40H140.127L140.162 35.3301L140.145 33.7422L140.127 32.3945L139.354 32.4121L138.246 32.4355L138.082 32.4414C137.895 32.4414 137.801 32.3711 137.801 32.2305C137.801 32.1055 137.856 32.0352 137.965 32.0195C137.996 32.0117 138.092 32.0059 138.252 32.002H145.442C145.692 32.0059 145.84 32.0176 145.887 32.0371C145.965 32.0684 146.004 32.1348 146.004 32.2363C146.004 32.3691 145.904 32.4355 145.705 32.4355L145.195 32.418L143.848 32.3945H143.731ZM149.842 31.7617C150.459 31.7617 151.055 31.8926 151.629 32.1543C152.473 32.541 153.117 33.1367 153.563 33.9414C153.918 34.5859 154.096 35.2871 154.096 36.0449C154.096 36.6543 153.961 37.2441 153.692 37.8145C153.289 38.666 152.662 39.3125 151.811 39.7539C151.186 40.0781 150.529 40.2402 149.842 40.2402C149.115 40.2402 148.428 40.0566 147.779 39.6895C146.916 39.2051 146.301 38.5254 145.934 37.6504C145.707 37.1152 145.594 36.5625 145.594 35.9922C145.594 35.2773 145.772 34.5957 146.127 33.9473C146.565 33.1504 147.203 32.5547 148.043 32.1602C148.602 31.8984 149.201 31.7656 149.842 31.7617ZM149.379 32.1543L149.344 35.9688L149.373 39.1387L149.379 39.8535C149.512 39.877 149.639 39.8887 149.76 39.8887C150.623 39.8887 151.395 39.6504 152.074 39.1738C152.695 38.7363 153.145 38.1738 153.422 37.4863C153.617 37.0059 153.715 36.5078 153.715 35.9922C153.715 35.3125 153.551 34.6797 153.223 34.0938C152.82 33.375 152.254 32.8457 151.524 32.5059C150.977 32.248 150.401 32.1191 149.795 32.1191C149.654 32.1191 149.516 32.1309 149.379 32.1543ZM158.625 38.5645V38.7285L158.631 39.8535V40H155.057L155.063 39.6426L155.092 35.5234L155.069 33.5664L155.063 32.2363L155.057 32.002H157.735C158.828 32.002 159.656 32.0488 160.219 32.1426C160.785 32.2363 161.26 32.4043 161.643 32.6465C162.158 32.9707 162.557 33.4219 162.838 34C163.053 34.4414 163.16 34.9043 163.16 35.3887C163.16 35.9121 163.039 36.4121 162.797 36.8887C162.508 37.459 162.098 37.8984 161.567 38.207C161.039 38.5117 160.428 38.6641 159.733 38.6641C159.475 38.6641 159.106 38.6309 158.625 38.5645ZM158.631 32.4004V32.793L158.608 36.707L158.619 38.166C158.928 38.248 159.328 38.2891 159.82 38.2891C160.262 38.2891 160.68 38.2012 161.074 38.0254C161.469 37.8496 161.803 37.6016 162.076 37.2812C162.541 36.7383 162.774 36.1074 162.774 35.3887C162.774 34.7051 162.543 34.0859 162.082 33.5312C161.754 33.1367 161.33 32.8496 160.811 32.6699C160.291 32.4902 159.623 32.4004 158.807 32.4004H158.631Z" fill="#FFC700"/>
<rect x="132.862" y="29" width="1.9753" height="14.2158" transform="rotate(20 132.862 29)" fill="#FFC700"/>
</svg>
