<svg width="1080" height="1600" viewBox="0 0 1080 1600" fill="none" xmlns="http://www.w3.org/2000/svg">
<g clip-path="url(#clip0)">
<rect width="1080" height="1600" fill="white"/>
<rect width="1080" height="1600" fill="#A7E9A6"/>
<path d="M99.6297 124.772L133.522 65.5315C136.572 60.2064 134.458 55.6157 131.202 53.604C127.926 51.579 123.051 51.874 120.071 56.355L111.026 69.9682C110.919 70.1292 110.672 69.9995 110.743 69.8198L121.876 41.6527C124.398 35.2584 121.679 30.7729 118.084 29.3114C114.374 27.8025 109.099 29.3765 106.631 35.2672L93.5835 66.4842C93.4907 66.7054 93.3181 66.6111 93.3659 66.4417L104.112 28.3815C105.719 22.6817 102.832 18.5262 99.1481 17.3674C95.4978 16.2185 90.7858 17.9792 88.841 23.5683L75.8363 61.0122C75.7924 61.1391 75.6025 61.092 75.6229 60.9591L80.4115 29.8989C81.591 22.2612 78.093 18.086 74.1034 17.3358C70.3537 16.6313 65.776 19.0433 64.6095 24.2992L53.5205 74.1792C53.5198 74.1792 53.5195 74.1792 53.5188 74.1796L50.8785 70.0167V70.016C51.2684 66.7897 50.2879 64.0528 48.4767 62.1748C45.4244 59.0097 39.6458 58.265 34.5059 62.9682L31.1647 66.0297C30.8739 66.2961 30.4063 66.0775 30.4243 65.6837L32.6785 15.7028C32.9256 10.3232 29.1376 6.80017 25.3319 6.50239C21.2826 6.18353 16.8153 9.30751 15.9642 16.9944L12.5435 47.7463C12.5224 47.9344 12.2474 47.9288 12.2341 47.74L9.4708 8.67927C9.05947 2.7804 4.96342 -0.149519 1.15072 0.0058715C-2.71014 0.162317 -6.5833 3.41919 -6.51615 9.34021L-6.07037 48.8541C-6.06826 49.032 -6.25951 49.1118 -6.29115 48.8773L-10.7504 15.3329C-11.5906 9.00446 -16.2699 6.10759 -20.2447 6.59661C-24.0978 7.06982 -27.8936 10.6909 -27.1226 17.5239L-23.7385 47.4858C-23.7149 47.6946 -24.0117 47.7604 -24.0785 47.561L-29.219 32.1844C-30.9297 27.0804 -35.5598 25.5247 -39.2522 26.6251C-42.9187 27.7192 -46.1559 31.5997 -44.6002 37.5359L-27.3244 103.569V111.597C-30.6994 112.911 -33.0985 116.193 -33.0985 120.026C-33.0985 125.013 -29.0418 129.07 -24.0552 129.07H-6.34318C-4.88701 129.07 -3.70681 127.89 -3.70681 126.434C-3.70681 124.978 -4.88701 123.797 -6.34318 123.797H-24.0552C-26.1344 123.797 -27.8261 122.106 -27.8261 120.026C-27.8261 117.947 -26.1344 116.255 -24.0552 116.255H22.6836C24.7631 116.255 26.4548 117.947 26.4548 120.026C26.4548 122.106 24.7631 123.797 22.6836 123.797H5.72139C4.26522 123.797 3.08502 124.978 3.08502 126.434C3.08502 127.89 4.26522 129.07 5.72139 129.07H22.6836C27.6701 129.07 31.7272 125.013 31.7272 120.026C31.7272 116.561 29.7672 113.547 26.8988 112.029C28.8018 103.68 33.8675 95.1904 38.2363 89.1178H38.2381C41.5628 96.6975 45.3917 108.382 45.0844 118.468C43.9485 118.625 42.8408 119.001 41.8142 119.591C39.7147 120.796 38.2138 122.741 37.587 125.068C36.2929 129.886 39.1543 134.86 43.9633 136.155L59.387 140.323C60.7912 140.703 62.24 139.872 62.6197 138.466C62.9997 137.06 62.1679 135.613 60.7624 135.233L45.3365 131.065C43.3308 130.525 42.1387 128.449 42.6787 126.438C42.9381 125.474 43.5636 124.666 44.4404 124.163C45.2282 123.711 46.1272 123.559 47.0054 123.724C47.1042 123.745 47.2068 123.763 47.3045 123.789L60.9701 127.476L92.5492 136.001C94.479 136.598 95.6131 138.626 95.0858 140.589C94.8263 141.552 94.2002 142.361 93.323 142.866C92.4455 143.371 91.4316 143.506 90.4697 143.247L71.7452 138.193C70.3403 137.813 68.8926 138.646 68.5129 140.052C68.1336 141.457 68.9657 142.904 70.3713 143.284L89.0972 148.338C89.8738 148.547 90.6624 148.65 91.4467 148.65C93.0101 148.65 94.5563 148.239 95.9534 147.435C98.0512 146.228 99.5509 144.283 100.177 141.958C101.093 138.547 99.919 135.054 97.4426 132.845L99.6297 124.772ZM21.7273 110.984H-22.052V103.23C-22.052 103.005 -22.0809 102.781 -22.1378 102.563L-39.4997 36.2003C-40.2166 33.4655 -39.0635 32.0712 -37.7454 31.6781C-36.573 31.3276 -34.9456 31.6901 -34.2193 33.8582L-27.6472 53.5161C-25.7811 59.1141 -22.5147 58.8616 -21.5588 58.65C-19.4892 58.1933 -17.4828 55.8941 -18.0576 50.8091L-21.884 16.9325C-22.2545 13.6468 -21.0051 12.0022 -19.6027 11.83C-18.1012 11.6447 -16.3757 13.0288 -15.9774 16.0273L-11.5171 49.5758C-11.0031 53.4096 -8.33794 54.9509 -5.92833 54.7751C-3.01564 54.5641 -0.76107 52.0195 -0.795523 48.982L-1.24341 9.28185C-1.27435 6.58853 0.0440047 5.32888 1.36447 5.27544C2.54818 5.22517 4.01174 6.18599 4.21143 9.05017L7.2106 51.4472C7.45002 54.832 10.0083 56.5209 12.4383 56.4492C15.1524 56.3631 17.3047 54.2892 17.4094 51.6957L21.2046 17.577C21.6676 13.3941 23.3965 11.6384 24.9206 11.7597C26.2059 11.8602 27.5158 13.1919 27.4114 15.4641L24.8242 72.8211C24.7891 73.6027 25.0622 74.3845 25.6353 74.9172C26.6924 75.8998 28.2463 75.8551 29.2356 74.9488L38.0665 66.8579C40.8404 64.3197 43.4402 64.5485 44.6815 65.8359C46.516 67.7379 46.143 72.17 40.9866 77.4108C40.827 77.5729 25.5913 93.7359 21.7273 110.984V110.984ZM94.8854 122.447C94.7736 122.642 94.6874 122.851 94.6287 123.068L92.6027 130.548L66.8064 123.589L50.3413 119.143C50.341 119.143 50.3406 119.143 50.3406 119.142C50.9647 104.946 44.2913 89.4989 41.8659 84.3928C41.8662 84.3897 41.8666 84.3875 41.8669 84.3847C43.0914 82.8913 44.1046 81.761 44.748 81.1047C46.3694 79.4569 47.6318 77.8306 48.5863 76.2534H48.5902L52.4831 82.3914C53.0551 83.2928 54.114 83.76 55.1641 83.5761C56.2153 83.3923 57.0513 82.5932 57.2829 81.5515L69.7567 25.4432C70.2489 23.2245 71.8651 22.2798 73.1296 22.5185C74.6227 22.7991 75.8423 24.9415 75.201 29.0959L69.9698 63.0266C69.3929 65.5508 70.9236 68.1105 73.5167 68.9051C75.8307 69.6135 78.7581 68.6548 79.8779 65.4464L93.8212 25.3001C94.7662 22.585 96.4301 22.039 97.5657 22.3972C98.8257 22.7938 99.7693 24.3554 99.038 26.9503L88.2493 65.1585C87.4224 68.0779 88.9348 71.1192 91.6918 72.0829C93.902 72.8556 96.9596 72.0709 98.4467 68.5194L111.494 37.3031C112.664 34.5103 114.696 33.6244 116.098 34.196C117.406 34.7283 118.184 36.6422 116.971 39.717L104.439 71.4237C102.561 76.1824 103.897 78.9246 105.774 79.9044C106.64 80.3569 109.724 81.4534 112.991 76.5379L124.461 59.2744C125.725 57.3717 127.389 57.447 128.43 58.0896C129.6 58.8128 130.351 60.4591 128.946 62.9123L94.8854 122.447Z" fill="#0C7523"/>
<path d="M234.52 170.586C234.856 170.508 235.174 170.335 235.431 170.068L240.646 164.642C241.255 164.009 241.392 163.023 240.898 162.296C240.212 161.284 238.824 161.207 238.025 162.037L232.831 167.441C232.043 168.261 232.099 169.624 233.022 170.288C233.464 170.607 234.013 170.705 234.52 170.586V170.586Z" fill="#0C7523"/>
<path d="M239.959 175.829C240.295 175.751 240.614 175.577 240.871 175.309L246.068 169.894C246.771 169.161 246.823 167.977 246.108 167.254C245.374 166.513 244.178 166.527 243.461 167.274L238.268 172.685C237.481 173.505 237.538 174.868 238.461 175.531C238.903 175.849 239.451 175.947 239.959 175.829V175.829Z" fill="#0C7523"/>
<path d="M225.747 136.471C225.261 134.386 223.22 133.066 221.004 133.399L191.097 137.801C189.883 137.985 188.839 138.745 188.248 139.916C187.796 140.81 187.711 141.845 187.938 142.821L191.203 156.832C191.452 157.898 192.347 159.716 195.557 159.915L226.93 161.823C227.238 161.842 227.541 161.816 227.835 161.747C228.516 161.588 229.141 161.204 229.624 160.632C230.459 159.642 230.805 158.172 230.505 156.885L225.747 136.471ZM226.906 157.724C226.934 157.841 227.009 158.119 226.829 158.109C226.827 158.113 195.784 156.227 195.784 156.227C195.102 156.185 194.851 156.202 194.803 155.998C194.803 155.996 194.802 155.995 194.802 155.993L191.485 141.759C191.44 141.568 191.516 141.476 191.639 141.457C191.775 141.436 221.548 137.053 221.548 137.053C221.855 137.003 222.102 137.108 222.149 137.309L226.907 157.724L226.906 157.724Z" fill="#0C7523"/>
<path d="M262.931 146.106C262.931 146.106 249.16 122.386 249.056 122.204C247.276 119.111 246.047 117.399 241.486 118.183L159.904 132.257C159.158 132.387 158.54 132.962 158.394 133.768C158.349 134.02 158.369 134.28 158.427 134.53L166.859 170.708C167.042 171.497 167.719 172.074 168.527 172.131L211.073 175.147C211.073 175.146 211.073 175.146 211.074 175.147C211.579 175.214 212.07 175.292 212.554 175.376C212.557 175.377 212.56 175.379 212.561 175.383C214.069 182.077 213.708 187.294 211.544 189.778C209.858 191.712 210.427 193.28 210.75 193.864C211.676 195.54 214.084 196.206 217.358 195.692C217.733 195.634 218.111 195.56 218.49 195.471C222.332 194.576 226.316 192.164 228.652 188.283C228.656 188.276 228.666 188.277 228.668 188.285C229.323 190.774 229.537 193.601 229.307 196.765C229.276 197.198 229.207 197.701 229.128 198.285C228.813 200.602 228.382 203.775 229.404 208.16L232.442 221.196C232.501 221.452 232.559 221.695 232.614 221.928C233.063 223.828 233.269 224.764 233.028 225.292C232.703 226.005 231.359 227.02 229.148 228.532C228.517 228.964 228.216 229.74 228.39 230.485L230.542 239.721C231.29 242.929 234.091 244.461 237.68 243.625L268.653 236.407C272.324 235.551 274.461 232.203 273.626 228.619L271.99 221.599C271.99 221.599 271.989 221.598 271.989 221.598C271.074 213.417 269.783 205.187 268.152 197.135C267.949 196.135 266.974 195.488 265.974 195.691C264.98 195.889 264.328 196.869 264.531 197.868C266.147 205.85 267.425 214.008 268.33 222.116C268.338 222.188 268.35 222.26 268.366 222.331L270.027 229.458C270.402 231.066 269.513 232.412 267.815 232.808L257.965 235.104C257.96 235.105 257.955 235.102 257.954 235.098C255.988 227.607 252.957 221.501 248.927 216.936C244.608 212.043 239.327 209.117 233.218 208.222C233.214 208.221 233.211 208.219 233.21 208.215L233.002 207.322C232.135 203.599 232.498 200.928 232.789 198.782C232.873 198.165 232.953 197.581 232.992 197.033C234.049 182.517 226.416 173.44 211.502 171.476C211.465 171.472 211.428 171.469 211.391 171.465L181.157 169.322C181.153 169.322 181.15 169.319 181.149 169.316L177.691 154.477C177.46 153.487 176.495 152.798 175.5 153.003C174.479 153.214 173.838 154.223 174.073 155.233L177.29 169.037C177.291 169.043 177.287 169.048 177.281 169.048L170.154 168.543C170.151 168.542 170.147 168.54 170.146 168.536L162.464 135.573C162.463 135.569 162.466 135.564 162.471 135.563L169.209 134.4C169.214 134.4 169.218 134.403 169.219 134.407L172.116 146.839C172.347 147.828 173.312 148.517 174.307 148.312C175.328 148.102 175.969 147.093 175.734 146.083L172.866 133.779C172.865 133.774 172.868 133.769 172.873 133.768L229.665 123.969C229.669 123.968 229.671 123.968 229.673 123.972C229.799 124.204 235.884 135.459 235.954 135.601C236.603 136.911 237.335 137.183 238.753 137.297L242.038 137.523C242.042 137.523 242.044 137.525 242.046 137.528L253.921 160.227C253.922 160.227 253.922 160.227 253.922 160.228C257.389 169.593 260.36 179.518 262.755 189.729C262.987 190.722 263.98 191.338 264.973 191.107L264.975 191.106C265.969 190.873 266.585 189.879 266.352 188.886C264.011 178.901 261.124 169.182 257.767 159.979C257.766 159.976 257.767 159.973 257.77 159.97L261.934 155.965C264.693 153.308 266.255 151.184 262.931 146.106V146.106ZM236.209 221.077L234.13 212.159C234.128 212.153 234.134 212.147 234.141 212.148C243.728 214.233 250.814 222.551 254.353 235.936C254.354 235.94 254.352 235.945 254.347 235.946L236.841 240.026C234.532 240.564 234.268 239.428 234.14 238.882L232.273 230.868C232.272 230.865 232.273 230.861 232.276 230.859C234.582 229.234 235.777 228.166 236.389 226.826C237.166 225.123 236.785 223.514 236.209 221.077V221.077ZM216.542 176.326C221.148 177.767 224.521 180.192 226.654 183.581C226.656 183.583 226.656 183.585 226.655 183.588C225.462 188.265 221.737 190.401 219.559 191.27C217.278 192.18 215.387 192.247 214.44 192.095C214.433 192.094 214.431 192.086 214.435 192.081C217.154 188.846 217.865 183.439 216.531 176.336C216.529 176.329 216.536 176.324 216.542 176.326V176.326ZM261.092 151.172C260.985 151.715 260.312 152.398 259.372 153.302L256.118 156.432C256.114 156.436 256.107 156.435 256.104 156.43L244.838 134.895C244.541 134.326 243.969 133.953 243.328 133.909L239.095 133.617C239.092 133.617 239.085 133.611 239.088 133.613C239.095 133.617 233.519 123.316 233.519 123.316C233.516 123.311 233.519 123.305 233.525 123.303L239.916 122.201L242.11 121.826C243.837 121.529 244.213 121.778 244.337 121.86C244.752 122.135 245.238 122.979 245.853 124.048C245.96 124.233 246.071 124.427 246.188 124.627C246.188 124.627 259.796 148.065 259.815 148.094C260.777 149.555 261.207 150.591 261.092 151.172V151.172Z" fill="#0C7523"/>
<path d="M365.283 89.3379C364.276 88.8808 363.089 89.3267 362.631 90.3349L351.988 113.805C351.531 114.812 351.977 116 352.985 116.457C353.384 116.638 353.812 116.677 354.212 116.595C354.819 116.471 355.361 116.067 355.637 115.459L366.281 91.9899C366.738 90.982 366.291 89.7946 365.283 89.3379Z" fill="#0C7523"/>
<path d="M360.649 128.291C361.049 128.472 361.476 128.512 361.876 128.43C362.483 128.306 363.025 127.902 363.301 127.294L381.927 86.2401C382.384 85.2324 381.938 84.0452 380.93 83.5879C379.922 83.1309 378.735 83.5768 378.278 84.5848L359.652 125.639C359.195 126.646 359.641 127.834 360.649 128.291V128.291Z" fill="#0C7523"/>
<path d="M320.837 62.7702L319.259 63.0929C318.175 63.3146 317.476 64.3731 317.698 65.457C317.92 66.541 318.978 67.2401 320.062 67.0184L321.64 66.6957C322.724 66.4741 323.423 65.4156 323.202 64.3316C322.98 63.2476 321.921 62.5485 320.837 62.7702Z" fill="#0C7523"/>
<path d="M391.785 52.3518L393.363 52.0291C394.447 51.8074 395.146 50.749 394.924 49.665C394.702 48.581 393.644 47.8819 392.56 48.1036L390.982 48.4263C389.898 48.648 389.199 49.7065 389.42 50.7904C389.642 51.8744 390.7 52.5735 391.785 52.3518Z" fill="#0C7523"/>
<path d="M348.296 18.3872C319.801 24.2141 290.862 36.9842 293.354 49.173L296.519 64.6483C297.338 68.6574 302.338 71.1835 311.38 72.1681L311.597 73.228C311.847 74.452 312.68 75.4093 313.747 75.8787L316.003 99.0254C316.11 100.127 317.09 100.932 318.191 100.825C318.262 100.818 318.332 100.808 318.4 100.794C319.392 100.591 320.091 99.6672 319.991 98.6369L317.761 75.7591L398.91 59.165L416.842 115.83C419.456 124.088 419.416 125.959 413.1 130.975C402.229 139.612 389.031 145.66 374.881 148.454C360.819 151.426 346.29 151.051 332.9 147.374C325.044 145.22 324.339 143.66 323.514 134.921L320.953 107.844C320.849 106.743 319.872 105.934 318.771 106.038C317.67 106.142 316.86 107.12 316.965 108.221L319.525 135.297C320.483 145.446 322.124 148.573 331.839 151.238C345.654 155.031 360.602 155.465 375.09 152.502C375.287 152.462 375.487 152.421 375.684 152.379C375.883 152.339 376.081 152.3 376.279 152.259C390.795 149.291 404.377 143.023 415.592 134.112C419.031 131.381 421.475 128.886 422.227 125.582C422.897 122.639 422.194 119.46 420.662 114.621L402.649 57.6986C403.446 56.8479 403.836 55.6405 403.586 54.4168L403.369 53.3569C411.299 48.902 414.905 44.616 414.086 40.6067L410.921 25.1317C408.429 12.9429 376.795 12.5594 348.296 18.3872L348.296 18.3872ZM309.036 60.7052L310.534 68.0298C303.588 67.1031 300.733 65.2604 300.444 63.8456L298.736 55.492C301.343 56.9013 304.846 57.9622 309.206 58.6533C308.964 59.2877 308.89 59.9934 309.036 60.7052V60.7052ZM392.13 39.9217L359.391 46.6165C358.306 46.8382 357.608 47.8967 357.829 48.9806C358.051 50.0646 359.109 50.7638 360.193 50.542L397.158 42.9831L399.602 54.9335L315.464 72.139L313.02 60.1886L316.974 59.38C316.976 59.3795 316.979 59.3795 316.982 59.379C316.984 59.3785 316.986 59.3776 316.988 59.3771L351.054 52.4109C352.138 52.1892 352.837 51.1307 352.616 50.0467C352.394 48.9628 351.336 48.2637 350.252 48.4853L316.443 55.3989C311 55.056 306.893 54.289 303.901 53.3062C314.926 45.6964 333.179 38.5834 351.729 34.7901C370.199 31.013 389.725 30.4005 402.844 33.0731C400.477 35.1517 397.002 37.4694 392.13 39.9217V39.9217ZM410.16 41.4097C410.449 42.8245 408.547 45.6401 402.523 49.2189L401.025 41.8943C400.88 41.1825 400.535 40.5624 400.064 40.0736C403.802 37.7268 406.608 35.3756 408.452 33.0562L410.16 41.4097ZM405.935 29.658C392.308 26.3218 370.953 26.7694 350.926 30.8648C330.815 34.9772 310.944 42.9601 299.717 51.3787C298.252 50.4007 297.481 49.3572 297.28 48.3703C296.576 44.93 301.507 40.0272 310.469 35.2554C320.386 29.9753 334.105 25.3789 349.099 22.3127C364.097 19.2459 378.521 18.0872 389.715 19.0502C399.832 19.9206 406.292 22.4941 406.996 25.9344C407.197 26.9213 406.899 28.1833 405.935 29.658V29.658Z" fill="#0C7523"/>
<path d="M96.1872 238.949C94.726 238.192 92.9343 238.766 92.1773 240.227C91.4199 241.689 91.9975 243.491 93.4588 244.248C94.1892 244.627 95.0045 244.674 95.7313 244.443C96.4581 244.213 97.0973 243.705 97.4758 242.974C98.2332 241.513 97.6625 239.714 96.2013 238.957L96.1872 238.949Z" fill="#0C7523"/>
<path d="M98.7482 202.692L98.7376 202.695C97.1689 203.193 96.3059 204.867 96.8036 206.436C97.3013 208.004 98.9819 208.871 100.551 208.373C102.119 207.875 102.988 206.2 102.49 204.631C101.992 203.063 100.317 202.194 98.7482 202.692Z" fill="#0C7523"/>
<path d="M114.343 200.582C115.912 200.085 116.78 198.409 116.282 196.841C115.785 195.272 114.109 194.404 112.54 194.901L112.53 194.905C110.961 195.402 110.098 197.076 110.596 198.645C111.094 200.214 112.774 201.08 114.343 200.582Z" fill="#0C7523"/>
<path d="M84.9994 210.469L84.9562 210.483C83.3874 210.981 82.5191 212.656 83.0168 214.225C83.5146 215.794 85.1899 216.662 86.7586 216.164L86.8018 216.15C88.3706 215.653 89.2389 213.977 88.7412 212.409C88.2434 210.84 86.5681 209.972 84.9994 210.469Z" fill="#0C7523"/>
<path d="M83.6833 232.679C85.2521 232.181 86.1204 230.506 85.6226 228.937L85.6193 228.927C85.1216 227.358 83.4479 226.495 81.8791 226.993C80.3104 227.49 79.4438 229.171 79.9415 230.74C80.4392 232.308 82.1146 233.177 83.6833 232.679Z" fill="#0C7523"/>
<path d="M109.675 237.169C108.107 237.667 107.238 239.342 107.736 240.911L107.739 240.921C108.237 242.49 109.911 243.353 111.479 242.855C113.048 242.358 113.915 240.677 113.417 239.108C112.919 237.54 111.244 236.671 109.675 237.169V237.169Z" fill="#0C7523"/>
<path d="M125.447 235.58L125.436 235.583C123.867 236.081 123.004 237.755 123.502 239.324C124 240.892 125.68 241.759 127.249 241.261C128.818 240.763 129.686 239.088 129.189 237.519C128.691 235.951 127.015 235.082 125.447 235.58Z" fill="#0C7523"/>
<path d="M102.682 223.502C102.184 221.933 100.51 221.07 98.9414 221.568C97.3726 222.065 96.506 223.746 97.0038 225.315C97.5015 226.883 99.1768 227.752 100.746 227.254C102.314 226.756 103.183 225.081 102.685 223.512L102.682 223.502Z" fill="#0C7523"/>
<path d="M119.752 218.086C119.255 216.517 117.574 215.65 116.005 216.148C114.437 216.646 113.568 218.321 114.066 219.89C114.564 221.459 116.239 222.327 117.808 221.829L117.818 221.826C119.387 221.328 120.25 219.654 119.752 218.086Z" fill="#0C7523"/>
<path d="M79.1559 318.804L68.0443 322.33C65.4056 323.167 63.9394 325.994 64.7763 328.632L65.8882 332.137L62.367 333.254C59.7283 334.091 58.264 336.923 59.1028 339.566L62.6249 350.668C63.4637 353.311 66.2928 354.781 68.9315 353.944L72.4527 352.827L73.5645 356.331C74.4032 358.975 77.2323 360.444 79.8714 359.607L90.983 356.082C93.6278 355.243 95.097 352.409 94.2582 349.765L93.1465 346.261L96.657 345.147C99.3018 344.308 100.771 341.475 99.9323 338.831L96.4101 327.73C95.5713 325.086 92.7373 323.618 90.0925 324.457L86.582 325.571L85.4701 322.066C84.6331 319.428 81.8006 317.965 79.1559 318.804V318.804ZM91.0103 330.419L93.9697 339.747L88.5033 341.481C86.9345 341.979 86.0662 343.654 86.564 345.223L88.2958 350.681L78.9643 353.642L77.2325 348.183C76.7348 346.615 75.0594 345.746 73.4907 346.244L68.0243 347.978L65.0648 338.651L70.5312 336.916C72.1 336.419 72.9683 334.743 72.4706 333.175L70.7421 327.727L80.0736 324.766L81.8021 330.214C82.2998 331.783 83.9751 332.651 85.5439 332.153L91.0103 330.419Z" fill="#0C7523"/>
<path d="M107.568 380.431L80.358 389.064C78.7893 389.562 77.921 391.237 78.4187 392.806C78.9164 394.374 80.5918 395.243 82.1605 394.745L109.37 386.112C110.939 385.614 111.807 383.939 111.31 382.37C110.812 380.802 109.136 379.933 107.568 380.431V380.431Z" fill="#0C7523"/>
<path d="M103.712 368.278L76.502 376.911C74.9332 377.408 74.0649 379.084 74.5626 380.652C75.0603 382.221 76.7357 383.09 78.3044 382.592L105.514 373.959C107.083 373.461 107.951 371.786 107.453 370.217C106.956 368.648 105.28 367.78 103.712 368.278V368.278Z" fill="#0C7523"/>
<path d="M125.204 354.487C123.635 354.984 122.767 356.66 123.265 358.229L133.007 388.934C134.065 392.269 132.208 395.845 128.868 396.904L72.4502 414.804C69.1162 415.862 65.5426 414.009 64.4844 410.674L41.5228 338.302C41.0251 336.733 39.3498 335.865 37.781 336.363C36.2122 336.861 35.3439 338.536 35.8417 340.105L58.8033 412.476C60.8554 418.944 67.786 422.537 74.2527 420.486L130.671 402.585C137.144 400.532 140.74 393.599 138.688 387.131L128.946 356.426C128.448 354.857 126.773 353.989 125.204 354.487V354.487Z" fill="#0C7523"/>
<path d="M85.4692 257.718L83.1921 250.541C81.8613 246.346 77.3688 244.016 73.1773 245.346L67.754 247.066L61.6111 227.704C60.4944 224.185 56.7206 222.23 53.1991 223.348L34.221 229.369C30.7051 230.484 28.7534 234.255 29.8701 237.775L36.0131 257.137L30.5789 258.861C26.3877 260.191 24.0602 264.685 25.391 268.88L27.668 276.056C21.6361 278.365 18.3676 285.03 20.3461 291.266L31.6821 326.996C32.1799 328.564 33.8552 329.433 35.4239 328.935C36.9927 328.437 37.861 326.762 37.3633 325.193L33.9004 314.279C35.9678 311.365 42.8058 303.308 55.9484 302.04L56.8731 301.951C59.9435 301.656 63.0841 301.354 66.2267 300.966C66.5923 300.992 66.9685 300.953 67.3393 300.835C67.3552 300.83 67.3696 300.823 67.3855 300.818C79.9702 299.174 92.4477 295.991 100.405 286.178L119.102 345.108C119.6 346.677 121.275 347.546 122.844 347.048C124.413 346.55 125.281 344.875 124.783 343.306L100.231 265.921C98.2526 259.685 91.7351 256.125 85.4692 257.718V257.718ZM35.5513 235.973C35.4325 235.598 35.6531 235.167 36.0235 235.05L55.0015 229.029C55.3841 228.907 55.8092 229.126 55.9299 229.507L57.9343 235.824L49.6633 238.449C48.0945 238.946 47.2262 240.622 47.7239 242.19C48.2217 243.759 49.897 244.627 51.4658 244.13L59.7368 241.506L62.0729 248.869L41.6942 255.334L35.5513 235.973ZM62.4885 295.399C60.4305 295.622 58.3626 295.821 56.3032 296.019L55.3765 296.108C43.461 297.258 35.8506 303.167 31.7614 307.536L26.0278 289.464C24.9695 286.128 26.8212 282.554 30.1552 281.497L55.5238 273.448L62.4885 295.399ZM33.3426 274.232L31.0725 267.077C30.7414 266.033 31.3409 264.872 32.3817 264.542L74.9801 251.027C76.0387 250.691 77.1744 251.281 77.5114 252.343L79.7814 259.498L33.3426 274.232ZM98.1251 278.992C92.1279 289.386 80.8457 292.878 68.5046 294.654L61.2046 271.645L86.5732 263.597C89.9133 262.537 93.4918 264.388 94.55 267.724L98.1251 278.992Z" fill="#0C7523"/>
<path d="M216.392 492.594L226.347 496.099C229.249 497.122 232.442 495.592 233.465 492.689L234.233 490.506L236.415 491.275C239.318 492.297 242.511 490.767 243.533 487.864L247.034 477.922C248.056 475.019 246.527 471.826 243.624 470.804L241.442 470.036L242.211 467.853C243.233 464.95 241.703 461.757 238.8 460.735L228.846 457.229C225.95 456.21 222.763 457.742 221.741 460.644L220.972 462.827L218.79 462.059C215.888 461.036 212.695 462.566 211.672 465.469L208.171 475.411C207.149 478.314 208.679 481.507 211.581 482.529L213.763 483.298L212.994 485.48C211.972 488.383 213.496 491.574 216.392 492.594V492.594ZM215.815 476.126L218.076 469.703L222.01 471.089C223.95 471.772 226.076 470.753 226.759 468.813L228.145 464.879L234.567 467.14L233.181 471.075C232.498 473.014 233.516 475.14 235.456 475.823L239.39 477.209L237.129 483.631L233.195 482.246C231.255 481.562 229.129 482.581 228.446 484.521L227.061 488.455L220.638 486.194L222.024 482.259C222.707 480.32 221.689 478.194 219.749 477.51L215.815 476.125L215.815 476.126Z" fill="#0C7523"/>
<path d="M225.03 511.943L242.935 518.249C249.161 520.441 256.009 517.16 258.201 510.934L272.799 469.481C274.989 463.263 271.707 456.421 265.481 454.228L212.6 435.606C206.382 433.416 199.542 436.693 197.352 442.911L182.754 484.365C180.561 490.59 183.836 497.437 190.055 499.626L208.982 506.292C210.922 506.975 213.048 505.956 213.731 504.017C214.414 502.077 213.396 499.951 211.456 499.268L192.528 492.602C190.183 491.777 188.949 489.191 189.778 486.838L204.376 445.385C205.202 443.04 207.782 441.804 210.127 442.629L263.007 461.252C265.36 462.08 266.602 464.662 265.776 467.008L251.177 508.461C250.349 510.813 247.761 512.053 245.409 511.225L227.504 504.919C225.564 504.236 223.438 505.255 222.755 507.195C222.072 509.134 223.09 511.26 225.03 511.943Z" fill="#0C7523"/>
<path d="M329.201 264.305L329.152 264.288C327.212 263.604 325.086 264.623 324.403 266.563C323.72 268.502 324.738 270.628 326.678 271.312L326.727 271.329C328.667 272.012 330.793 270.993 331.476 269.054C332.159 267.114 331.141 264.988 329.201 264.305Z" fill="#0C7523"/>
<path d="M360.769 232.304L360.713 232.284C358.773 231.601 356.647 232.62 355.964 234.559C355.281 236.499 356.3 238.625 358.24 239.308L358.295 239.327C360.235 240.011 362.361 238.992 363.044 237.052C363.727 235.113 362.708 232.987 360.769 232.304Z" fill="#0C7523"/>
<path d="M377.628 241.869L377.658 241.879C379.598 242.562 381.709 241.538 382.392 239.599C383.075 237.659 382.041 235.528 380.102 234.845C378.162 234.162 376.036 235.181 375.353 237.12C374.67 239.06 375.688 241.186 377.628 241.869Z" fill="#0C7523"/>
<path d="M338.869 236.738L338.909 236.752C340.849 237.436 342.954 236.41 343.637 234.47C344.32 232.531 343.282 230.398 341.342 229.715C339.402 229.031 337.277 230.05 336.594 231.99C335.911 233.929 336.929 236.055 338.869 236.738Z" fill="#0C7523"/>
<path d="M326.025 243.724C324.085 243.041 321.957 244.066 321.274 246.006C320.591 247.945 321.61 250.071 323.55 250.754C325.49 251.437 327.615 250.419 328.298 248.479L328.303 248.466C328.986 246.526 327.965 244.407 326.025 243.724Z" fill="#0C7523"/>
<path d="M345.867 274.441C343.927 273.758 341.801 274.777 341.118 276.716C340.435 278.656 341.453 280.782 343.393 281.465L343.416 281.473C345.356 282.156 347.471 281.133 348.154 279.194C348.837 277.254 347.806 275.124 345.867 274.441Z" fill="#0C7523"/>
<path d="M362.582 284.594C360.642 283.911 358.516 284.93 357.833 286.87C357.15 288.809 358.168 290.935 360.108 291.618L360.138 291.629C362.078 292.312 364.189 291.288 364.872 289.348C365.555 287.409 364.522 285.278 362.582 284.594Z" fill="#0C7523"/>
<path d="M346.88 251.061C344.94 250.377 342.814 251.396 342.131 253.336C341.448 255.275 342.466 257.401 344.406 258.085L344.452 258.101C346.392 258.784 348.495 257.757 349.178 255.817C349.861 253.878 348.82 251.744 346.88 251.061V251.061Z" fill="#0C7523"/>
<path d="M368.108 265.26C369.963 264.372 370.737 262.152 369.848 260.298C368.96 258.444 366.728 257.666 364.872 258.553C363.018 259.442 362.235 261.666 363.123 263.52C363.568 264.447 364.346 265.107 365.245 265.423C366.143 265.74 367.163 265.713 368.091 265.269L368.108 265.26Z" fill="#0C7523"/>
<path d="M347.171 325.231L343.435 323.916L343.923 322.53C344.607 320.59 343.588 318.464 341.648 317.781L256.474 287.786C255.481 287.436 254.387 287.523 253.462 288.024L237.348 296.76C236.197 297.383 235.111 297.96 234.096 298.499C227.094 302.219 222.868 304.465 222.515 308.804C222.209 312.551 225.268 315.429 228.616 317.98C235.225 323.021 237.365 329.1 235.775 338.306C235.465 340.096 236.493 341.848 238.207 342.452L242.898 344.104L239.085 354.933L227.718 350.93C224.178 349.684 220.285 351.549 219.038 355.088L212.255 374.349C211.659 376.042 211.782 377.813 212.452 379.34C212.452 379.34 189.463 401.132 188.923 401.566C186.577 403.455 185.44 404.74 183.618 409.915L173.7 437.993C173.015 439.931 174.032 442.058 175.971 442.743L175.974 442.745C177.912 443.427 180.037 442.41 180.721 440.473L190.64 412.392C191.942 408.697 192.292 408.415 193.593 407.366C194.189 406.887 218.578 383.791 218.578 383.791L270.435 402.053C271.832 417.163 278.265 430.378 290.051 442.383C297.351 449.804 294.847 458.065 289.792 472.029C289.319 473.337 288.839 474.663 288.366 476.005L267.626 534.9C266.839 537.135 264.385 538.316 262.158 537.531L163.285 502.712C162.212 502.334 161.347 501.552 160.849 500.508C160.354 499.469 160.289 498.311 160.67 497.24L175.074 456.508C175.759 454.569 174.744 452.442 172.805 451.756C172.803 451.756 172.802 451.755 172.8 451.755C170.863 451.072 168.738 452.088 168.053 454.025L153.652 494.75C152.605 497.693 152.774 500.877 154.128 503.715C155.485 506.557 157.859 508.695 160.812 509.735L259.684 544.554C265.785 546.702 272.499 543.481 274.65 537.372L295.39 478.478C295.856 477.156 296.328 475.85 296.795 474.562C301.47 461.644 306.305 448.287 295.363 437.162C285.195 426.806 279.631 415.95 278.057 403.287C280.034 402.666 281.708 401.164 282.447 399.067L289.229 379.807C290.476 376.267 288.604 372.372 285.058 371.123L270.253 365.909L274.066 355.08L275.107 355.446C276.137 355.809 277.273 355.702 278.216 355.153C284.856 351.291 291.625 349.894 300.639 350.999C296.788 362.327 294.485 374.987 299.191 390.384C301.252 397.147 305.961 401.113 310.604 402.748C313.41 403.736 316.194 403.873 318.353 403.262C322.364 402.125 324.451 398.602 323.429 394.702C319.69 380.312 320.05 367.348 324.489 356.127C328.044 355.687 332.224 354.037 334.039 350.404L337.836 351.741C343.761 353.827 350.279 350.704 352.366 344.779L354.133 339.761C356.219 333.836 353.096 327.318 347.171 325.231V325.231ZM281.992 377.938L275.636 395.988L275.206 395.837L219.493 376.217L225.849 358.167L240.123 363.194L264.267 371.696L281.992 377.938ZM246.109 357.407L249.922 346.578L267.042 352.607L263.229 363.436L246.109 357.407ZM276 347.866L243.543 336.436C244.574 326.031 241.221 318.229 233.131 312.057C231.383 310.725 230.569 309.89 230.196 309.429C231.384 308.373 255.559 295.358 255.559 295.358L335.663 323.568L327.42 346.975C327.128 347.804 324.793 348.789 322.627 348.808C304.332 342.697 289.994 340.45 276 347.866ZM316.111 396.148C315.522 396.253 314.448 396.256 313.064 395.768C313.036 395.759 313.009 395.749 312.982 395.739C311.503 395.202 307.892 393.394 306.313 388.21C302.258 374.946 303.942 364.087 308.055 352.344C310.83 352.988 313.804 353.811 317.025 354.821C312.623 366.988 312.296 381.169 316.111 396.148V396.148ZM345.342 342.305C344.619 344.357 342.362 345.439 340.309 344.717L336.574 343.401L340.962 330.94L344.698 332.255C346.75 332.978 347.831 335.236 347.109 337.288L345.342 342.305Z" fill="#0C7523"/>
<path d="M153.246 571.751C152.34 570.564 151.282 569.488 150.24 568.421C149.113 567.267 147.993 566.087 146.819 564.982C139.087 557.703 126.956 549.754 112.66 542.601C111.568 542.053 110.255 542.497 109.712 543.583C109.168 544.668 109.608 545.988 110.693 546.531C124.595 553.488 136.34 561.164 143.772 568.149C145.483 569.908 147.276 571.589 148.913 573.419L143.608 584.718C141.011 590.249 136.608 594.349 131.211 596.265C125.68 598.228 119.49 597.822 113.751 595.127C113.665 595.087 113.58 595.047 113.495 595.006C110.631 593.624 105.301 591.051 103.941 587.852C103.555 586.945 103.273 585.862 103.024 584.821C101.652 579.157 97.8354 574.486 92.5532 572.005C87.2794 569.529 81.2481 569.574 75.9975 572.135C75.0534 572.601 74.0513 573.079 73.0929 573.366C69.7627 574.363 64.3746 571.902 61.4799 570.58C55.6218 567.901 51.2533 563.347 49.2022 557.758C47.2294 552.381 47.5738 546.374 50.1718 540.841L55.4783 529.541C57.9326 529.631 60.371 529.939 62.8174 530.133C73.1391 531.416 86.8125 535.671 101.329 542.115C102.438 542.608 103.736 542.108 104.229 540.999C104.721 539.889 104.224 538.603 103.112 538.099C88.1887 531.474 74.0528 527.094 63.3079 525.766C61.722 525.568 60.1116 525.462 58.5184 525.332C57.0412 525.212 55.5416 525.078 54.058 525.141C53.2202 525.176 52.4578 525.635 52.0962 526.405L46.194 538.973C43.0933 545.576 42.6965 552.785 45.0768 559.271C47.5349 565.97 52.7128 571.402 59.6542 574.577C63.3141 576.249 69.4399 579.047 74.3524 577.577C75.6371 577.192 76.8788 576.601 77.9331 576.081C81.9737 574.11 86.6218 574.075 90.6855 575.983C94.7561 577.894 97.6966 581.493 98.752 585.849C99.0438 587.07 99.3848 588.366 99.8974 589.572C101.904 594.291 107.964 597.216 111.585 598.963C111.685 599.011 111.784 599.058 111.884 599.105C118.678 602.296 126.051 602.759 132.682 600.406C139.193 598.095 144.486 593.187 147.586 586.586L153.488 574.018C153.836 573.276 153.743 572.402 153.246 571.751V571.751Z" fill="#0C7523"/>
<path d="M168.289 578.958C171.397 565.171 167.691 550.921 157.506 537.633C149.364 527.01 137.183 517.405 123.206 510.586C109.283 503.793 94.137 500.033 80.5654 500.002C79.3519 499.999 78.3658 500.981 78.363 502.194C78.3601 503.408 79.3419 504.394 80.5551 504.397C107.221 504.458 138.117 519.56 154.018 540.306C160.45 548.698 167.224 561.695 164.223 576.934L162.165 575.967C163.639 571.545 162.057 568.486 159.067 565.081C157.911 556.126 153.212 547.011 145.439 538.673C138.143 530.847 128.481 523.984 117.492 518.824C117.476 518.816 117.459 518.808 117.443 518.801C106.455 513.648 95.0087 510.605 84.342 510C72.9907 509.356 62.9992 511.569 55.3875 516.4C50.865 516.276 47.5046 517.015 45.0459 520.969L42.9825 520C49.4906 511.987 58.6792 506.995 70.3415 505.154C71.5403 504.965 72.3585 503.84 72.1693 502.641C71.98 501.442 70.855 500.624 69.6563 500.813C56.6264 502.87 46.0098 508.859 38.8322 518.168C36.8443 517.718 34.7362 518.689 33.8348 520.609L29.1646 530.554C28.124 532.77 29.0802 535.419 31.2961 536.46L36.7054 539C34.056 546.674 34.0557 554.766 36.7703 562.164C39.9817 570.916 46.8456 578.271 55.6368 582.4C55.7577 582.456 55.8794 582.513 56.0007 582.568C68.6028 588.331 74.3594 587.614 81.7953 583.976C83.4222 583.181 85.2888 583.165 86.9341 583.937L86.9728 583.956C88.6042 584.722 89.7842 586.168 90.2112 587.927C92.1609 595.973 95.2853 600.861 107.767 606.877C116.647 611.159 126.844 611.806 135.75 608.645C143.177 606.009 149.404 600.841 153.617 593.901L159.034 596.445C161.249 597.485 163.899 596.529 164.939 594.313L169.61 584.368C170.513 582.446 169.911 580.199 168.289 578.958ZM38.3765 534.93L33.164 532.482C33.1423 532.472 33.1322 532.444 33.1424 532.422L37.8126 522.477C37.8228 522.455 37.8509 522.445 37.8726 522.455L43.0851 524.903L38.3765 534.93ZM115.577 522.779L115.625 522.802C126.11 527.726 135.308 534.249 142.225 541.67C147.349 547.166 151.011 552.979 153.056 558.793C153.039 558.776 153.022 558.758 153.005 558.742C143.744 549.968 128.527 540.285 111.257 532.175C93.9869 524.065 76.8174 518.54 64.1517 517.017C64.1128 517.012 64.0735 517.008 64.0342 517.006C64.0314 517.006 64.0286 517.005 64.0258 517.005C77.6641 511.894 96.6195 513.889 115.577 522.779V522.779ZM151.203 589.193C147.52 596.591 141.684 601.876 134.281 604.504C126.473 607.275 117.509 606.702 109.676 602.919C97.7317 597.162 95.9679 593.024 94.4819 586.891C93.7388 583.83 91.684 581.313 88.8548 579.984C88.8436 579.979 88.8325 579.974 88.8216 579.969C85.9657 578.629 82.7067 578.639 79.8652 580.028C74.198 582.801 69.8871 584.086 57.8274 578.571C49.9185 574.958 43.75 568.428 40.8958 560.651C38.2967 553.567 38.5087 546.031 41.4889 538.75C41.4963 538.733 41.5056 538.717 41.5126 538.699C41.728 538.168 47.9966 524.782 47.9966 524.782L48.1626 524.428C50.0375 520.436 51.7896 520.435 59.7581 521.087C60.9323 521.183 62.261 521.292 63.685 521.387C89.3118 524.489 131.186 544.153 149.94 561.891C150.922 562.927 151.855 563.88 152.678 564.722C158.269 570.437 159.387 571.786 157.513 575.779C157.513 575.779 151.213 589.172 151.203 589.193ZM160.962 592.446C160.953 592.465 160.918 592.475 160.902 592.467L155.682 590.016L160.39 579.989L165.611 582.441C165.627 582.448 165.641 582.481 165.632 582.5L160.962 592.446Z" fill="#0C7523"/>
<path d="M243 688.472L250.19 690.628C252.083 691.196 254.085 690.117 254.652 688.224L255.234 686.285L257.171 686.866C259.064 687.433 261.066 686.355 261.634 684.462L263.791 677.268C264.359 675.374 263.281 673.372 261.388 672.804L259.451 672.223L260.035 670.276C260.603 668.383 259.524 666.381 257.631 665.813L250.441 663.657C248.549 663.089 246.547 664.168 245.979 666.061L245.395 668.008L243.45 667.425C241.556 666.857 239.555 667.936 238.987 669.829L236.83 677.023C236.262 678.917 237.34 680.919 239.233 681.486L241.178 682.07L240.596 684.009C240.029 685.902 241.107 687.905 243 688.472V688.472ZM241.442 677.418L243.056 672.038L246.263 673C247.462 673.359 248.725 672.679 249.085 671.48L250.048 668.27L255.422 669.881L254.459 673.092C254.1 674.291 254.78 675.554 255.979 675.913L259.178 676.873L257.565 682.253L254.365 681.293C253.167 680.934 251.904 681.614 251.544 682.813L250.584 686.015L245.209 684.404L246.17 681.201C246.529 680.002 245.849 678.739 244.65 678.38L241.442 677.418Z" fill="#0C7523"/>
<path d="M250.1 640.838L271.391 647.223C272.59 647.582 273.853 646.902 274.213 645.703C274.572 644.504 273.892 643.241 272.693 642.882L251.402 636.497C250.203 636.137 248.94 636.818 248.581 638.016C248.221 639.215 248.901 640.478 250.1 640.838Z" fill="#0C7523"/>
<path d="M252.956 631.314L274.248 637.699C275.446 638.058 276.709 637.378 277.069 636.179C277.428 634.981 276.748 633.718 275.549 633.358L254.258 626.973C253.059 626.614 251.796 627.294 251.437 628.493C251.077 629.691 251.758 630.955 252.956 631.314Z" fill="#0C7523"/>
<path d="M228.193 654.871L219.211 684.82C217.923 689.115 220.368 693.657 224.662 694.944L238.337 699.045C239.535 699.405 240.798 698.724 241.158 697.526C241.517 696.327 240.837 695.064 239.638 694.704L225.964 690.604C224.064 690.034 222.982 688.023 223.552 686.122L232.533 656.173C233.104 654.271 235.113 653.188 237.013 653.757L275.201 665.209C277.101 665.779 278.183 667.79 277.613 669.691L268.632 699.64C268.061 701.542 266.052 702.625 264.152 702.056L249.403 697.633C248.204 697.273 246.941 697.953 246.582 699.152C246.222 700.351 246.902 701.614 248.101 701.973L262.85 706.396C267.143 707.684 271.684 705.237 272.972 700.942L281.954 670.993C283.242 666.698 280.797 662.156 276.503 660.869L238.315 649.417C234.021 648.129 229.481 650.576 228.193 654.871V654.871Z" fill="#0C7523"/>
<path d="M319.125 639.055C320.592 634.163 318.282 626.065 315.79 618.19C315.541 617.404 315.315 616.688 315.125 616.063C315.124 616.062 315.124 616.061 315.124 616.06C314.951 615.494 314.492 613.992 312.982 613.539C311.471 613.086 310.262 614.088 309.804 614.467C309.298 614.888 308.709 615.365 308.063 615.889C304.384 618.872 300.718 621.949 297.982 624.953C295.921 623.252 293.571 621.916 291.052 621.018L292.7 615.52C293.659 612.324 291.835 608.944 288.636 607.984L281.567 605.864L285.82 591.683L309.335 598.734C313.815 600.078 315.198 597.71 316.025 594.951L316.835 592.252C318.161 587.83 315.643 583.154 311.223 581.829L270.1 569.497C265.681 568.171 261.006 570.69 259.68 575.112C258.355 579.53 260.873 584.201 265.293 585.527L267.509 586.191L263.256 600.373L256.187 598.253C252.988 597.294 249.605 599.113 248.647 602.309L246.999 607.804C235.139 604.882 222.905 611.778 219.357 623.61L209.416 656.759C209.057 657.957 209.737 659.22 210.935 659.58C212.134 659.939 213.397 659.259 213.757 658.06L223.697 624.912C226.64 615.1 237.012 609.509 246.818 612.45L288.646 624.994C291.046 625.713 293.28 626.923 295.196 628.529C294.569 629.525 294.091 630.505 293.804 631.461C291.534 639.031 295.717 644.893 301.337 647.225C301.263 647.525 301.183 647.825 301.094 648.123L277.557 726.609C277.277 727.545 276.25 728.098 275.316 727.818L201.366 705.642C200.416 705.357 199.875 704.351 200.16 703.399L210.753 668.077C211.112 666.878 210.432 665.615 209.233 665.255C208.035 664.896 206.771 665.576 206.412 666.775L195.819 702.097C194.816 705.442 196.72 708.98 200.065 709.983L274.014 732.159C277.358 733.162 280.895 731.256 281.898 727.911L305.435 649.424C305.548 649.049 305.648 648.67 305.741 648.29C311.275 648.731 317.052 645.965 319.125 639.055V639.055ZM266.595 581.186C264.569 580.579 263.414 578.438 264.02 576.414C264.629 574.386 266.772 573.23 268.799 573.838L309.922 586.17C311.948 586.777 313.102 588.922 312.494 590.95L311.684 593.649C311.548 594.104 311.446 594.393 311.372 594.578C311.209 594.549 310.972 594.494 310.637 594.394L266.595 581.186ZM281.479 590.381L277.226 604.562L267.597 601.675L271.85 587.493L281.479 590.381ZM286.72 619.685L251.348 609.077L252.987 603.611C253.228 602.808 254.079 602.352 254.885 602.594L287.334 612.325C288.14 612.567 288.6 613.416 288.359 614.219L286.72 619.685ZM304.032 643.384C299.889 642.142 296.462 638.376 298.145 632.764C299.332 628.805 306.868 622.693 310.917 619.409C311.054 619.298 311.188 619.19 311.319 619.083C311.368 619.238 311.418 619.396 311.469 619.557C313.043 624.531 315.972 633.789 314.784 637.753C313.101 643.365 308.171 644.625 304.032 643.384Z" fill="#0C7523"/>
<path d="M241.024 876.672C227.208 874.722 210.481 863.263 201.795 849.871C204.797 850.684 207.966 851.233 211.292 851.512L211.324 851.725C211.484 852.817 212.422 853.603 213.495 853.603C213.601 853.603 213.708 853.596 213.816 853.58C215.017 853.404 215.848 852.288 215.672 851.087L215.385 849.127C215.384 849.12 215.383 849.114 215.382 849.107L214.867 845.592C214.69 844.392 213.572 843.563 212.374 843.737C211.173 843.913 210.343 845.029 210.518 846.23L210.636 847.033C206.102 846.568 202.143 845.585 198.691 844.242C196.954 840.42 195.95 836.53 195.917 832.733C195.838 824.127 201.136 813.147 210.099 803.303C210.633 804.819 211.12 806.422 211.557 808.104L210.63 808.584C209.552 809.142 209.132 810.469 209.69 811.546C210.081 812.3 210.848 812.732 211.643 812.732C211.983 812.732 212.329 812.653 212.652 812.485L217.58 809.931C218.658 809.372 219.078 808.046 218.52 806.969C217.961 805.891 216.634 805.472 215.558 806.029L215.551 806.033C214.944 803.834 214.25 801.761 213.476 799.82C221.912 791.65 231.652 785.965 240.164 784.357C241.356 784.131 242.14 782.982 241.914 781.789C241.689 780.597 240.541 779.813 239.347 780.039C230.413 781.727 220.342 787.413 211.556 795.586C207.168 787.076 200.952 781.896 193.611 780.922C185.455 779.839 177.447 784.242 173.205 792.139C170.825 796.565 169.71 802.698 170.065 809.408C170.448 816.664 172.491 823.776 175.974 829.975C179.407 836.088 184.07 841.035 189.834 844.679C191.638 845.82 193.543 846.819 195.538 847.685C198.316 853.162 202.464 858.641 207.778 863.719C217.543 873.049 229.741 879.518 240.41 881.023C240.514 881.038 240.617 881.045 240.72 881.045C241.797 881.045 242.738 880.252 242.893 879.155C243.062 877.953 242.225 876.842 241.024 876.672ZM179.805 827.823C175.821 820.731 174.696 813.768 174.453 809.176C174.145 803.345 175.101 797.893 177.076 794.22C180.446 787.948 186.71 784.438 193.033 785.278C199.234 786.102 204.528 790.897 208.269 798.826C207.876 799.236 207.485 799.649 207.1 800.069C197.11 810.939 191.432 822.859 191.522 832.772C191.547 835.577 192.043 838.495 192.974 841.46C186.515 837.6 182.394 832.433 179.805 827.823V827.823Z" fill="#0C7523"/>
<path d="M254.86 843.788H234.672C233.458 843.788 232.474 844.772 232.474 845.985C232.474 847.199 233.458 848.183 234.672 848.183H254.86C256.074 848.183 257.058 847.199 257.058 845.985C257.058 844.772 256.074 843.788 254.86 843.788Z" fill="#0C7523"/>
<path d="M254.86 852.806H234.672C233.458 852.806 232.474 853.79 232.474 855.004C232.474 856.217 233.458 857.201 234.672 857.201H254.86C256.074 857.201 257.058 856.217 257.058 855.004C257.058 853.79 256.074 852.806 254.86 852.806Z" fill="#0C7523"/>
<path d="M283.207 828.568C283.051 827.364 281.945 826.518 280.745 826.673C255.397 829.971 232.129 829.973 209.61 826.678C208.409 826.503 207.294 827.333 207.118 828.533C206.942 829.734 207.773 830.85 208.974 831.026C220.441 832.704 232.093 833.543 244.099 833.543C256.094 833.543 268.442 832.706 281.312 831.031C282.515 830.874 283.364 829.771 283.207 828.568Z" fill="#0C7523"/>
<path d="M259.189 796.256H254.093C250.454 792.859 246.789 791.185 243.208 791.294C239.823 791.392 236.543 793.06 233.446 796.256H228.421C227.207 796.256 226.224 797.239 226.224 798.453C226.224 799.666 227.207 800.65 228.421 800.65H234.401C235.025 800.65 235.619 800.385 236.036 799.921C238.53 797.142 240.918 795.756 243.335 795.687C245.891 795.613 248.693 797.068 251.662 800.013C252.069 800.416 252.636 800.65 253.209 800.65H259.189C260.402 800.65 261.386 799.666 261.386 798.453C261.386 797.239 260.402 796.256 259.189 796.256V796.256Z" fill="#0C7523"/>
<path d="M316.795 792.14C312.552 784.244 304.542 779.839 296.39 780.922C289.084 781.891 282.891 787.022 278.504 795.457C269.73 787.397 259.675 781.765 250.765 780.057C249.573 779.828 248.422 780.609 248.193 781.801C247.965 782.993 248.746 784.144 249.938 784.373C258.43 786.001 268.154 791.625 276.578 799.671C275.78 801.656 275.065 803.778 274.441 806.034L274.434 806.031C273.358 805.473 272.031 805.893 271.472 806.97C270.914 808.047 271.334 809.374 272.412 809.932L277.34 812.487C277.663 812.654 278.008 812.734 278.349 812.734C279.144 812.734 279.911 812.301 280.301 811.547C280.86 810.47 280.439 809.144 279.362 808.585L278.435 808.105C278.891 806.352 279.402 804.687 279.963 803.114C288.88 812.768 294.239 823.578 294.313 832.101C294.348 835.91 293.346 840.017 291.427 844.197C287.945 845.564 283.946 846.565 279.357 847.034L279.474 846.228C279.648 845.027 278.815 843.912 277.614 843.738C276.413 843.565 275.299 844.396 275.124 845.597L274.327 851.092C274.153 852.293 274.986 853.408 276.187 853.582C276.294 853.597 276.4 853.605 276.505 853.605C277.579 853.605 278.518 852.817 278.677 851.723L278.707 851.513C282.069 851.231 285.27 850.673 288.3 849.846C286.122 853.208 283.392 856.55 280.163 859.757C271.369 868.489 260.305 874.741 250.564 876.481C249.369 876.694 248.574 877.836 248.787 879.03C248.977 880.094 249.904 880.841 250.948 880.841C251.076 880.841 251.206 880.83 251.337 880.807C261.923 878.915 273.856 872.212 283.259 862.875C288.157 858.011 292.008 852.806 294.641 847.609C296.571 846.761 298.416 845.786 300.166 844.68C305.93 841.036 310.593 836.089 314.026 829.976C317.509 823.776 319.552 816.664 319.935 809.408C320.29 802.698 319.175 796.565 316.795 792.14V792.14ZM315.547 809.176C315.305 813.768 314.179 820.73 310.195 827.823C307.633 832.385 303.568 837.493 297.223 841.339C298.225 838.162 298.735 835.041 298.708 832.06C298.622 822.233 292.858 810.478 282.894 799.808C282.534 799.422 282.17 799.042 281.803 798.665C285.543 790.833 290.808 786.095 296.967 785.278C303.289 784.438 309.554 787.949 312.924 794.22C314.899 797.893 315.855 803.344 315.547 809.176V809.176Z" fill="#0C7523"/>
<path d="M98.7713 769.313L73.1522 778.89C71.6944 779.435 70.1034 778.782 69.5987 777.432C69.094 776.082 69.8667 774.546 71.3245 774.001L96.9436 764.423C98.4014 763.878 99.9924 764.531 100.497 765.881C101.002 767.231 100.229 768.768 98.7713 769.313ZM94.8926 758.937L69.2735 768.514C67.8157 769.059 66.2247 768.406 65.72 767.056C65.2153 765.706 65.988 764.17 67.4458 763.625L93.0649 754.048C94.5227 753.503 96.1137 754.155 96.6184 755.506C97.1231 756.856 96.3504 758.392 94.8926 758.937Z" fill="#0C7523"/>
<path d="M82.8867 750.571L73.0697 754.241C70.6627 755.141 68.0262 754.059 67.1928 751.83L66.1655 749.082L63.1887 750.195C60.7817 751.094 58.1452 750.013 57.3117 747.784L53.9131 738.692C53.0798 736.463 54.3599 733.917 56.7673 733.017L59.7441 731.904L58.7134 729.147C57.8801 726.918 59.1602 724.372 61.5676 723.472L71.3845 719.802C73.7915 718.903 76.4281 719.984 77.2615 722.213L78.2922 724.971L81.2591 723.861C83.6661 722.962 86.3027 724.043 87.1361 726.272L90.5347 735.364C91.368 737.593 90.0879 740.139 87.6805 741.039L84.7136 742.148L85.7409 744.896C86.5742 747.125 85.2937 749.671 82.8867 750.571V750.571ZM72.1561 749.01L80.1453 746.023L78.5205 741.677C78.0158 740.327 78.7885 738.791 80.2463 738.246L84.9392 736.491L82.1731 729.092L77.4802 730.847C76.0225 731.391 74.4315 730.739 73.9268 729.389L72.2985 725.033L64.3093 728.02L65.9375 732.375C66.4422 733.725 65.6695 735.262 64.2117 735.807L59.509 737.565L62.275 744.964L66.9778 743.206C68.4355 742.661 70.0265 743.314 70.5312 744.664L72.1561 749.01Z" fill="#0C7523"/>
<path d="M66.8776 677.007L64.9036 671.726C67.4055 669.655 68.5 666.313 67.3713 663.293L56.861 635.178C55.4106 631.298 50.8409 629.408 46.6742 630.966L20.5009 640.75C16.3343 642.308 14.1247 646.732 15.5751 650.612L26.0853 678.727C27.2141 681.746 30.2329 683.551 33.4798 683.473L35.4757 688.812C21.4498 695.467 14.3152 711.099 19.4779 724.909L50.1591 806.982C52.4894 813.216 59.8313 816.252 66.5255 813.749L126.254 791.421C132.948 788.919 136.498 781.811 134.168 775.577L103.487 693.504C98.2263 679.434 82.0865 672.312 66.8776 677.007ZM20.8251 648.649C20.3824 647.465 21.0567 646.115 22.3283 645.64L48.5016 635.855C49.7732 635.38 51.1677 635.957 51.6103 637.141L52.6064 639.805L44.8334 642.711L29.6036 648.404L21.8208 651.314L20.8247 648.649L20.8251 648.649ZM44.0364 648.582L44.8254 650.692C45.2549 651.841 44.5754 653.201 43.3415 653.663L37.9046 655.695C36.6551 656.162 35.2828 655.592 34.8459 654.423L34.0569 652.312L44.0364 648.582ZM23.649 656.203L28.8066 654.275L29.5955 656.386C31.0403 660.25 35.5874 662.134 39.7323 660.584L45.1692 658.552C49.3195 657 51.5204 652.594 50.0757 648.729L49.2868 646.619L54.4345 644.695L62.121 665.256C62.5637 666.44 61.8894 667.79 60.6178 668.265L34.4445 678.05C33.1945 678.517 31.7709 677.928 31.3358 676.764L23.6493 656.203L23.649 656.203ZM59.8203 674.136L61.6053 678.911L40.6824 686.733L38.8973 681.958L59.8203 674.136ZM124.426 786.532L64.6976 808.86C60.8984 810.281 56.7317 808.558 55.4092 805.02L52.8864 798.271L83.4489 786.846C84.8987 786.304 85.665 784.77 85.1603 783.42C84.6556 782.07 83.071 781.415 81.6212 781.957L51.0587 793.382L25.6418 725.391L56.2044 713.966C57.6542 713.424 58.4204 711.89 57.9157 710.54C57.411 709.19 55.8265 708.535 54.3767 709.077L23.9664 720.445C21.2409 709.164 27.9519 697.064 39.8846 692.603L66.8815 682.511C78.819 678.048 91.8261 682.778 97.1698 693.08L66.4913 704.548C65.0416 705.09 64.2753 706.624 64.78 707.974C65.2847 709.324 66.8693 709.979 68.319 709.437L99.1497 697.912L124.567 765.903L93.736 777.428C92.2862 777.97 91.52 779.504 92.0247 780.854C92.5294 782.204 94.1139 782.86 95.5637 782.318L126.394 770.792L128.917 777.541C130.24 781.078 128.225 785.112 124.426 786.532V786.532Z" fill="#0C7523"/>
<path d="M169.356 897.362L168.526 896.532C169.865 891.183 169.262 885.082 166.75 878.788C164.297 872.642 160.185 866.597 154.859 861.305C149.579 856.061 143.577 852.03 137.503 849.647C131.289 847.21 125.271 846.653 119.998 848.003L118.637 846.643C117.779 845.785 116.388 845.786 115.53 846.643L107.318 854.856C95.2022 866.972 84.57 875.005 74.8159 879.414C69.1575 881.964 65.0897 884.701 62.0249 888.025C58.7018 891.089 55.964 895.157 53.4154 900.813C49.0054 910.57 40.9722 921.202 28.8567 933.318L20.6436 941.53C19.7855 942.388 19.7855 943.779 20.6433 944.637L22.0036 945.998C20.6536 951.271 21.2108 957.288 23.6477 963.502C26.0299 969.577 30.0614 975.578 35.3055 980.858C40.5972 986.185 46.6423 990.298 52.7879 992.75C56.9088 994.395 60.9474 995.223 64.746 995.223C66.7496 995.223 68.685 994.988 70.5318 994.526L71.3624 995.356C71.7913 995.785 72.3538 996 72.916 996C73.4782 996 74.0407 995.786 74.4696 995.356L82.601 987.225C98.2587 974.609 111.899 962.536 124.296 950.319C124.304 950.312 124.312 950.304 124.319 950.296C136.536 937.899 148.609 924.259 161.225 908.601L169.356 900.469C170.215 899.612 170.215 898.22 169.356 897.362V897.362ZM57.4206 902.62C59.7348 897.484 62.1635 893.855 65.0636 891.199C65.111 891.156 65.1567 891.11 65.2001 891.063C67.8556 888.163 71.4849 885.734 76.6233 883.419C86.443 878.981 97.0036 871.151 108.864 859.51L113.463 864.109C105.34 871.368 89.0434 885.357 79.4615 889.682C71.6393 893.213 67.2154 897.637 63.6825 905.461C59.3571 915.043 45.369 931.34 38.1095 939.463L33.5102 934.864C45.1514 923.003 52.981 912.442 57.4206 902.62V902.62ZM65.4503 966.804L59.4474 960.801L134.801 885.447L140.804 891.45L65.4503 966.804ZM143.911 894.557L149.41 900.056C139.877 911.382 123.37 929.085 113.232 939.231C103.085 949.37 85.3824 965.877 74.056 975.41L68.5575 969.911L143.911 894.557ZM56.3401 957.694L50.3372 951.691L125.691 876.336L131.694 882.339L56.3401 957.694ZM47.2297 948.583L41.2221 942.576C49.7492 933.053 63.2056 917.199 67.6877 907.269C70.7683 900.447 74.4494 896.766 81.2697 893.687C91.1991 889.205 107.053 875.748 116.576 867.222L122.583 873.229L47.2297 948.583ZM72.9163 990.695L51.0986 968.878C50.2405 968.02 48.8492 968.02 47.9914 968.878C47.1333 969.736 47.1333 971.127 47.9914 971.985L66.7326 990.726C58.0402 991.549 47.3574 986.755 38.4236 977.761C29.6123 968.891 24.9447 958.339 25.7908 949.787L40.7097 964.712C41.5675 965.57 42.9588 965.57 43.8169 964.712C44.6753 963.854 44.6756 962.463 43.8175 961.605L25.3045 943.084L30.41 937.978L78.0219 985.59L72.9163 990.695ZM121.201 947.201C109.293 958.934 96.2217 970.54 81.2856 982.639L77.1746 978.528C88.606 968.879 106.214 952.455 116.34 942.338C126.456 932.214 142.879 914.605 152.528 903.174L156.639 907.285C144.54 922.222 132.934 935.292 121.201 947.201ZM164.726 892.732L145.364 873.37C144.506 872.512 143.115 872.512 142.257 873.37C141.399 874.228 141.399 875.62 142.257 876.477L164.696 898.916L159.59 904.021L111.978 856.409L117.084 851.304L134.447 868.659C135.306 869.517 136.697 869.517 137.555 868.659C138.413 867.8 138.412 866.409 137.554 865.551L123.787 851.79C132.339 850.944 142.891 855.612 151.762 864.423C160.755 873.357 165.549 884.04 164.726 892.732V892.732Z" fill="#0C7523"/>
<path d="M200.148 1025.47L200.313 1025.55C201.737 1026.22 203.438 1025.61 204.113 1024.19C204.787 1022.76 204.179 1021.06 202.754 1020.39L202.59 1020.31C201.165 1019.63 199.464 1020.24 198.79 1021.67C198.115 1023.09 198.723 1024.79 200.148 1025.47Z" fill="#0C7523"/>
<path d="M201.626 1034.72L201.578 1034.7C200.153 1034.02 198.452 1034.63 197.778 1036.06C197.104 1037.48 197.712 1039.18 199.137 1039.86L199.184 1039.88C200.609 1040.55 202.31 1039.95 202.985 1038.52C203.659 1037.1 203.051 1035.4 201.626 1034.72Z" fill="#0C7523"/>
<path d="M219.457 1021.59L219.462 1021.58C220.136 1020.16 219.526 1018.46 218.101 1017.79C216.676 1017.11 214.973 1017.73 214.298 1019.15C213.624 1020.58 214.232 1022.28 215.657 1022.95C217.082 1023.63 218.783 1023.02 219.457 1021.59V1021.59Z" fill="#0C7523"/>
<path d="M160.89 1108.42L160.906 1108.43C162.331 1109.1 164.024 1108.49 164.698 1107.06C165.372 1105.64 164.756 1103.93 163.332 1103.26C161.907 1102.59 160.206 1103.19 159.532 1104.62C158.858 1106.04 159.465 1107.74 160.89 1108.42Z" fill="#0C7523"/>
<path d="M171.376 1098.51L171.399 1098.53C172.823 1099.2 174.513 1098.59 175.187 1097.16C175.861 1095.74 175.242 1094.03 173.817 1093.36C172.393 1092.68 170.691 1093.29 170.017 1094.71C169.343 1096.14 169.951 1097.84 171.376 1098.51V1098.51Z" fill="#0C7523"/>
<path d="M168.777 1122.01L168.789 1122.01C170.213 1122.69 171.908 1122.08 172.582 1120.65C173.257 1119.23 172.643 1117.52 171.218 1116.85C169.793 1116.17 168.092 1116.78 167.418 1118.21C166.744 1119.63 167.352 1121.33 168.777 1122.01Z" fill="#0C7523"/>
<path d="M285.431 1059.52C284.007 1058.84 282.305 1059.45 281.631 1060.87C280.957 1062.3 281.565 1064 282.99 1064.67L283 1064.68C284.424 1065.35 286.121 1064.74 286.795 1063.32C287.469 1061.89 286.856 1060.19 285.431 1059.52Z" fill="#0C7523"/>
<path d="M272.503 1074.58L272.54 1074.6C273.965 1075.27 275.666 1074.66 276.34 1073.24C277.014 1071.81 276.406 1070.11 274.982 1069.44L274.945 1069.42C273.52 1068.75 271.819 1069.35 271.145 1070.78C270.471 1072.2 271.079 1073.9 272.503 1074.58Z" fill="#0C7523"/>
<path d="M278.907 1049.72C279.582 1048.29 278.971 1046.6 277.547 1045.92C276.122 1045.25 274.418 1045.86 273.744 1047.29C273.07 1048.71 273.678 1050.41 275.103 1051.09C276.528 1051.76 278.229 1051.15 278.903 1049.73L278.907 1049.72Z" fill="#0C7523"/>
<path d="M243.731 1147.63L243.741 1147.63C245.166 1148.3 246.862 1147.69 247.536 1146.27C248.211 1144.84 247.597 1143.14 246.173 1142.47C244.748 1141.79 243.047 1142.4 242.373 1143.83C241.698 1145.25 242.307 1146.95 243.731 1147.63Z" fill="#0C7523"/>
<path d="M244.743 1133.24L244.784 1133.26C246.209 1133.93 247.91 1133.32 248.584 1131.9C249.258 1130.47 248.65 1128.77 247.226 1128.1L247.184 1128.08C245.759 1127.4 244.058 1128.01 243.384 1129.44C242.71 1130.86 243.318 1132.56 244.743 1133.24Z" fill="#0C7523"/>
<path d="M226.864 1146.34C226.19 1147.77 226.798 1149.47 228.222 1150.14L228.253 1150.16C229.678 1150.83 231.364 1150.21 232.038 1148.79C232.712 1147.37 232.089 1145.66 230.664 1144.98C229.239 1144.31 227.538 1144.92 226.864 1146.34Z" fill="#0C7523"/>
<path d="M327.112 984.474L207.129 927.689C202.831 925.655 197.679 927.497 195.645 931.795L117.221 1097.5C116.546 1098.93 117.154 1100.63 118.579 1101.3L249.003 1163.03C250.428 1163.7 252.129 1163.09 252.803 1161.67L289.376 1084.39C290.05 1082.97 289.442 1081.27 288.018 1080.59C286.593 1079.92 284.892 1080.53 284.218 1081.95L252.62 1148.71L248.162 1137.46C253.252 1134.04 255.471 1127.41 253.124 1121.47C252.846 1120.76 252.303 1120.2 251.604 1119.9C250.91 1119.59 250.124 1119.58 249.42 1119.86L229.875 1127.6C229.17 1127.88 228.606 1128.43 228.306 1129.12C228.005 1129.82 227.994 1130.61 228.274 1131.31C229.575 1134.58 232.029 1137.05 234.982 1138.45C237.393 1139.59 240.137 1140.01 242.858 1139.57L249.278 1155.78L248.865 1156.65L214.535 1140.4C215.633 1135.91 213.135 1130.72 207.413 1125.96C206.967 1125.59 206.734 1125.39 206.908 1124.67C208.956 1125.06 211.094 1124.04 212.026 1122.07L228.285 1087.72C229.12 1088.68 230.16 1089.49 231.38 1090.06C236.114 1092.3 241.787 1090.28 244.027 1085.54L253.878 1064.73L254.099 1064.26L260.088 1051.61C263.613 1044.16 260.426 1035.23 252.983 1031.71L248.726 1029.7C254.329 1027.61 259.219 1023.79 261.353 1019.28L263.835 1014.04C266.958 1007.44 267.499 1000.83 265.4 994.934C263.519 989.649 259.657 985.341 254.526 982.804C254.497 982.79 254.468 982.776 254.438 982.763C249.228 980.405 243.45 980.15 238.169 982.046C232.272 984.163 227.504 988.77 224.382 995.368L221.9 1000.61C219.766 1005.12 219.916 1011.32 221.857 1016.98L217.606 1014.97C210.158 1011.44 201.231 1014.64 197.706 1022.08L191.718 1034.74L181.646 1056.02C179.406 1060.75 181.434 1066.43 186.168 1068.67C187.389 1069.24 188.672 1069.54 189.943 1069.57L173.684 1103.93C172.751 1105.9 173.321 1108.19 174.923 1109.53C174.476 1110.12 174.172 1110.07 173.604 1109.96C166.293 1108.56 160.698 1109.92 157.927 1113.61L123.6 1097.36L124.013 1096.49L140.612 1091.18C141.878 1093.38 143.745 1095.17 146.054 1096.36C146.192 1096.43 146.332 1096.5 146.473 1096.57C149.543 1098.02 152.994 1098.26 156.243 1097.22C156.964 1096.99 157.564 1096.48 157.911 1095.81C158.258 1095.13 158.324 1094.35 158.093 1093.63L151.688 1073.61C151.457 1072.89 150.949 1072.29 150.276 1071.94C149.6 1071.59 148.819 1071.53 148.098 1071.76C144.698 1072.85 141.926 1075.2 140.294 1078.37C139.104 1080.68 138.626 1083.22 138.872 1085.75L127.355 1089.43L193.71 949.224L198.163 960.466C196.055 961.877 194.39 963.861 193.358 966.244C191.942 969.516 191.884 973.148 193.196 976.469C193.463 977.144 193.976 977.69 194.629 978C194.658 978.013 194.687 978.026 194.716 978.039C195.411 978.34 196.197 978.352 196.901 978.073L216.446 970.332C217.15 970.053 217.714 969.506 218.015 968.811C218.315 968.116 218.327 967.33 218.048 966.627C216.73 963.304 214.196 960.693 210.915 959.279C208.533 958.251 205.965 957.947 203.469 958.362L199.26 947.736L252.85 973.099C254.275 973.773 255.976 973.164 256.65 971.74C257.325 970.315 256.717 968.614 255.292 967.94L197.743 940.704L200.804 934.236C201.492 932.783 203.234 932.16 204.688 932.848L324.671 989.632C326.13 990.323 326.757 992.067 326.069 993.521L323.008 999.988L267.194 973.573C265.77 972.899 264.069 973.508 263.394 974.932C262.72 976.357 263.328 978.058 264.753 978.732L316.608 1003.27L305.715 1006.76C304.45 1004.56 302.582 1002.76 300.27 1001.57C297.098 999.94 293.483 999.634 290.08 1000.72C289.358 1000.95 288.757 1001.45 288.41 1002.13C288.062 1002.8 287.996 1003.58 288.227 1004.3L294.632 1024.33C294.863 1025.05 295.371 1025.65 296.044 1026C296.072 1026.01 296.101 1026.02 296.129 1026.04C296.783 1026.35 297.531 1026.4 298.222 1026.18C304.305 1024.22 308.026 1018.3 307.447 1012.2L318.975 1008.51L289.851 1070.05C289.177 1071.47 289.785 1073.17 291.209 1073.85C292.634 1074.52 294.335 1073.91 295.009 1072.49L331.227 995.962C333.262 991.664 331.415 986.51 327.112 984.474V984.474ZM243.513 1133.5C240.533 1134.68 237.24 1133.85 235.147 1131.65L248.352 1126.42C248.332 1129.45 246.501 1132.32 243.513 1133.5V1133.5ZM190.712 1110.86L179.279 1105.45L198.824 1064.15L198.868 1064.06L226.893 1077.32L226.849 1077.41L207.304 1118.71L195.87 1113.3L209.3 1084.92L210.084 1085.29C211.509 1085.97 213.21 1085.36 213.884 1083.94C214.558 1082.51 213.95 1080.81 212.525 1080.14L205.799 1076.95C204.374 1076.28 202.673 1076.89 201.999 1078.31C201.325 1079.74 201.933 1081.44 203.357 1082.11L204.141 1082.48L190.711 1110.86L190.712 1110.86ZM209.02 1137.79L188.807 1128.23L193.429 1118.46L201.664 1122.36C200.828 1124.83 200.653 1127.76 203.761 1130.35C204.725 1131.15 208.652 1134.6 209.02 1137.79V1137.79ZM238.869 1083.1C237.975 1084.99 235.711 1085.8 233.822 1084.9C231.928 1084.01 231.114 1081.74 232.008 1079.85L240.859 1061.15L247.72 1064.4L238.869 1083.1ZM252.041 987.942C258.252 991.035 262.931 998.435 260.054 1008.04C259.645 1007.39 259.409 1006.7 259.147 1005.95C258.619 1004.42 257.872 1002.26 255.342 1001.06C254.751 1000.78 254.062 1000.56 253.255 1000.4C252.282 1000.22 251.447 1000.06 250.723 999.93C248.593 999.539 247.523 999.344 246.806 999.004C246.089 998.665 245.26 997.962 243.608 996.563C243.045 996.086 242.398 995.538 241.638 994.905C238.308 992.128 235.482 993.173 233.611 993.864C232.861 994.14 232.183 994.391 231.42 994.488C237.023 986.173 245.711 985.1 252.041 987.942V987.942ZM227.059 1003.05L228.502 1000C231.736 1000.64 233.991 999.808 235.588 999.218C237.16 998.637 237.189 998.627 237.984 999.289C238.731 999.912 239.367 1000.45 239.919 1000.92C241.886 1002.59 242.971 1003.5 244.365 1004.16C245.759 1004.82 247.156 1005.08 249.694 1005.54C250.406 1005.67 251.224 1005.82 252.181 1006.01C253.196 1006.2 253.207 1006.23 253.754 1007.81C254.31 1009.42 255.099 1011.69 257.638 1013.79L256.195 1016.84C254.116 1021.24 246.877 1025.69 239.798 1025.7C238.02 1025.58 236.273 1025.51 234.631 1024.73C233.018 1023.97 231.818 1022.69 230.644 1021.38C226.133 1015.9 224.976 1007.46 227.059 1003.05V1003.05ZM238.687 1031.37L238.337 1032.11C236.581 1035.82 232.513 1037.59 229.269 1036.06C226.026 1034.52 224.816 1030.26 226.573 1026.54L226.924 1025.8C227.109 1026.01 227.297 1026.21 227.489 1026.41C229.048 1028 230.541 1029.11 232.189 1029.89C233.831 1030.67 235.635 1031.12 237.872 1031.32C238.142 1031.34 238.414 1031.36 238.687 1031.37ZM193.666 1061.71C192.772 1063.6 190.503 1064.4 188.609 1063.51C186.72 1062.61 185.911 1060.35 186.805 1058.46L195.656 1039.76L202.517 1043.01L193.666 1061.71ZM210.957 1031.84C209.532 1031.17 207.831 1031.78 207.157 1033.2L204.958 1037.85L198.097 1034.6L202.865 1024.52C205.044 1019.92 210.562 1017.95 215.165 1020.13L221.808 1023.27L221.414 1024.1C218.311 1030.66 220.739 1038.34 226.828 1041.22C232.916 1044.1 240.393 1041.11 243.495 1034.55L243.889 1033.72L250.542 1036.87C255.14 1039.05 257.108 1044.56 254.93 1049.16L250.162 1059.24L243.301 1055.99L245.499 1051.35C246.173 1049.92 245.565 1048.22 244.14 1047.55C242.715 1046.87 241.014 1047.48 240.34 1048.91L229.334 1072.16L201.31 1058.9L212.315 1035.64C212.989 1034.22 212.381 1032.52 210.957 1031.84V1031.84ZM172.528 1115.57C176.501 1116.33 178.649 1114.34 180.036 1112.12L188.271 1116.02L183.648 1125.78L163.441 1116.22C166.138 1114.48 171.296 1115.33 172.528 1115.57ZM147.289 1078.59L151.62 1092.13C150.604 1092.05 149.6 1091.77 148.67 1091.29C146.852 1090.35 145.508 1088.77 144.886 1086.82C144.261 1084.87 144.432 1082.8 145.367 1080.98C145.848 1080.05 146.502 1079.24 147.289 1078.59ZM202.811 964.436C204.705 963.682 206.781 963.712 208.655 964.52C208.739 964.556 208.822 964.593 208.904 964.633C209.771 965.043 210.539 965.601 211.182 966.279L197.964 971.514C197.968 970.493 198.179 969.475 198.597 968.511C199.408 966.636 200.902 965.19 202.811 964.436V964.436ZM299.03 1019.34L294.701 1005.81C295.721 1005.88 296.726 1006.16 297.658 1006.64C299.473 1007.58 300.814 1009.16 301.435 1011.12C302.415 1014.17 301.362 1017.4 299.03 1019.34Z" fill="#0C7523"/>
<path d="M138.758 1215.82C137.39 1215.99 136.417 1217.24 136.588 1218.61C138.277 1232.12 130.522 1244.86 117.729 1249.59C102.631 1255.16 85.8116 1247.41 80.2366 1232.31C74.6634 1217.22 82.413 1200.4 97.5115 1194.83C111.224 1189.77 126.676 1195.7 133.453 1208.62C134.093 1209.84 135.607 1210.31 136.826 1209.67C138.048 1209.03 138.519 1207.52 137.879 1206.3C129.94 1191.16 111.841 1184.21 95.781 1190.14C78.0976 1196.67 69.0219 1216.37 75.5494 1234.04C82.0787 1251.73 101.777 1260.8 119.46 1254.27C126.738 1251.59 132.939 1246.45 136.923 1239.8C140.845 1233.26 142.488 1225.51 141.547 1217.99C141.376 1216.62 140.127 1215.65 138.758 1215.82V1215.82Z" fill="#0C7523"/>
<path d="M99.23 1199.48C86.6976 1204.11 80.2649 1218.07 84.8906 1230.59C89.5181 1243.13 103.479 1249.56 116.011 1244.93C128.539 1240.31 134.966 1226.35 130.339 1213.81C125.713 1201.29 111.758 1194.86 99.23 1199.48ZM111.878 1240.95C103.413 1242.88 94.6358 1238.84 90.6008 1231.15L106.14 1225.41L111.878 1240.95ZM104.409 1220.72L88.8702 1226.46C86.9436 1218 90.9885 1209.23 98.6749 1205.19L104.409 1220.72ZM116.566 1239.22L110.828 1223.68L126.359 1217.95C128.288 1226.41 124.248 1235.19 116.566 1239.22ZM109.097 1218.99L103.363 1203.46C111.822 1201.54 120.595 1205.58 124.628 1213.26L109.097 1218.99Z" fill="#0C7523"/>
<path d="M175.119 1258.46C173.666 1261.6 173.457 1265.1 174.546 1268.06C175.42 1270.43 177.084 1272.28 179.23 1273.27C181.443 1274.29 183.907 1274.27 186.201 1273.43C189.059 1272.37 191.65 1270.02 193.152 1266.76C195.855 1260.9 194.012 1254.25 189.04 1251.95C184.071 1249.67 177.826 1252.58 175.119 1258.46V1258.46ZM188.614 1264.67C187.086 1267.99 183.746 1269.85 181.321 1268.73C180.126 1268.18 179.527 1267.12 179.235 1266.33C178.601 1264.61 178.755 1262.5 179.657 1260.55C180.579 1258.55 182.161 1257.08 183.803 1256.47C184.882 1256.07 185.986 1256.05 186.946 1256.49C189.375 1257.61 190.139 1261.36 188.614 1264.67V1264.67Z" fill="#0C7523"/>
<path d="M194.458 1240.2L183.25 1235.03C180.657 1233.84 177.888 1233.36 175.107 1233.51C175.885 1226.26 175.204 1219.75 173.07 1214.11C171.986 1211.26 170.417 1208.31 168.365 1205.31C175.291 1193.79 177.058 1182.18 173.291 1171.98C170.079 1163.28 163.018 1156.3 152.879 1151.78C138.368 1145.33 137.943 1140.53 137.6 1136.68C137.201 1132.15 136.184 1128.51 127.246 1126.36C125.902 1126.04 124.556 1126.87 124.234 1128.21C123.91 1129.55 124.738 1130.9 126.079 1131.23C129.064 1131.94 130.986 1132.81 131.787 1133.81C132.371 1134.53 132.476 1135.44 132.624 1137.12C133.164 1143.22 134.963 1149.29 150.847 1156.35C159.728 1160.3 165.868 1166.3 168.604 1173.71C171.638 1181.93 170.381 1191.37 165.111 1200.96C164.022 1199.61 162.842 1198.26 161.574 1196.91C152.106 1186.75 138.388 1177.07 124.873 1171.02C109.73 1164.24 96.1458 1162.46 86.5828 1165.99L86.389 1166.06C73.4516 1170.96 64.7198 1186.5 60.6669 1195.33C60.0893 1196.58 60.6405 1198.06 61.8943 1198.64C63.147 1199.22 64.6315 1198.67 65.2091 1197.41C68.9398 1189.28 76.8894 1175 88.1577 1170.73C96.4773 1167.57 108.8 1169.3 122.829 1175.58C135.767 1181.37 148.884 1190.62 157.921 1200.31C159.54 1202.05 161.011 1203.78 162.323 1205.49C163.456 1206.97 164.471 1208.43 165.359 1209.86C166.645 1211.94 167.668 1213.96 168.396 1215.88C170.364 1221.08 170.895 1227.48 169.957 1234.48C169.168 1234.74 168.385 1235.04 167.614 1235.39L164.996 1234.18C161.309 1232.48 157.066 1232.65 153.052 1234.64C149.218 1236.55 146.034 1239.93 144.085 1244.16C142.133 1248.39 141.632 1253.01 142.675 1257.16C143.767 1261.51 146.402 1264.84 150.091 1266.54L152.709 1267.75C153.027 1268.86 153.426 1269.92 153.897 1270.94C147.334 1279.3 139.735 1285.41 132.376 1288.2L132.139 1288.29C124.847 1290.98 115.257 1291.4 104.958 1289.5C104.643 1288.27 104.215 1287.05 103.672 1285.86L104.879 1283.24C108.292 1275.81 103.812 1266.43 94.8958 1262.33C85.9814 1258.21 75.9414 1260.9 72.5119 1268.33L71.3052 1270.95C70.1916 1271.27 69.1184 1271.66 68.0957 1272.14C63.0626 1267.63 59.421 1262.65 57.5267 1257.65C56.7163 1255.51 56.1017 1253.07 55.6921 1250.34C55.4377 1248.68 55.261 1246.92 55.1613 1245.05C55.158 1245.01 55.159 1244.97 55.1557 1244.94C54.5991 1234.12 56.7286 1220.67 60.9991 1208.03C61.4432 1206.72 60.7392 1205.3 59.4328 1204.86C58.1253 1204.42 56.7079 1205.12 56.2649 1206.43C52.0286 1218.96 49.8122 1232.32 50.0971 1243.41C39.8643 1239.55 32.7807 1233.2 29.7471 1224.98C27.0111 1217.57 27.7783 1209.02 31.9607 1200.25C39.4444 1184.55 36.8733 1178.77 33.3199 1173.78C32.3442 1172.41 31.833 1171.65 31.8022 1170.72C31.7666 1169.44 32.6606 1167.54 34.4637 1165.05C35.2723 1163.93 35.0264 1162.37 33.9094 1161.56C32.7937 1160.75 31.23 1161 30.4203 1162.11C25.0199 1169.55 26.6113 1172.98 29.251 1176.68C31.4946 1179.83 34.2877 1183.75 27.4476 1198.09C22.6741 1208.11 21.8467 1218.01 25.0593 1226.71C28.8256 1236.91 37.7098 1244.59 50.4602 1248.84C50.8943 1252.82 51.6991 1256.37 52.8536 1259.42C54.9286 1264.89 58.5804 1270.09 63.7265 1274.92C61.8227 1276.53 60.2655 1278.51 59.191 1280.84L53.6034 1292.97C53.5977 1292.98 53.5924 1293 53.5869 1293.01C53.3427 1293.56 53.1824 1294.1 53.0912 1294.64C50.4241 1304.34 56.6033 1315.64 67.9327 1320.85C74.8879 1324.06 82.3246 1324.3 88.3361 1322.08C93.0002 1320.36 96.8063 1317.15 98.8611 1312.7C98.8615 1312.7 98.8621 1312.7 98.8625 1312.7L104.024 1301.49C105.027 1299.31 105.527 1297.01 105.577 1294.68C116.184 1296.43 126.121 1295.84 133.876 1292.98L134.148 1292.88C141.929 1289.92 149.86 1283.77 156.732 1275.39C158.333 1277.27 160.297 1278.8 162.6 1279.87L173.802 1285.02C173.804 1285.02 173.805 1285.02 173.807 1285.02C173.809 1285.02 173.811 1285.02 173.813 1285.03C178.159 1287.03 183.079 1287.13 187.888 1285.35C188.644 1285.07 189.398 1284.75 190.147 1284.38C195.47 1281.73 199.895 1277.02 202.607 1271.13C208.305 1258.78 204.65 1244.9 194.458 1240.2V1240.2ZM94.3227 1310.61C90.7732 1318.3 79.8745 1320.86 70.0237 1316.31C60.1717 1311.78 55.0334 1301.83 58.5651 1294.14L58.5704 1294.13C60.0576 1290.91 62.8344 1288.6 66.2844 1287.32C71.0673 1285.56 77.144 1285.8 82.866 1288.43C92.718 1292.97 97.857 1302.92 94.3227 1310.61ZM99.4846 1299.4L99.4485 1299.48C97.407 1293.13 92.2488 1287.26 84.9573 1283.9C77.6654 1280.54 69.8455 1280.44 63.6937 1283.01L63.7293 1282.93C67.2778 1275.24 78.1779 1272.68 88.0295 1277.23C97.8834 1281.76 103.022 1291.71 99.4846 1299.4V1299.4ZM90.1204 1272.69C85.8661 1270.73 81.4311 1269.88 77.252 1270.02C79.7175 1265.41 86.5672 1263.99 92.805 1266.87C99.0437 1269.73 102.41 1275.87 100.513 1280.73C97.9049 1277.47 94.3758 1274.65 90.1204 1272.69V1272.69ZM147.521 1255.94C146.755 1252.89 147.146 1249.45 148.623 1246.25C150.097 1243.05 152.461 1240.52 155.278 1239.12C157.754 1237.88 160.297 1237.69 162.492 1238.54C159.224 1241.15 156.407 1244.68 154.449 1248.94C152.489 1253.19 151.638 1257.62 151.78 1261.8C149.699 1260.69 148.195 1258.62 147.521 1255.94ZM164.691 1275.33C157.008 1271.78 154.449 1260.88 158.988 1251.03C161.958 1244.57 167.251 1240.14 172.712 1238.85C172.741 1238.84 172.769 1238.83 172.798 1238.83C175.645 1238.17 178.534 1238.37 181.161 1239.57L181.2 1239.59C180.168 1239.93 179.139 1240.35 178.12 1240.85C172.796 1243.5 168.369 1248.21 165.654 1254.1C162.294 1261.39 162.194 1269.21 164.771 1275.37L164.691 1275.33ZM198.068 1269.04C195.831 1273.9 192.227 1277.76 187.922 1279.9C183.798 1281.95 179.532 1282.16 175.904 1280.49C168.216 1276.95 165.653 1266.05 170.193 1256.19C172.433 1251.33 176.039 1247.47 180.347 1245.33C180.928 1245.04 181.512 1244.78 182.097 1244.57C185.659 1243.25 189.245 1243.3 192.358 1244.73L192.367 1244.74C192.368 1244.74 192.368 1244.74 192.369 1244.74C200.055 1248.29 202.612 1259.18 198.068 1269.04V1269.04Z" fill="#0C7523"/>
<path d="M65.7852 1297.47C63.5018 1302.45 66.4224 1308.69 72.2902 1311.38C75.5468 1312.89 79.0426 1312.99 81.9023 1311.94C84.195 1311.09 86.0792 1309.5 87.1024 1307.29C87.1037 1307.28 87.1049 1307.28 87.1058 1307.28C89.3897 1302.3 86.4692 1296.06 80.6007 1293.36C74.7338 1290.65 68.089 1292.49 65.7852 1297.47ZM82.5649 1305.19C81.4388 1307.62 77.6944 1308.38 74.3813 1306.85C71.0676 1305.32 69.2113 1301.98 70.3238 1299.56C70.77 1298.59 71.6294 1297.89 72.711 1297.49C74.354 1296.89 76.5097 1296.98 78.5094 1297.9C81.8215 1299.42 83.678 1302.76 82.5649 1305.19Z" fill="#0C7523"/>
<path d="M388.583 1361.87L447.257 1313.82C452.535 1309.51 452.161 1303.9 449.58 1300.52C446.983 1297.12 441.806 1295.5 436.935 1298.96L422.149 1309.51C421.974 1309.63 421.768 1309.4 421.913 1309.24L444.64 1284.42C449.794 1278.78 448.751 1273.05 445.6 1270.11C442.348 1267.07 436.249 1266.61 431.35 1271.75L405.427 1298.97C405.243 1299.16 405.101 1299 405.218 1298.84L431.468 1263.6C435.396 1258.32 434.048 1252.86 430.684 1250.2C427.351 1247.56 421.762 1247.52 417.527 1252.55L389.177 1286.25C389.081 1286.37 388.903 1286.24 388.977 1286.11L406.267 1255.78C410.52 1248.32 408.546 1242.59 404.702 1240.23C401.09 1238.02 395.382 1238.7 392.087 1243.7L360.793 1291.07C360.792 1291.07 360.792 1291.07 360.791 1291.07L359.702 1285.7L359.702 1285.7C361.387 1282.51 361.454 1279.28 360.319 1276.61C358.407 1272.11 352.705 1269.05 345.504 1271.89L340.822 1273.74C340.415 1273.9 340.016 1273.49 340.191 1273.09L362.355 1222.11C364.745 1216.62 362.211 1211.46 358.379 1209.65C354.303 1207.71 348.427 1209.18 344.495 1216.82L328.747 1247.38C328.651 1247.57 328.367 1247.45 328.428 1247.25L341.053 1205.61C342.966 1199.33 339.877 1194.66 335.858 1193.31C331.789 1191.94 326.477 1193.79 324.198 1199.96L308.988 1241.15C308.92 1241.33 308.69 1241.34 308.75 1241.08L317.427 1204.5C319.065 1197.6 315.357 1192.73 311.038 1191.67C306.851 1190.63 301.475 1192.88 299.565 1200.28L291.193 1232.72C291.135 1232.94 290.801 1232.9 290.811 1232.66L291.574 1214.66C291.823 1208.69 287.634 1205.24 283.366 1204.91C279.126 1204.6 274.227 1207.34 273.487 1214.12L265.227 1289.51L262.042 1297.84C258.019 1297.86 254.227 1300.32 252.706 1304.3C250.728 1309.47 253.329 1315.29 258.505 1317.27L276.888 1324.3C278.4 1324.87 280.093 1324.12 280.67 1322.6C281.248 1321.09 280.491 1319.4 278.98 1318.82L260.596 1311.8C258.438 1310.97 257.354 1308.55 258.178 1306.39C259.003 1304.23 261.43 1303.14 263.588 1303.97L312.098 1322.51C314.257 1323.33 315.342 1325.76 314.517 1327.92C313.692 1330.08 311.265 1331.16 309.107 1330.34L291.502 1323.61C289.99 1323.03 288.297 1323.79 287.72 1325.3C287.142 1326.81 287.899 1328.5 289.41 1329.08L307.015 1335.81C312.191 1337.79 318.011 1335.18 319.989 1330.01C321.363 1326.41 320.525 1322.51 318.15 1319.79C323.436 1311.88 332.061 1305.08 339.004 1300.51L339.006 1300.51C339.451 1309.7 338.79 1323.34 334.471 1333.69C333.229 1333.4 331.931 1333.35 330.631 1333.56C327.974 1333.98 325.645 1335.4 324.071 1337.57C320.817 1342.05 321.814 1348.35 326.291 1351.6L340.647 1362.05C341.954 1363 343.787 1362.71 344.739 1361.4C345.691 1360.09 345.401 1358.26 344.093 1357.31L329.736 1346.86C327.868 1345.51 327.455 1342.88 328.813 1341.01C329.464 1340.11 330.434 1339.52 331.543 1339.34C332.54 1339.19 333.533 1339.39 334.38 1339.91C334.474 1339.97 334.573 1340.03 334.664 1340.09L347.386 1349.34L376.78 1370.71C378.546 1372.1 378.919 1374.65 377.593 1376.48C376.942 1377.38 375.971 1377.97 374.86 1378.15C373.749 1378.32 372.644 1378.06 371.748 1377.41L354.318 1364.74C353.011 1363.79 351.178 1364.08 350.226 1365.38C349.275 1366.69 349.565 1368.52 350.873 1369.48L368.304 1382.15C369.027 1382.67 369.805 1383.09 370.619 1383.4C372.241 1384.02 374.009 1384.21 375.778 1383.93C378.434 1383.51 380.763 1382.09 382.334 1379.92C384.638 1376.74 384.805 1372.65 383.111 1369.38L388.583 1361.87ZM313.197 1316.66L267.758 1299.29L270.833 1291.24C270.923 1291.01 270.982 1290.77 271.009 1290.52L279.311 1214.75C279.652 1211.63 281.401 1210.64 282.925 1210.76C284.281 1210.86 285.826 1211.88 285.72 1214.42L284.745 1237.43C284.461 1243.98 287.951 1245.01 289.027 1245.17C291.357 1245.52 294.351 1243.93 295.771 1238.42L305.237 1201.74C306.155 1198.19 308.104 1196.97 309.628 1197.35C311.26 1197.76 312.502 1199.88 311.726 1203.15L303.049 1239.74C302.062 1243.92 304.217 1246.58 306.787 1247.35C309.894 1248.28 313.243 1246.54 314.412 1243.37L329.694 1201.99C330.73 1199.18 332.598 1198.4 333.99 1198.87C335.238 1199.28 336.376 1200.86 335.448 1203.91L321.744 1249.11C320.65 1252.71 322.636 1255.48 325.186 1256.37C328.037 1257.36 331.094 1256.06 332.231 1253.41L349.703 1219.5C351.842 1215.34 354.333 1214.21 355.867 1214.94C357.161 1215.55 357.993 1217.45 356.983 1219.77L331.548 1278.28C331.201 1279.07 331.175 1279.99 331.558 1280.77C332.266 1282.21 333.896 1282.78 335.282 1282.23L347.657 1277.34C351.543 1275.81 354.151 1277.07 354.928 1278.9C356.078 1281.6 353.933 1286.06 346.502 1289.45C346.272 1289.56 324.048 1300.29 313.197 1316.66V1316.66ZM384.581 1357.57C384.387 1357.73 384.215 1357.91 384.068 1358.11L378.999 1365.07L354.985 1347.62L339.659 1336.48C339.659 1336.47 339.658 1336.47 339.659 1336.47C345.937 1321.99 345.138 1303.31 344.646 1297.05C344.647 1297.04 344.648 1297.04 344.65 1297.04C346.513 1295.97 348.013 1295.2 348.941 1294.78C351.278 1293.71 353.233 1292.52 354.849 1291.26L354.853 1291.27L356.459 1299.18C356.695 1300.34 357.609 1301.25 358.772 1301.47C359.936 1301.7 361.12 1301.2 361.774 1300.21L396.975 1246.92C398.366 1244.82 400.418 1244.48 401.636 1245.23C403.074 1246.11 403.49 1248.82 401.177 1252.88L382.289 1286.02C380.689 1288.41 381.263 1291.67 383.639 1293.53C385.76 1295.18 389.179 1295.34 391.613 1292.46L422.009 1256.32C424.066 1253.88 426.01 1253.97 427.046 1254.79C428.197 1255.7 428.557 1257.7 426.769 1260.1L400.416 1295.48C398.4 1298.18 398.763 1301.94 401.243 1304.03C403.23 1305.71 406.715 1306.11 409.667 1303.01L435.59 1275.79C437.912 1273.35 440.373 1273.24 441.601 1274.39C442.748 1275.46 442.796 1277.76 440.318 1280.47L414.734 1308.4C410.898 1312.6 411.197 1315.97 412.756 1317.74C413.476 1318.55 416.242 1320.91 421.582 1317.1L440.334 1303.74C442.401 1302.26 444.099 1303 444.924 1304.08C445.852 1305.3 445.977 1307.3 443.546 1309.29L384.581 1357.57Z" fill="#0C7523"/>
<path d="M232.532 1353.86L223.369 1340.15C222.605 1339.01 221.059 1338.7 219.915 1339.46C218.772 1340.23 218.464 1341.78 219.228 1342.92L228.391 1356.63C228.472 1356.75 228.469 1356.88 228.452 1356.96C228.436 1357.04 228.393 1357.15 228.27 1357.23L220.426 1362.47C220.304 1362.55 220.181 1362.55 220.099 1362.53C220.018 1362.52 219.903 1362.47 219.822 1362.35L213.844 1353.4L213.844 1353.4L197.899 1329.51C197.768 1329.32 197.823 1329.04 198.021 1328.91L205.854 1323.67C205.976 1323.59 206.101 1323.59 206.184 1323.61L206.185 1323.61C206.266 1323.63 206.378 1323.67 206.458 1323.79L212.891 1333.43C213.654 1334.57 215.201 1334.88 216.344 1334.11C217.488 1333.35 217.797 1331.8 217.033 1330.66L210.606 1321.03C209.811 1319.83 208.59 1319.01 207.168 1318.73C207.164 1318.73 207.161 1318.73 207.157 1318.72C205.735 1318.44 204.29 1318.73 203.087 1319.53L195.253 1324.77C192.77 1326.43 192.098 1329.8 193.756 1332.28L197.365 1337.68L180.272 1349.1L172.788 1337.89C171.807 1336.41 170.308 1335.4 168.565 1335.05C168.561 1335.05 168.558 1335.05 168.555 1335.05C166.811 1334.7 165.036 1335.06 163.558 1336.04L157.791 1339.89C154.744 1341.93 153.92 1346.06 155.954 1349.11L156.339 1349.69L136.653 1362.83C136.633 1362.84 136.613 1362.85 136.594 1362.86L123.785 1371.41C123.776 1371.42 123.768 1371.43 123.759 1371.43L112.624 1378.87C111.48 1379.63 111.171 1381.17 111.935 1382.32C112.698 1383.46 114.245 1383.77 115.388 1383.01L124.48 1376.94L146.882 1410.51L137.423 1416.82L134.225 1412.03C133.461 1410.88 131.915 1410.58 130.771 1411.34C129.628 1412.1 129.319 1413.65 130.083 1414.79L133.281 1419.59L124.317 1425.57L121.119 1420.78C120.355 1419.64 118.809 1419.33 117.665 1420.09C116.522 1420.85 116.213 1422.4 116.977 1423.54L120.175 1428.33L116.863 1430.55L98.9542 1427.93L90.0193 1414.53L94.4567 1396.98L105.898 1389.35C107.042 1388.58 107.35 1387.04 106.586 1385.89C105.823 1384.75 104.276 1384.44 103.133 1385.2L90.8948 1393.37C90.382 1393.72 90.0146 1394.24 89.8633 1394.83L85.1545 1413.46L76.6025 1419.17C71.9735 1422.26 70.275 1428.11 72.2264 1433.09L41.6938 1453.49C40.5499 1454.25 40.2421 1455.8 41.0062 1456.94C41.3879 1457.51 41.9652 1457.87 42.5901 1458C43.215 1458.12 43.8881 1458.01 44.4599 1457.63L74.9886 1437.24C76.5742 1438.77 78.5693 1439.82 80.792 1440.26C83.8513 1440.87 86.9563 1440.26 89.5313 1438.53L98.0825 1432.83L117.088 1435.61C117.698 1435.7 118.319 1435.56 118.831 1435.22L151.662 1413.3C151.682 1413.29 151.703 1413.28 151.722 1413.27L157.379 1409.49L184.277 1391.53L184.654 1392.1C185.638 1393.57 187.141 1394.57 188.887 1394.92C190.634 1395.27 192.407 1394.92 193.879 1393.93L199.646 1390.08C201.119 1389.1 202.122 1387.6 202.469 1385.86C202.817 1384.11 202.467 1382.34 201.483 1380.87L193.991 1369.65L211.085 1358.23L215.68 1365.12C216.482 1366.32 217.706 1367.14 219.126 1367.42C220.546 1367.7 221.99 1367.42 223.191 1366.61L231.027 1361.38C232.228 1360.59 233.048 1359.37 233.334 1357.94C233.622 1356.52 233.337 1355.07 232.532 1353.86ZM86.7644 1434.39C85.2927 1435.38 83.5176 1435.73 81.7654 1435.38C80.0132 1435.03 78.508 1434.03 77.5264 1432.55C77.5259 1432.55 77.5253 1432.55 77.5246 1432.55C75.4844 1429.49 76.3107 1425.35 79.3666 1423.31L86.6436 1418.45L94.0425 1429.54L86.7644 1434.39ZM159.104 1353.83L163.446 1360.33L145.773 1372.12L141.433 1365.62L159.104 1353.83ZM166.212 1364.47L174.401 1376.74L156.731 1388.54L152.635 1382.4L148.538 1376.27L166.212 1364.47ZM154.615 1405.34L151.025 1407.74L128.622 1374.17L137.29 1368.39L159.696 1401.95L154.615 1405.34ZM163.84 1399.19L159.496 1392.68L177.166 1380.88L181.512 1387.39L163.84 1399.19ZM197.341 1383.63C197.586 1384 197.672 1384.44 197.585 1384.88C197.497 1385.32 197.247 1385.7 196.881 1385.94L191.113 1389.79C190.747 1390.04 190.303 1390.12 189.861 1390.04C189.419 1389.95 189.041 1389.7 188.797 1389.33L160.097 1346.34C159.587 1345.58 159.794 1344.54 160.557 1344.04L166.324 1340.18C166.695 1339.94 167.142 1339.85 167.582 1339.94L167.584 1339.94C168.02 1340.02 168.394 1340.27 168.641 1340.65L197.341 1383.63ZM191.226 1365.51L183.037 1353.24L200.13 1341.83L208.319 1354.09L191.226 1365.51Z" fill="#0C7523"/>
<path d="M396.564 1431.13C395.319 1430.55 393.849 1431.09 393.272 1432.34C392.695 1433.58 393.242 1435.06 394.487 1435.64C395.109 1435.93 395.789 1435.94 396.386 1435.72C396.983 1435.5 397.496 1435.05 397.784 1434.43C398.361 1433.19 397.82 1431.71 396.576 1431.13L396.564 1431.13Z" fill="#0C7523"/>
<path d="M397.364 1400.85L397.355 1400.85C396.067 1401.32 395.41 1402.75 395.882 1404.04C396.354 1405.32 397.785 1405.98 399.073 1405.51C400.361 1405.04 401.022 1403.61 400.55 1402.32C400.078 1401.04 398.652 1400.38 397.364 1400.85Z" fill="#0C7523"/>
<path d="M410.269 1398.52C411.557 1398.05 412.218 1396.62 411.746 1395.33C411.274 1394.04 409.848 1393.38 408.56 1393.85L408.551 1393.86C407.264 1394.33 406.607 1395.75 407.079 1397.04C407.551 1398.33 408.982 1398.99 410.269 1398.52Z" fill="#0C7523"/>
<path d="M386.203 1407.83L386.168 1407.84C384.88 1408.31 384.219 1409.74 384.691 1411.03C385.163 1412.31 386.589 1412.98 387.877 1412.5L387.913 1412.49C389.2 1412.02 389.862 1410.59 389.39 1409.3C388.918 1408.02 387.491 1407.36 386.203 1407.83Z" fill="#0C7523"/>
<path d="M385.924 1426.37C387.211 1425.89 387.873 1424.47 387.401 1423.18L387.397 1423.17C386.925 1421.88 385.5 1421.23 384.213 1421.7C382.925 1422.17 382.265 1423.6 382.737 1424.89C383.209 1426.18 384.636 1426.84 385.924 1426.37Z" fill="#0C7523"/>
<path d="M407.727 1429.15C406.44 1429.62 405.778 1431.05 406.25 1432.34L406.254 1432.34C406.726 1433.63 408.151 1434.29 409.438 1433.82C410.726 1433.34 411.386 1431.91 410.914 1430.63C410.442 1429.34 409.015 1428.68 407.727 1429.15V1429.15Z" fill="#0C7523"/>
<path d="M420.799 1427.25L420.791 1427.25C419.503 1427.72 418.846 1429.15 419.318 1430.43C419.79 1431.72 421.221 1432.38 422.509 1431.91C423.797 1431.44 424.458 1430.01 423.986 1428.72C423.514 1427.44 422.087 1426.77 420.799 1427.25Z" fill="#0C7523"/>
<path d="M401.403 1418.03C400.931 1416.74 399.506 1416.08 398.218 1416.55C396.93 1417.03 396.271 1418.46 396.743 1419.75C397.215 1421.03 398.641 1421.69 399.929 1421.22C401.217 1420.75 401.878 1419.32 401.406 1418.04L401.403 1418.03Z" fill="#0C7523"/>
<path d="M415.416 1412.89C414.944 1411.6 413.513 1410.94 412.225 1411.42C410.937 1411.89 410.276 1413.31 410.748 1414.6C411.22 1415.89 412.647 1416.55 413.934 1416.08L413.943 1416.08C415.231 1415.6 415.888 1414.18 415.416 1412.89Z" fill="#0C7523"/>
<path d="M385.318 1498.23L376.197 1501.58C374.031 1502.37 372.914 1504.78 373.708 1506.94L374.763 1509.82L371.872 1510.88C369.706 1511.67 368.591 1514.09 369.387 1516.26L372.727 1525.37C373.522 1527.54 375.931 1528.66 378.097 1527.86L380.988 1526.8L382.042 1529.68C382.838 1531.85 385.247 1532.97 387.413 1532.18L396.534 1528.83C398.705 1528.04 399.824 1525.62 399.029 1523.45L397.975 1520.58L400.856 1519.52C403.027 1518.73 404.146 1516.31 403.351 1514.14L400.011 1505.03C399.216 1502.86 396.802 1501.74 394.631 1502.54L391.749 1503.59L390.695 1500.72C389.901 1498.55 387.489 1497.44 385.318 1498.23V1498.23ZM395.614 1507.47L398.421 1515.12L393.934 1516.77C392.646 1517.24 391.984 1518.67 392.456 1519.96L394.099 1524.44L386.439 1527.24L384.797 1522.76C384.325 1521.48 382.898 1520.81 381.61 1521.29L377.123 1522.93L374.316 1515.27L378.804 1513.63C380.091 1513.16 380.753 1511.73 380.281 1510.44L378.642 1505.97L386.302 1503.16L387.941 1507.64C388.413 1508.92 389.839 1509.58 391.127 1509.11L395.614 1507.47Z" fill="#0C7523"/>
<path d="M411.236 1548.5L388.9 1556.68C387.613 1557.15 386.951 1558.58 387.423 1559.87C387.895 1561.16 389.322 1561.82 390.61 1561.35L412.945 1553.16C414.233 1552.69 414.894 1551.26 414.422 1549.97C413.95 1548.68 412.524 1548.02 411.236 1548.5V1548.5Z" fill="#0C7523"/>
<path d="M407.579 1538.52L385.244 1546.71C383.956 1547.18 383.295 1548.6 383.767 1549.89C384.239 1551.18 385.665 1551.84 386.953 1551.37L409.288 1543.18C410.576 1542.71 411.238 1541.28 410.766 1540C410.294 1538.71 408.867 1538.05 407.579 1538.52V1538.52Z" fill="#0C7523"/>
<path d="M424.965 1526.25C423.678 1526.72 423.016 1528.15 423.488 1529.43L432.727 1554.64C433.73 1557.38 432.316 1560.42 429.574 1561.43L383.262 1578.4C380.526 1579.41 377.482 1577.99 376.479 1575.26L354.704 1515.85C354.232 1514.56 352.806 1513.9 351.518 1514.37C350.23 1514.84 349.569 1516.27 350.041 1517.56L371.816 1576.97C373.762 1582.27 379.663 1585.01 384.972 1583.07L431.284 1566.09C436.597 1564.14 439.337 1558.24 437.391 1552.93L428.152 1527.73C427.68 1526.44 426.254 1525.78 424.965 1526.25V1526.25Z" fill="#0C7523"/>
<path d="M388.33 1447.15L386.171 1441.25C384.909 1437.81 381.083 1436.04 377.642 1437.3L373.191 1438.93L367.365 1423.04C366.306 1420.15 363.093 1418.66 360.202 1419.72L344.623 1425.43C341.737 1426.48 340.251 1429.7 341.31 1432.59L347.136 1448.48L342.675 1450.11C339.234 1451.37 337.462 1455.2 338.724 1458.65L340.883 1464.54C335.946 1466.68 333.47 1472.35 335.346 1477.47L346.096 1506.8C346.568 1508.08 347.995 1508.75 349.283 1508.27C350.57 1507.8 351.232 1506.38 350.76 1505.09L347.476 1496.13C349.09 1493.63 354.487 1486.67 365.382 1485.13L366.148 1485.02C368.694 1484.66 371.297 1484.3 373.899 1483.86C374.205 1483.87 374.516 1483.82 374.821 1483.71C374.834 1483.7 374.846 1483.7 374.859 1483.69C385.275 1481.86 395.546 1478.75 401.81 1470.29L419.541 1518.66C420.013 1519.95 421.44 1520.61 422.727 1520.14C424.015 1519.67 424.676 1518.24 424.204 1516.96L400.921 1453.43C399.045 1448.31 393.488 1445.59 388.33 1447.15V1447.15ZM345.974 1430.88C345.861 1430.57 346.029 1430.2 346.333 1430.09L361.911 1424.38C362.225 1424.27 362.587 1424.43 362.702 1424.74L364.603 1429.93L357.813 1432.42C356.525 1432.89 355.864 1434.32 356.336 1435.61C356.808 1436.89 358.235 1437.55 359.522 1437.08L366.312 1434.59L368.527 1440.64L351.799 1446.77L345.974 1430.88ZM370.583 1479.36C368.877 1479.62 367.163 1479.86 365.456 1480.1L364.688 1480.21C354.81 1481.61 348.691 1486.81 345.447 1490.59L340.01 1475.76C339.006 1473.02 340.417 1469.98 343.154 1468.97L363.978 1461.34L370.583 1479.36ZM345.54 1462.81L343.388 1456.94C343.074 1456.08 343.53 1455.09 344.384 1454.78L379.352 1441.96C380.221 1441.64 381.188 1442.09 381.508 1442.96L383.66 1448.84L345.54 1462.81ZM399.648 1464.39C395.037 1473.27 385.773 1476.59 375.564 1478.52L368.641 1459.63L389.465 1452C392.207 1450.99 395.254 1452.4 396.258 1455.14L399.648 1464.39Z" fill="#0C7523"/>
<path d="M125.13 1496.03C125.795 1488.11 121.449 1477.82 115.236 1472.6C111.276 1469.28 107.93 1469.24 105.819 1469.8C105.818 1469.8 105.817 1469.8 105.816 1469.8C101.72 1470.88 98.7845 1473.48 97.3287 1477.3C94.1982 1485.53 98.5916 1496.99 102.095 1502.27C104.98 1506.64 108.254 1510.86 111.079 1513.85C114.479 1517.46 116.978 1519.11 119.126 1519.11C119.561 1519.11 119.983 1519.04 120.394 1518.91C121.307 1518.61 123.414 1517.52 123.255 1513.76C123.095 1510.03 123.552 1507.24 124.082 1504C124.451 1501.75 124.868 1499.2 125.13 1496.03V1496.03ZM119.291 1495.54C119.048 1498.49 118.667 1500.81 118.3 1503.06C117.84 1505.87 117.401 1508.55 117.365 1511.83C114.939 1509.65 111.028 1505.16 106.98 1499.04C103.877 1494.35 100.699 1484.92 102.805 1479.39C103.594 1477.31 105.026 1476.07 107.312 1475.46C108.783 1475.08 110.547 1476.32 111.468 1477.09C115.696 1480.64 119.849 1488.9 119.291 1495.54Z" fill="#0C7523"/>
<path d="M180.071 1467.75V1564.35C180.071 1565.97 181.382 1567.28 183 1567.28C184.619 1567.28 185.93 1565.97 185.93 1564.35V1467.75C185.93 1466.13 184.619 1464.82 183 1464.82C181.383 1464.82 180.071 1466.13 180.071 1467.75V1467.75Z" fill="#0C7523"/>
<path d="M240.86 1496.03C241.126 1499.19 241.543 1501.74 241.912 1503.98C242.445 1507.22 242.906 1510.03 242.746 1513.76C242.58 1517.52 244.687 1518.61 245.6 1518.91C246.012 1519.04 246.434 1519.11 246.869 1519.11C249.018 1519.11 251.517 1517.46 254.918 1513.85C257.746 1510.85 261.023 1506.63 263.905 1502.27C267.408 1496.99 271.798 1485.53 268.668 1477.3C267.212 1473.48 264.279 1470.88 260.185 1469.8C260.184 1469.8 260.184 1469.8 260.182 1469.8C258.071 1469.24 254.722 1469.28 250.758 1472.61C244.543 1477.83 240.195 1488.11 240.86 1496.03V1496.03ZM254.527 1477.09C255.33 1476.42 256.773 1475.39 258.105 1475.39C258.303 1475.39 258.499 1475.41 258.69 1475.46C260.973 1476.07 262.403 1477.31 263.191 1479.39C265.297 1484.92 262.122 1494.36 259.018 1499.04C254.974 1505.16 251.063 1509.65 248.635 1511.83C248.599 1508.54 248.157 1505.85 247.694 1503.03C247.325 1500.79 246.944 1498.47 246.698 1495.54C246.141 1488.91 250.296 1480.65 254.527 1477.09V1477.09Z" fill="#0C7523"/>
<path d="M149.754 1486.77C150.931 1485.66 150.986 1483.8 149.876 1482.62C148.767 1481.45 146.912 1481.39 145.735 1482.5L139.357 1488.51C138.18 1489.62 138.125 1491.48 139.235 1492.66C139.811 1493.27 140.588 1493.58 141.367 1493.58C142.088 1493.58 142.81 1493.31 143.376 1492.78L149.754 1486.77Z" fill="#0C7523"/>
<path d="M216.113 1482.62C215.003 1483.8 215.058 1485.66 216.236 1486.77L222.614 1492.78C223.18 1493.31 223.902 1493.58 224.623 1493.58C225.402 1493.58 226.179 1493.27 226.755 1492.66C227.865 1491.48 227.81 1489.62 226.633 1488.51L220.255 1482.5C219.077 1481.39 217.224 1481.45 216.113 1482.62V1482.62Z" fill="#0C7523"/>
<path d="M272.746 1458.51C268.322 1454.87 263.051 1453.47 257.506 1454.45C255.913 1454.74 254.851 1456.26 255.135 1457.85C255.418 1459.44 256.936 1460.51 258.532 1460.22C262.337 1459.55 265.963 1460.52 269.022 1463.04C273.954 1467.1 276.987 1474.69 277.135 1483.35C277.359 1496.94 269.412 1516.66 246.436 1531.27C245.714 1531.73 245.23 1532.48 245.108 1533.33C240.737 1563.89 196.405 1582.47 182.999 1582.83C175.727 1582.64 160.469 1577.33 147.431 1568.72C146.08 1567.83 144.262 1568.21 143.372 1569.56C142.481 1570.91 142.853 1572.72 144.204 1573.62C158.845 1583.28 174.771 1588.51 182.935 1588.69C182.957 1588.69 182.978 1588.69 183 1588.69C183.022 1588.69 183.044 1588.69 183.066 1588.69C190.979 1588.52 206.513 1583.48 220.892 1574.19C232.809 1566.5 247.498 1553.6 250.696 1535.49C260.927 1528.77 269.295 1520.26 274.947 1510.8C280.359 1501.75 283.142 1492.23 282.994 1483.25C282.816 1472.9 278.985 1463.65 272.746 1458.51V1458.51Z" fill="#0C7523"/>
<path d="M137.24 1560.87C127.781 1552.33 122.277 1543.06 120.88 1533.33C120.759 1532.48 120.274 1531.73 119.554 1531.27C96.5471 1516.63 88.6428 1496.31 88.865 1483.35C89.0557 1471.71 94.5271 1462.25 102.17 1460.36C106.138 1459.38 110.583 1460.48 115.022 1463.53C120.516 1467.31 125.818 1473.83 130.78 1482.89C131.208 1483.67 131.969 1484.21 132.847 1484.36C133.726 1484.52 134.625 1484.26 135.292 1483.67L164.523 1457.78C170.272 1452.7 176.489 1450.04 183.001 1449.86C189.513 1450.04 195.73 1452.7 201.476 1457.78L230.709 1483.67C231.377 1484.26 232.276 1484.52 233.156 1484.36C234.035 1484.21 234.795 1483.66 235.223 1482.88C239.268 1475.48 243.605 1469.72 248.114 1465.76C249.33 1464.7 249.452 1462.85 248.386 1461.63C247.319 1460.41 245.468 1460.29 244.252 1461.36C239.91 1465.16 235.762 1470.38 231.892 1476.89L205.359 1453.39C198.527 1447.35 191.028 1444.19 183.071 1444C183.024 1444 182.978 1444 182.93 1444C174.974 1444.19 167.475 1447.35 160.64 1453.4L134.107 1476.89C129.201 1468.64 123.908 1462.53 118.345 1458.71C112.486 1454.67 106.408 1453.28 100.764 1454.67C90.3807 1457.24 83.2443 1468.73 83.0061 1483.25C82.8522 1492.22 85.6334 1501.75 91.0478 1510.8C96.699 1520.25 105.066 1528.77 115.294 1535.49C117.176 1546.12 123.232 1556.11 133.312 1565.22C133.873 1565.72 134.575 1565.97 135.275 1565.97C136.075 1565.97 136.872 1565.65 137.45 1565.01C138.534 1563.81 138.44 1561.95 137.24 1560.87V1560.87Z" fill="#0C7523"/>
<path d="M499.955 0H1080V1600H499.955C343.933 1066.44 233.726 775.59 499.955 0Z" fill="#00CA2C"/>
<path d="M1078.96 1H1659V1601H1078.96C922.933 1067.44 812.726 776.59 1078.96 1Z" fill="#00B327"/>
</g>
<defs>
<clipPath id="clip0">
<rect width="1080" height="1600" fill="white"/>
</clipPath>
</defs>
</svg>
