<svg width="586" height="245" viewBox="0 0 586 245" fill="none" xmlns="http://www.w3.org/2000/svg">
<path d="M101 191H136L88.4 51H47.6L0 191H35L42 169H94L101 191ZM51.6 139L68 87.6L84.4 139H51.6Z" fill="url(#paint0_linear)"/>
<path d="M145 108.8V91H115V191H145V145.8C145 126 162.6 121 175 123V89C162.4 89 149 95.4 145 108.8Z" fill="url(#paint1_linear)" fill-opacity="0.85"/>
<path d="M213 193.8C232.6 193.8 249.6 183.6 258.2 168L232 153C228.8 160 221.4 164.2 212.6 164.2C199.6 164.2 190 154.8 190 141C190 127.2 199.6 117.8 212.6 117.8C221.4 117.8 228.6 122 232 129L258.2 113.8C249.6 98.4 232.4 88.2 213 88.2C182.6 88.2 160 111.2 160 141C160 170.8 182.6 193.8 213 193.8Z" fill="url(#paint2_linear)" fill-opacity="0.85"/>
<path d="M296.6 88.2C283.4 88.2 273.4 93 268 100.4V51H238V191H268V136.4C268 122.2 275.6 115.8 286.6 115.8C296.2 115.8 304 121.6 304 134V191H334V129.6C334 102.6 316.8 88.2 296.6 88.2Z" fill="url(#paint3_linear)" fill-opacity="0.85"/>
<path d="M360 193.8C390.4 193.8 412 177.8 412 150.8C412 121.2 388.2 113.8 367 107.4C345.2 100.8 341.8 96.4 341.8 90C341.8 84.4 346.8 79.4 356.8 79.4C369.6 79.4 376.2 85.6 381 95.6L408 79.8C397.8 59.2 379.8 48.2 356.8 48.2C332.6 48.2 309.8 63.8 309.8 90.8C309.8 117.6 330.2 127.6 351 133.4C372 139.2 380 142.6 380 151.2C380 156.6 376.2 162.6 361 162.6C345.2 162.6 336.6 154.8 331.6 143.2L304 159.2C311.8 179.8 330.6 193.8 360 193.8Z" fill="url(#paint4_linear)" fill-opacity="0.85"/>
<path d="M476 191H511L463.4 51H422.6L375 191H410L417 169H469L476 191ZM426.6 139L443 87.6L459.4 139H426.6Z" fill="url(#paint5_linear)" fill-opacity="0.85"/>
<path d="M533 51H480V191H512V147H533C560.6 147 582 125.6 582 99C582 72.4 560.6 51 533 51ZM533 117H512V81H533C542.8 81 550 88.8 550 99C550 109.2 542.8 117 533 117Z" fill="url(#paint6_linear)" fill-opacity="0.85"/>
<path d="M101 191H136L88.4 51H47.6L0 191H35L42 169H94L101 191ZM51.6 139L68 87.6L84.4 139H51.6Z" fill="url(#paint7_linear)"/>
<path d="M144 108.8V91H114V191H144V145.8C144 126 161.6 121 174 123V89C161.4 89 148 95.4 144 108.8Z" fill="url(#paint8_linear)" fill-opacity="0.75"/>
<path d="M213 193.8C232.6 193.8 249.6 183.6 258.2 168L232 153C228.8 160 221.4 164.2 212.6 164.2C199.6 164.2 190 154.8 190 141C190 127.2 199.6 117.8 212.6 117.8C221.4 117.8 228.6 122 232 129L258.2 113.8C249.6 98.4 232.4 88.2 213 88.2C182.6 88.2 160 111.2 160 141C160 170.8 182.6 193.8 213 193.8Z" fill="url(#paint9_linear)" fill-opacity="0.75"/>
<path d="M296.6 88.2C283.4 88.2 273.4 93 268 100.4V51H238V191H268V136.4C268 122.2 275.6 115.8 286.6 115.8C296.2 115.8 304 121.6 304 134V191H334V129.6C334 102.6 316.8 88.2 296.6 88.2Z" fill="url(#paint10_linear)" fill-opacity="0.75"/>
<path d="M360 193.8C390.4 193.8 412 177.8 412 150.8C412 121.2 388.2 113.8 367 107.4C345.2 100.8 341.8 96.4 341.8 90C341.8 84.4 346.8 79.4 356.8 79.4C369.6 79.4 376.2 85.6 381 95.6L408 79.8C397.8 59.2 379.8 48.2 356.8 48.2C332.6 48.2 309.8 63.8 309.8 90.8C309.8 117.6 330.2 127.6 351 133.4C372 139.2 380 142.6 380 151.2C380 156.6 376.2 162.6 361 162.6C345.2 162.6 336.6 154.8 331.6 143.2L304 159.2C311.8 179.8 330.6 193.8 360 193.8Z" fill="url(#paint11_linear)" fill-opacity="0.75"/>
<path d="M476 191H511L463.4 51H422.6L375 191H410L417 169H469L476 191ZM426.6 139L443 87.6L459.4 139H426.6Z" fill="url(#paint12_linear)" fill-opacity="0.75"/>
<path d="M533 51H480V191H512V147H533C560.6 147 582 125.6 582 99C582 72.4 560.6 51 533 51ZM533 117H512V81H533C542.8 81 550 88.8 550 99C550 109.2 542.8 117 533 117Z" fill="url(#paint13_linear)" fill-opacity="0.75"/>
<path d="M101 191H136L88.4 51H47.6L0 191H35L42 169H94L101 191ZM51.6 139L68 87.6L84.4 139H51.6Z" fill="url(#paint14_linear)"/>
<path d="M144 108.8V91H114V191H144V145.8C144 126 161.6 121 174 123V89C161.4 89 148 95.4 144 108.8Z" fill="url(#paint15_linear)" fill-opacity="0.5"/>
<path d="M213 193.8C232.6 193.8 249.6 183.6 258.2 168L232 153C228.8 160 221.4 164.2 212.6 164.2C199.6 164.2 190 154.8 190 141C190 127.2 199.6 117.8 212.6 117.8C221.4 117.8 228.6 122 232 129L258.2 113.8C249.6 98.4 232.4 88.2 213 88.2C182.6 88.2 160 111.2 160 141C160 170.8 182.6 193.8 213 193.8Z" fill="url(#paint16_linear)" fill-opacity="0.5"/>
<path d="M296.6 88.2C283.4 88.2 273.4 93 268 100.4V51H238V191H268V136.4C268 122.2 275.6 115.8 286.6 115.8C296.2 115.8 304 121.6 304 134V191H334V129.6C334 102.6 316.8 88.2 296.6 88.2Z" fill="url(#paint17_linear)" fill-opacity="0.7"/>
<path d="M360 193.8C390.4 193.8 412 177.8 412 150.8C412 121.2 388.2 113.8 367 107.4C345.2 100.8 341.8 96.4 341.8 90C341.8 84.4 346.8 79.4 356.8 79.4C369.6 79.4 376.2 85.6 381 95.6L408 79.8C397.8 59.2 379.8 48.2 356.8 48.2C332.6 48.2 309.8 63.8 309.8 90.8C309.8 117.6 330.2 127.6 351 133.4C372 139.2 380 142.6 380 151.2C380 156.6 376.2 162.6 361 162.6C345.2 162.6 336.6 154.8 331.6 143.2L304 159.2C311.8 179.8 330.6 193.8 360 193.8Z" fill="url(#paint18_linear)" fill-opacity="0.7"/>
<path d="M476 191H511L463.4 51H422.6L375 191H410L417 169H469L476 191ZM426.6 139L443 87.6L459.4 139H426.6Z" fill="url(#paint19_linear)" fill-opacity="0.5"/>
<path d="M533 51H480V191H512V147H533C560.6 147 582 125.6 582 99C582 72.4 560.6 51 533 51ZM533 117H512V81H533C542.8 81 550 88.8 550 99C550 109.2 542.8 117 533 117Z" fill="url(#paint20_linear)" fill-opacity="0.5"/>
<circle cx="433.5" cy="34.5" r="7.5" fill="url(#paint21_linear)"/>
<circle cx="457.5" cy="34.5" r="7.5" fill="url(#paint22_linear)"/>
<circle cx="481.5" cy="34.5" r="7.5" fill="url(#paint23_linear)"/>
<circle cx="505.5" cy="34.5" r="7.5" fill="url(#paint24_linear)"/>
<circle cx="529.5" cy="34.5" r="7.5" fill="url(#paint25_linear)"/>
<circle cx="554.5" cy="34.5" r="7.5" fill="url(#paint26_linear)"/>
<circle cx="578.5" cy="34.5" r="7.5" fill="url(#paint27_linear)"/>
<circle cx="152.5" cy="211.5" r="7.5" transform="rotate(180 152.5 211.5)" fill="url(#paint28_linear)"/>
<circle cx="128.5" cy="211.5" r="7.5" transform="rotate(180 128.5 211.5)" fill="url(#paint29_linear)"/>
<circle cx="104.5" cy="211.5" r="7.5" transform="rotate(180 104.5 211.5)" fill="url(#paint30_linear)"/>
<circle cx="80.5" cy="211.5" r="7.5" transform="rotate(180 80.5 211.5)" fill="url(#paint31_linear)"/>
<circle cx="56.5" cy="211.5" r="7.5" transform="rotate(180 56.5 211.5)" fill="url(#paint32_linear)"/>
<circle cx="31.5" cy="211.5" r="7.5" transform="rotate(180 31.5 211.5)" fill="url(#paint33_linear)"/>
<circle cx="7.5" cy="211.5" r="7.5" transform="rotate(180 7.5 211.5)" fill="url(#paint34_linear)"/>
<defs>
<linearGradient id="paint0_linear" x1="0" y1="122.5" x2="136" y2="122.5" gradientUnits="userSpaceOnUse">
<stop stop-color="#0052D4"/>
<stop offset="0.5" stop-color="#4364F7"/>
<stop offset="1" stop-color="#6FB1FC"/>
</linearGradient>
<linearGradient id="paint1_linear" x1="104" y1="122.5" x2="179" y2="122.5" gradientUnits="userSpaceOnUse">
<stop stop-color="#ADD100"/>
<stop offset="1" stop-color="#7B920A"/>
</linearGradient>
<linearGradient id="paint2_linear" x1="154" y1="122.5" x2="261" y2="122.5" gradientUnits="userSpaceOnUse">
<stop stop-color="#F7971E"/>
<stop offset="1" stop-color="#FFD200"/>
</linearGradient>
<linearGradient id="paint3_linear" x1="227" y1="122.5" x2="344" y2="122.5" gradientUnits="userSpaceOnUse">
<stop stop-color="#9D50BB"/>
<stop offset="1" stop-color="#6E48AA"/>
</linearGradient>
<linearGradient id="paint4_linear" x1="299" y1="122.5" x2="416" y2="122.5" gradientUnits="userSpaceOnUse">
<stop stop-color="#FF9966"/>
<stop offset="1" stop-color="#FF5E62"/>
</linearGradient>
<linearGradient id="paint5_linear" x1="375" y1="122.5" x2="511" y2="122.5" gradientUnits="userSpaceOnUse">
<stop stop-color="#4E54C8"/>
<stop offset="1" stop-color="#8F94FB"/>
</linearGradient>
<linearGradient id="paint6_linear" x1="468" y1="122.5" x2="586" y2="122.5" gradientUnits="userSpaceOnUse">
<stop stop-color="#FFE259"/>
<stop offset="1" stop-color="#FFA751"/>
</linearGradient>
<linearGradient id="paint7_linear" x1="0" y1="122.5" x2="136" y2="122.5" gradientUnits="userSpaceOnUse">
<stop stop-color="#0052D4"/>
<stop offset="0.5" stop-color="#4364F7"/>
<stop offset="1" stop-color="#6FB1FC"/>
</linearGradient>
<linearGradient id="paint8_linear" x1="103" y1="122.5" x2="178" y2="122.5" gradientUnits="userSpaceOnUse">
<stop stop-color="#ADD100"/>
<stop offset="1" stop-color="#7B920A"/>
</linearGradient>
<linearGradient id="paint9_linear" x1="154" y1="122.5" x2="261" y2="122.5" gradientUnits="userSpaceOnUse">
<stop stop-color="#F7971E"/>
<stop offset="1" stop-color="#FFD200"/>
</linearGradient>
<linearGradient id="paint10_linear" x1="227" y1="122.5" x2="344" y2="122.5" gradientUnits="userSpaceOnUse">
<stop stop-color="#9D50BB"/>
<stop offset="1" stop-color="#6E48AA"/>
</linearGradient>
<linearGradient id="paint11_linear" x1="299" y1="122.5" x2="416" y2="122.5" gradientUnits="userSpaceOnUse">
<stop stop-color="#FF9966"/>
<stop offset="1" stop-color="#FF5E62"/>
</linearGradient>
<linearGradient id="paint12_linear" x1="375" y1="122.5" x2="511" y2="122.5" gradientUnits="userSpaceOnUse">
<stop stop-color="#4E54C8"/>
<stop offset="1" stop-color="#8F94FB"/>
</linearGradient>
<linearGradient id="paint13_linear" x1="468" y1="122.5" x2="586" y2="122.5" gradientUnits="userSpaceOnUse">
<stop stop-color="#FFE259"/>
<stop offset="1" stop-color="#FFA751"/>
</linearGradient>
<linearGradient id="paint14_linear" x1="0" y1="122.5" x2="136" y2="122.5" gradientUnits="userSpaceOnUse">
<stop stop-color="#0052D4"/>
<stop offset="0.5" stop-color="#4364F7"/>
<stop offset="1" stop-color="#6FB1FC"/>
</linearGradient>
<linearGradient id="paint15_linear" x1="103" y1="122.5" x2="178" y2="122.5" gradientUnits="userSpaceOnUse">
<stop stop-color="#ADD100"/>
<stop offset="1" stop-color="#7B920A"/>
</linearGradient>
<linearGradient id="paint16_linear" x1="154" y1="122.5" x2="261" y2="122.5" gradientUnits="userSpaceOnUse">
<stop stop-color="#F7971E"/>
<stop offset="1" stop-color="#FFD200"/>
</linearGradient>
<linearGradient id="paint17_linear" x1="227" y1="122.5" x2="344" y2="122.5" gradientUnits="userSpaceOnUse">
<stop stop-color="#9D50BB"/>
<stop offset="1" stop-color="#6E48AA"/>
</linearGradient>
<linearGradient id="paint18_linear" x1="299" y1="122.5" x2="416" y2="122.5" gradientUnits="userSpaceOnUse">
<stop stop-color="#FF9966"/>
<stop offset="1" stop-color="#FF5E62"/>
</linearGradient>
<linearGradient id="paint19_linear" x1="375" y1="122.5" x2="511" y2="122.5" gradientUnits="userSpaceOnUse">
<stop stop-color="#4E54C8"/>
<stop offset="1" stop-color="#8F94FB"/>
</linearGradient>
<linearGradient id="paint20_linear" x1="468" y1="122.5" x2="586" y2="122.5" gradientUnits="userSpaceOnUse">
<stop stop-color="#FFE259"/>
<stop offset="1" stop-color="#FFA751"/>
</linearGradient>
<linearGradient id="paint21_linear" x1="426" y1="34.5" x2="441" y2="34.5" gradientUnits="userSpaceOnUse">
<stop stop-color="#0052D4"/>
<stop offset="0.5" stop-color="#4364F7"/>
<stop offset="1" stop-color="#6FB1FC"/>
</linearGradient>
<linearGradient id="paint22_linear" x1="450" y1="34.5" x2="465" y2="34.5" gradientUnits="userSpaceOnUse">
<stop stop-color="#799F0C"/>
<stop offset="1" stop-color="#ACBB78"/>
</linearGradient>
<linearGradient id="paint23_linear" x1="474" y1="34.5" x2="489" y2="34.5" gradientUnits="userSpaceOnUse">
<stop stop-color="#FFE259"/>
<stop offset="1" stop-color="#FFA751"/>
</linearGradient>
<linearGradient id="paint24_linear" x1="498" y1="34.5" x2="513" y2="34.5" gradientUnits="userSpaceOnUse">
<stop stop-color="#DA22FF"/>
<stop offset="1" stop-color="#9733EE"/>
</linearGradient>
<linearGradient id="paint25_linear" x1="522" y1="34.5" x2="537" y2="34.5" gradientUnits="userSpaceOnUse">
<stop stop-color="#FF512F"/>
<stop offset="1" stop-color="#F09819"/>
</linearGradient>
<linearGradient id="paint26_linear" x1="547" y1="34.5" x2="562" y2="34.5" gradientUnits="userSpaceOnUse">
<stop stop-color="#4776E6"/>
<stop offset="1" stop-color="#8E54E9"/>
</linearGradient>
<linearGradient id="paint27_linear" x1="571" y1="34.5" x2="586" y2="34.5" gradientUnits="userSpaceOnUse">
<stop stop-color="#FFB347"/>
<stop offset="1" stop-color="#FFCC33"/>
</linearGradient>
<linearGradient id="paint28_linear" x1="145" y1="211.5" x2="160" y2="211.5" gradientUnits="userSpaceOnUse">
<stop stop-color="#0052D4"/>
<stop offset="0.5" stop-color="#4364F7"/>
<stop offset="1" stop-color="#6FB1FC"/>
</linearGradient>
<linearGradient id="paint29_linear" x1="121" y1="211.5" x2="136" y2="211.5" gradientUnits="userSpaceOnUse">
<stop stop-color="#799F0C"/>
<stop offset="1" stop-color="#ACBB78"/>
</linearGradient>
<linearGradient id="paint30_linear" x1="97" y1="211.5" x2="112" y2="211.5" gradientUnits="userSpaceOnUse">
<stop stop-color="#FFE259"/>
<stop offset="1" stop-color="#FFA751"/>
</linearGradient>
<linearGradient id="paint31_linear" x1="73" y1="211.5" x2="88" y2="211.5" gradientUnits="userSpaceOnUse">
<stop stop-color="#DA22FF"/>
<stop offset="1" stop-color="#9733EE"/>
</linearGradient>
<linearGradient id="paint32_linear" x1="49" y1="211.5" x2="64" y2="211.5" gradientUnits="userSpaceOnUse">
<stop stop-color="#FF512F"/>
<stop offset="1" stop-color="#F09819"/>
</linearGradient>
<linearGradient id="paint33_linear" x1="24" y1="211.5" x2="39" y2="211.5" gradientUnits="userSpaceOnUse">
<stop stop-color="#4776E6"/>
<stop offset="1" stop-color="#8E54E9"/>
</linearGradient>
<linearGradient id="paint34_linear" x1="0" y1="211.5" x2="15" y2="211.5" gradientUnits="userSpaceOnUse">
<stop stop-color="#FFB347"/>
<stop offset="1" stop-color="#FFCC33"/>
</linearGradient>
</defs>
</svg>
