<svg width="285" height="342" viewBox="0 0 285 342" fill="none" xmlns="http://www.w3.org/2000/svg">
<path d="M0.170973 126.445L31.7137 173.456C32.7591 87.5478 70.5382 57.9047 166.116 19.0907C115.484 77.7528 95.3029 109.538 76.5365 163.855C57.9354 206.114 61.5378 227.698 73.4037 263.806C82.312 288.31 81.4113 301.865 71.4614 325.776C11.2545 276.141 5.05537 223.791 0.170973 126.445Z" fill="url(#paint0_linear)"/>
<path d="M175.423 0C196.969 28.9704 201.707 46.0605 200.786 77.6225C195.19 115.728 186.912 134.562 164.663 164.467C138.977 199.375 130.177 219.291 132.383 255.924C136.284 272.294 141.071 280.337 155.44 292.045C146.423 242.937 158.122 214.917 195.406 164.467L213.083 133.726C210.923 169.401 211.327 189.202 219.231 223.645C226.453 247.796 227.563 260.734 224.611 282.822C217.873 313.032 207.293 325.972 175.423 342C111.166 315.668 90.9583 291.811 85.5 229.793C89.3429 182.912 102.721 158.903 137.763 115.281C165.921 73.2754 175.652 48.3698 175.423 0Z" fill="url(#paint1_linear)"/>
<path d="M209.5 27C265.392 56.3974 281.35 85.5695 284.82 158.42C282.668 198.234 273.437 214.432 245.623 234.506C233.067 194.727 236.163 160.942 240.243 102.317C238.423 68.8203 232.786 51.8962 209.5 27Z" fill="url(#paint2_linear)"/>
<defs>
<linearGradient id="paint0_linear" x1="-9.64844" y1="168.408" x2="161.268" y2="173.765" gradientUnits="userSpaceOnUse">
<stop stop-color="#0052D4"/>
<stop offset="0.5" stop-color="#4364F7"/>
<stop offset="1" stop-color="#6FB1FC"/>
</linearGradient>
<linearGradient id="paint1_linear" x1="85.5" y1="171" x2="226.133" y2="171" gradientUnits="userSpaceOnUse">
<stop stop-color="#833AB4"/>
<stop offset="0.5" stop-color="#FD1D1D"/>
<stop offset="1" stop-color="#FCB045"/>
</linearGradient>
<linearGradient id="paint2_linear" x1="209.5" y1="130.753" x2="284.82" y2="130.753" gradientUnits="userSpaceOnUse">
<stop stop-color="#F7FF00"/>
<stop offset="1" stop-color="#DB36A4"/>
</linearGradient>
</defs>
</svg>
