<svg width="1080" height="1080" viewBox="0 0 1080 1080" fill="none" xmlns="http://www.w3.org/2000/svg">
<path d="M348 731H383L335.4 591H294.6L247 731H282L289 709H341L348 731ZM298.6 679L315 627.6L331.4 679H298.6Z" fill="url(#paint0_linear)"/>
<path d="M392 648.8V631H362V731H392V685.8C392 666 409.6 661 422 663V629C409.4 629 396 635.4 392 648.8Z" fill="url(#paint1_linear)" fill-opacity="0.85"/>
<path d="M460 733.8C479.6 733.8 496.6 723.6 505.2 708L479 693C475.8 700 468.4 704.2 459.6 704.2C446.6 704.2 437 694.8 437 681C437 667.2 446.6 657.8 459.6 657.8C468.4 657.8 475.6 662 479 669L505.2 653.8C496.6 638.4 479.4 628.2 460 628.2C429.6 628.2 407 651.2 407 681C407 710.8 429.6 733.8 460 733.8Z" fill="url(#paint2_linear)" fill-opacity="0.85"/>
<path d="M543.6 628.2C530.4 628.2 520.4 633 515 640.4V591H485V731H515V676.4C515 662.2 522.6 655.8 533.6 655.8C543.2 655.8 551 661.6 551 674V731H581V669.6C581 642.6 563.8 628.2 543.6 628.2Z" fill="url(#paint3_linear)" fill-opacity="0.85"/>
<path d="M607 733.8C637.4 733.8 659 717.8 659 690.8C659 661.2 635.2 653.8 614 647.4C592.2 640.8 588.8 636.4 588.8 630C588.8 624.4 593.8 619.4 603.8 619.4C616.6 619.4 623.2 625.6 628 635.6L655 619.8C644.8 599.2 626.8 588.2 603.8 588.2C579.6 588.2 556.8 603.8 556.8 630.8C556.8 657.6 577.2 667.6 598 673.4C619 679.2 627 682.6 627 691.2C627 696.6 623.2 702.6 608 702.6C592.2 702.6 583.6 694.8 578.6 683.2L551 699.2C558.8 719.8 577.6 733.8 607 733.8Z" fill="url(#paint4_linear)" fill-opacity="0.85"/>
<path d="M723 731H758L710.4 591H669.6L622 731H657L664 709H716L723 731ZM673.6 679L690 627.6L706.4 679H673.6Z" fill="url(#paint5_linear)" fill-opacity="0.85"/>
<path d="M780 591H727V731H759V687H780C807.6 687 829 665.6 829 639C829 612.4 807.6 591 780 591ZM780 657H759V621H780C789.8 621 797 628.8 797 639C797 649.2 789.8 657 780 657Z" fill="url(#paint6_linear)" fill-opacity="0.85"/>
<path d="M348 731H383L335.4 591H294.6L247 731H282L289 709H341L348 731ZM298.6 679L315 627.6L331.4 679H298.6Z" fill="url(#paint7_linear)"/>
<path d="M391 648.8V631H361V731H391V685.8C391 666 408.6 661 421 663V629C408.4 629 395 635.4 391 648.8Z" fill="url(#paint8_linear)" fill-opacity="0.75"/>
<path d="M460 733.8C479.6 733.8 496.6 723.6 505.2 708L479 693C475.8 700 468.4 704.2 459.6 704.2C446.6 704.2 437 694.8 437 681C437 667.2 446.6 657.8 459.6 657.8C468.4 657.8 475.6 662 479 669L505.2 653.8C496.6 638.4 479.4 628.2 460 628.2C429.6 628.2 407 651.2 407 681C407 710.8 429.6 733.8 460 733.8Z" fill="url(#paint9_linear)" fill-opacity="0.75"/>
<path d="M543.6 628.2C530.4 628.2 520.4 633 515 640.4V591H485V731H515V676.4C515 662.2 522.6 655.8 533.6 655.8C543.2 655.8 551 661.6 551 674V731H581V669.6C581 642.6 563.8 628.2 543.6 628.2Z" fill="url(#paint10_linear)" fill-opacity="0.75"/>
<path d="M607 733.8C637.4 733.8 659 717.8 659 690.8C659 661.2 635.2 653.8 614 647.4C592.2 640.8 588.8 636.4 588.8 630C588.8 624.4 593.8 619.4 603.8 619.4C616.6 619.4 623.2 625.6 628 635.6L655 619.8C644.8 599.2 626.8 588.2 603.8 588.2C579.6 588.2 556.8 603.8 556.8 630.8C556.8 657.6 577.2 667.6 598 673.4C619 679.2 627 682.6 627 691.2C627 696.6 623.2 702.6 608 702.6C592.2 702.6 583.6 694.8 578.6 683.2L551 699.2C558.8 719.8 577.6 733.8 607 733.8Z" fill="url(#paint11_linear)" fill-opacity="0.75"/>
<path d="M723 731H758L710.4 591H669.6L622 731H657L664 709H716L723 731ZM673.6 679L690 627.6L706.4 679H673.6Z" fill="url(#paint12_linear)" fill-opacity="0.75"/>
<path d="M780 591H727V731H759V687H780C807.6 687 829 665.6 829 639C829 612.4 807.6 591 780 591ZM780 657H759V621H780C789.8 621 797 628.8 797 639C797 649.2 789.8 657 780 657Z" fill="url(#paint13_linear)" fill-opacity="0.75"/>
<path d="M348 731H383L335.4 591H294.6L247 731H282L289 709H341L348 731ZM298.6 679L315 627.6L331.4 679H298.6Z" fill="url(#paint14_linear)"/>
<path d="M391 648.8V631H361V731H391V685.8C391 666 408.6 661 421 663V629C408.4 629 395 635.4 391 648.8Z" fill="url(#paint15_linear)" fill-opacity="0.5"/>
<path d="M460 733.8C479.6 733.8 496.6 723.6 505.2 708L479 693C475.8 700 468.4 704.2 459.6 704.2C446.6 704.2 437 694.8 437 681C437 667.2 446.6 657.8 459.6 657.8C468.4 657.8 475.6 662 479 669L505.2 653.8C496.6 638.4 479.4 628.2 460 628.2C429.6 628.2 407 651.2 407 681C407 710.8 429.6 733.8 460 733.8Z" fill="url(#paint16_linear)" fill-opacity="0.5"/>
<path d="M543.6 628.2C530.4 628.2 520.4 633 515 640.4V591H485V731H515V676.4C515 662.2 522.6 655.8 533.6 655.8C543.2 655.8 551 661.6 551 674V731H581V669.6C581 642.6 563.8 628.2 543.6 628.2Z" fill="url(#paint17_linear)" fill-opacity="0.7"/>
<path d="M607 733.8C637.4 733.8 659 717.8 659 690.8C659 661.2 635.2 653.8 614 647.4C592.2 640.8 588.8 636.4 588.8 630C588.8 624.4 593.8 619.4 603.8 619.4C616.6 619.4 623.2 625.6 628 635.6L655 619.8C644.8 599.2 626.8 588.2 603.8 588.2C579.6 588.2 556.8 603.8 556.8 630.8C556.8 657.6 577.2 667.6 598 673.4C619 679.2 627 682.6 627 691.2C627 696.6 623.2 702.6 608 702.6C592.2 702.6 583.6 694.8 578.6 683.2L551 699.2C558.8 719.8 577.6 733.8 607 733.8Z" fill="url(#paint18_linear)" fill-opacity="0.7"/>
<path d="M723 731H758L710.4 591H669.6L622 731H657L664 709H716L723 731ZM673.6 679L690 627.6L706.4 679H673.6Z" fill="url(#paint19_linear)" fill-opacity="0.5"/>
<path d="M780 591H727V731H759V687H780C807.6 687 829 665.6 829 639C829 612.4 807.6 591 780 591ZM780 657H759V621H780C789.8 621 797 628.8 797 639C797 649.2 789.8 657 780 657Z" fill="url(#paint20_linear)" fill-opacity="0.5"/>
<circle cx="680.5" cy="574.5" r="7.5" fill="url(#paint21_linear)"/>
<circle cx="704.5" cy="574.5" r="7.5" fill="url(#paint22_linear)"/>
<circle cx="728.5" cy="574.5" r="7.5" fill="url(#paint23_linear)"/>
<circle cx="752.5" cy="574.5" r="7.5" fill="url(#paint24_linear)"/>
<circle cx="776.5" cy="574.5" r="7.5" fill="url(#paint25_linear)"/>
<circle cx="801.5" cy="574.5" r="7.5" fill="url(#paint26_linear)"/>
<circle cx="825.5" cy="574.5" r="7.5" fill="url(#paint27_linear)"/>
<circle cx="399.5" cy="751.5" r="7.5" transform="rotate(180 399.5 751.5)" fill="url(#paint28_linear)"/>
<circle cx="375.5" cy="751.5" r="7.5" transform="rotate(180 375.5 751.5)" fill="url(#paint29_linear)"/>
<circle cx="351.5" cy="751.5" r="7.5" transform="rotate(180 351.5 751.5)" fill="url(#paint30_linear)"/>
<circle cx="327.5" cy="751.5" r="7.5" transform="rotate(180 327.5 751.5)" fill="url(#paint31_linear)"/>
<circle cx="303.5" cy="751.5" r="7.5" transform="rotate(180 303.5 751.5)" fill="url(#paint32_linear)"/>
<circle cx="278.5" cy="751.5" r="7.5" transform="rotate(180 278.5 751.5)" fill="url(#paint33_linear)"/>
<circle cx="254.5" cy="751.5" r="7.5" transform="rotate(180 254.5 751.5)" fill="url(#paint34_linear)"/>
<path d="M499.5 751.74C500.14 752.047 500.647 752.487 501.02 753.06C501.407 753.633 501.6 754.293 501.6 755.04C501.6 756.16 501.207 757.1 500.42 757.86C499.633 758.62 498.673 759 497.54 759H491.5V745H497.1C498.193 745 499.12 745.367 499.88 746.1C500.64 746.833 501.02 747.74 501.02 748.82C501.02 750.06 500.513 751.033 499.5 751.74ZM497.1 746.74H493.36V751.02H497.1C497.687 751.02 498.18 750.813 498.58 750.4C498.98 749.987 499.18 749.48 499.18 748.88C499.18 748.293 498.973 747.793 498.56 747.38C498.16 746.953 497.673 746.74 497.1 746.74ZM497.54 757.26C498.167 757.26 498.693 757.04 499.12 756.6C499.547 756.16 499.76 755.62 499.76 754.98C499.76 754.353 499.54 753.82 499.1 753.38C498.673 752.94 498.153 752.72 497.54 752.72H493.36V757.26H497.54ZM518.105 759L514.965 753.64H511.665V759H509.805V745H515.405C516.605 745 517.631 745.427 518.485 746.28C519.338 747.12 519.765 748.14 519.765 749.34C519.765 750.247 519.491 751.073 518.945 751.82C518.411 752.567 517.718 753.093 516.865 753.4L520.165 759H518.105ZM511.665 746.74V751.96H515.405C516.098 751.96 516.685 751.707 517.165 751.2C517.658 750.68 517.905 750.06 517.905 749.34C517.905 748.62 517.658 748.007 517.165 747.5C516.685 746.993 516.098 746.74 515.405 746.74H511.665ZM528.031 745H529.891V759H528.031V745ZM552.395 752.06V752.9C552.395 754.727 551.768 756.247 550.515 757.46C549.261 758.66 547.601 759.26 545.535 759.26C543.401 759.26 541.635 758.56 540.235 757.16C538.848 755.747 538.155 754.027 538.155 752C538.155 749.973 538.848 748.26 540.235 746.86C541.635 745.447 543.388 744.74 545.495 744.74C546.788 744.74 547.975 745.053 549.055 745.68C550.135 746.293 550.968 747.107 551.555 748.12L549.955 749.06C549.555 748.3 548.948 747.693 548.135 747.24C547.335 746.773 546.448 746.54 545.475 746.54C543.875 746.54 542.561 747.067 541.535 748.12C540.508 749.16 539.995 750.453 539.995 752C539.995 753.547 540.508 754.84 541.535 755.88C542.575 756.92 543.915 757.44 545.555 757.44C546.955 757.44 548.088 757.1 548.955 756.42C549.821 755.727 550.348 754.833 550.535 753.74H545.395V752.06H552.395ZM569.316 745H571.156V759H569.316V752.7H562.516V759H560.656V745H562.516V750.94H569.316V745ZM589.112 745V746.76H584.972V759H583.132V746.76H579.012V745H589.112ZM598.813 757.24H605.313V759H596.953V745H605.213V746.76H598.813V751.06H604.713V752.8H598.813V757.24ZM622.259 745H624.119V759H622.619L615.419 748.54V759H613.559V745H615.059L622.259 755.44V745ZM654.533 745L649.573 753.34V759H647.713V753.32L642.773 745H644.853L648.653 751.56L652.453 745H654.533ZM672.808 757.14C671.408 758.553 669.695 759.26 667.668 759.26C665.641 759.26 663.928 758.553 662.528 757.14C661.128 755.727 660.428 754.013 660.428 752C660.428 749.973 661.128 748.26 662.528 746.86C663.928 745.447 665.641 744.74 667.668 744.74C669.695 744.74 671.408 745.447 672.808 746.86C674.221 748.26 674.928 749.973 674.928 752C674.928 754.013 674.221 755.727 672.808 757.14ZM663.808 755.88C664.848 756.92 666.135 757.44 667.668 757.44C669.201 757.44 670.481 756.92 671.508 755.88C672.548 754.827 673.068 753.533 673.068 752C673.068 750.453 672.548 749.16 671.508 748.12C670.481 747.067 669.201 746.54 667.668 746.54C666.135 746.54 664.848 747.067 663.808 748.12C662.781 749.16 662.268 750.453 662.268 752C662.268 753.533 662.781 754.827 663.808 755.88ZM691.926 757.92C690.953 758.813 689.693 759.26 688.146 759.26C686.6 759.26 685.333 758.813 684.346 757.92C683.373 757.013 682.886 755.807 682.886 754.3V745H684.746V754.22C684.746 755.207 685.04 755.993 685.626 756.58C686.213 757.153 687.053 757.44 688.146 757.44C689.24 757.44 690.08 757.153 690.666 756.58C691.253 755.993 691.546 755.207 691.546 754.22V745H693.386V754.3C693.386 755.807 692.9 757.013 691.926 757.92ZM710.53 759L707.39 753.64H704.09V759H702.23V745H707.83C709.03 745 710.057 745.427 710.91 746.28C711.764 747.12 712.19 748.14 712.19 749.34C712.19 750.247 711.917 751.073 711.37 751.82C710.837 752.567 710.144 753.093 709.29 753.4L712.59 759H710.53ZM704.09 746.74V751.96H707.83C708.524 751.96 709.11 751.707 709.59 751.2C710.084 750.68 710.33 750.06 710.33 749.34C710.33 748.62 710.084 748.007 709.59 747.5C709.11 746.993 708.524 746.74 707.83 746.74H704.09ZM739.517 746.76H733.317V751.3H739.257V753.06H733.317V759H731.457V745H739.517V746.76ZM756.63 757.92C755.656 758.813 754.396 759.26 752.85 759.26C751.303 759.26 750.036 758.813 749.05 757.92C748.076 757.013 747.59 755.807 747.59 754.3V745H749.45V754.22C749.45 755.207 749.743 755.993 750.33 756.58C750.916 757.153 751.756 757.44 752.85 757.44C753.943 757.44 754.783 757.153 755.37 756.58C755.956 755.993 756.25 755.207 756.25 754.22V745H758.09V754.3C758.09 755.807 757.603 757.013 756.63 757.92ZM775.894 745V746.76H771.754V759H769.914V746.76H765.794V745H775.894ZM792.594 757.92C791.621 758.813 790.361 759.26 788.814 759.26C787.268 759.26 786.001 758.813 785.014 757.92C784.041 757.013 783.554 755.807 783.554 754.3V745H785.414V754.22C785.414 755.207 785.708 755.993 786.294 756.58C786.881 757.153 787.721 757.44 788.814 757.44C789.908 757.44 790.748 757.153 791.334 756.58C791.921 755.993 792.214 755.207 792.214 754.22V745H794.054V754.3C794.054 755.807 793.568 757.013 792.594 757.92ZM811.198 759L808.058 753.64H804.758V759H802.898V745H808.498C809.698 745 810.725 745.427 811.578 746.28C812.432 747.12 812.858 748.14 812.858 749.34C812.858 750.247 812.585 751.073 812.038 751.82C811.505 752.567 810.812 753.093 809.958 753.4L813.258 759H811.198ZM804.758 746.74V751.96H808.498C809.192 751.96 809.778 751.707 810.258 751.2C810.752 750.68 810.998 750.06 810.998 749.34C810.998 748.62 810.752 748.007 810.258 747.5C809.778 746.993 809.192 746.74 808.498 746.74H804.758ZM822.985 757.24H829.485V759H821.125V745H829.385V746.76H822.985V751.06H828.885V752.8H822.985V757.24Z" fill="url(#paint35_linear)"/>
<path d="M396.171 335.445L427.714 382.456C428.759 296.548 466.538 266.905 562.116 228.091C511.484 286.753 491.303 318.538 472.536 372.855C453.935 415.114 457.538 436.698 469.404 472.806C478.312 497.31 477.411 510.865 467.461 534.776C407.254 485.141 401.055 432.791 396.171 335.445Z" fill="url(#paint36_linear)"/>
<path d="M571.423 209C592.969 237.97 597.707 255.06 596.786 286.622C591.19 324.728 582.912 343.562 560.663 373.467C534.977 408.375 526.177 428.291 528.383 464.924C532.284 481.294 537.071 489.337 551.44 501.045C542.423 451.937 554.122 423.917 591.406 373.467L609.083 342.726C606.923 378.401 607.327 398.202 615.231 432.645C622.453 456.796 623.563 469.734 620.611 491.822C613.873 522.032 603.293 534.972 571.423 551C507.166 524.668 486.958 500.811 481.5 438.793C485.343 391.912 498.721 367.903 533.763 324.281C561.921 282.275 571.652 257.37 571.423 209Z" fill="url(#paint37_linear)"/>
<path d="M605.5 236C661.392 265.397 677.35 294.57 680.82 367.42C678.668 407.234 669.437 423.432 641.623 443.506C629.067 403.727 632.163 369.942 636.243 311.317C634.423 277.82 628.786 260.896 605.5 236Z" fill="url(#paint38_linear)"/>
<defs>
<linearGradient id="paint0_linear" x1="247" y1="662.5" x2="383" y2="662.5" gradientUnits="userSpaceOnUse">
<stop stop-color="#0052D4"/>
<stop offset="0.5" stop-color="#4364F7"/>
<stop offset="1" stop-color="#6FB1FC"/>
</linearGradient>
<linearGradient id="paint1_linear" x1="351" y1="662.5" x2="426" y2="662.5" gradientUnits="userSpaceOnUse">
<stop stop-color="#ADD100"/>
<stop offset="1" stop-color="#7B920A"/>
</linearGradient>
<linearGradient id="paint2_linear" x1="401" y1="662.5" x2="508" y2="662.5" gradientUnits="userSpaceOnUse">
<stop stop-color="#F7971E"/>
<stop offset="1" stop-color="#FFD200"/>
</linearGradient>
<linearGradient id="paint3_linear" x1="474" y1="662.5" x2="591" y2="662.5" gradientUnits="userSpaceOnUse">
<stop stop-color="#9D50BB"/>
<stop offset="1" stop-color="#6E48AA"/>
</linearGradient>
<linearGradient id="paint4_linear" x1="546" y1="662.5" x2="663" y2="662.5" gradientUnits="userSpaceOnUse">
<stop stop-color="#FF9966"/>
<stop offset="1" stop-color="#FF5E62"/>
</linearGradient>
<linearGradient id="paint5_linear" x1="622" y1="662.5" x2="758" y2="662.5" gradientUnits="userSpaceOnUse">
<stop stop-color="#4E54C8"/>
<stop offset="1" stop-color="#8F94FB"/>
</linearGradient>
<linearGradient id="paint6_linear" x1="715" y1="662.5" x2="833" y2="662.5" gradientUnits="userSpaceOnUse">
<stop stop-color="#FFE259"/>
<stop offset="1" stop-color="#FFA751"/>
</linearGradient>
<linearGradient id="paint7_linear" x1="247" y1="662.5" x2="383" y2="662.5" gradientUnits="userSpaceOnUse">
<stop stop-color="#0052D4"/>
<stop offset="0.5" stop-color="#4364F7"/>
<stop offset="1" stop-color="#6FB1FC"/>
</linearGradient>
<linearGradient id="paint8_linear" x1="350" y1="662.5" x2="425" y2="662.5" gradientUnits="userSpaceOnUse">
<stop stop-color="#ADD100"/>
<stop offset="1" stop-color="#7B920A"/>
</linearGradient>
<linearGradient id="paint9_linear" x1="401" y1="662.5" x2="508" y2="662.5" gradientUnits="userSpaceOnUse">
<stop stop-color="#F7971E"/>
<stop offset="1" stop-color="#FFD200"/>
</linearGradient>
<linearGradient id="paint10_linear" x1="474" y1="662.5" x2="591" y2="662.5" gradientUnits="userSpaceOnUse">
<stop stop-color="#9D50BB"/>
<stop offset="1" stop-color="#6E48AA"/>
</linearGradient>
<linearGradient id="paint11_linear" x1="546" y1="662.5" x2="663" y2="662.5" gradientUnits="userSpaceOnUse">
<stop stop-color="#FF9966"/>
<stop offset="1" stop-color="#FF5E62"/>
</linearGradient>
<linearGradient id="paint12_linear" x1="622" y1="662.5" x2="758" y2="662.5" gradientUnits="userSpaceOnUse">
<stop stop-color="#4E54C8"/>
<stop offset="1" stop-color="#8F94FB"/>
</linearGradient>
<linearGradient id="paint13_linear" x1="715" y1="662.5" x2="833" y2="662.5" gradientUnits="userSpaceOnUse">
<stop stop-color="#FFE259"/>
<stop offset="1" stop-color="#FFA751"/>
</linearGradient>
<linearGradient id="paint14_linear" x1="247" y1="662.5" x2="383" y2="662.5" gradientUnits="userSpaceOnUse">
<stop stop-color="#0052D4"/>
<stop offset="0.5" stop-color="#4364F7"/>
<stop offset="1" stop-color="#6FB1FC"/>
</linearGradient>
<linearGradient id="paint15_linear" x1="350" y1="662.5" x2="425" y2="662.5" gradientUnits="userSpaceOnUse">
<stop stop-color="#ADD100"/>
<stop offset="1" stop-color="#7B920A"/>
</linearGradient>
<linearGradient id="paint16_linear" x1="401" y1="662.5" x2="508" y2="662.5" gradientUnits="userSpaceOnUse">
<stop stop-color="#F7971E"/>
<stop offset="1" stop-color="#FFD200"/>
</linearGradient>
<linearGradient id="paint17_linear" x1="474" y1="662.5" x2="591" y2="662.5" gradientUnits="userSpaceOnUse">
<stop stop-color="#9D50BB"/>
<stop offset="1" stop-color="#6E48AA"/>
</linearGradient>
<linearGradient id="paint18_linear" x1="546" y1="662.5" x2="663" y2="662.5" gradientUnits="userSpaceOnUse">
<stop stop-color="#FF9966"/>
<stop offset="1" stop-color="#FF5E62"/>
</linearGradient>
<linearGradient id="paint19_linear" x1="622" y1="662.5" x2="758" y2="662.5" gradientUnits="userSpaceOnUse">
<stop stop-color="#4E54C8"/>
<stop offset="1" stop-color="#8F94FB"/>
</linearGradient>
<linearGradient id="paint20_linear" x1="715" y1="662.5" x2="833" y2="662.5" gradientUnits="userSpaceOnUse">
<stop stop-color="#FFE259"/>
<stop offset="1" stop-color="#FFA751"/>
</linearGradient>
<linearGradient id="paint21_linear" x1="673" y1="574.5" x2="688" y2="574.5" gradientUnits="userSpaceOnUse">
<stop stop-color="#0052D4"/>
<stop offset="0.5" stop-color="#4364F7"/>
<stop offset="1" stop-color="#6FB1FC"/>
</linearGradient>
<linearGradient id="paint22_linear" x1="697" y1="574.5" x2="712" y2="574.5" gradientUnits="userSpaceOnUse">
<stop stop-color="#799F0C"/>
<stop offset="1" stop-color="#ACBB78"/>
</linearGradient>
<linearGradient id="paint23_linear" x1="721" y1="574.5" x2="736" y2="574.5" gradientUnits="userSpaceOnUse">
<stop stop-color="#FFE259"/>
<stop offset="1" stop-color="#FFA751"/>
</linearGradient>
<linearGradient id="paint24_linear" x1="745" y1="574.5" x2="760" y2="574.5" gradientUnits="userSpaceOnUse">
<stop stop-color="#DA22FF"/>
<stop offset="1" stop-color="#9733EE"/>
</linearGradient>
<linearGradient id="paint25_linear" x1="769" y1="574.5" x2="784" y2="574.5" gradientUnits="userSpaceOnUse">
<stop stop-color="#FF512F"/>
<stop offset="1" stop-color="#F09819"/>
</linearGradient>
<linearGradient id="paint26_linear" x1="794" y1="574.5" x2="809" y2="574.5" gradientUnits="userSpaceOnUse">
<stop stop-color="#4776E6"/>
<stop offset="1" stop-color="#8E54E9"/>
</linearGradient>
<linearGradient id="paint27_linear" x1="818" y1="574.5" x2="833" y2="574.5" gradientUnits="userSpaceOnUse">
<stop stop-color="#FFB347"/>
<stop offset="1" stop-color="#FFCC33"/>
</linearGradient>
<linearGradient id="paint28_linear" x1="392" y1="751.5" x2="407" y2="751.5" gradientUnits="userSpaceOnUse">
<stop stop-color="#0052D4"/>
<stop offset="0.5" stop-color="#4364F7"/>
<stop offset="1" stop-color="#6FB1FC"/>
</linearGradient>
<linearGradient id="paint29_linear" x1="368" y1="751.5" x2="383" y2="751.5" gradientUnits="userSpaceOnUse">
<stop stop-color="#799F0C"/>
<stop offset="1" stop-color="#ACBB78"/>
</linearGradient>
<linearGradient id="paint30_linear" x1="344" y1="751.5" x2="359" y2="751.5" gradientUnits="userSpaceOnUse">
<stop stop-color="#FFE259"/>
<stop offset="1" stop-color="#FFA751"/>
</linearGradient>
<linearGradient id="paint31_linear" x1="320" y1="751.5" x2="335" y2="751.5" gradientUnits="userSpaceOnUse">
<stop stop-color="#DA22FF"/>
<stop offset="1" stop-color="#9733EE"/>
</linearGradient>
<linearGradient id="paint32_linear" x1="296" y1="751.5" x2="311" y2="751.5" gradientUnits="userSpaceOnUse">
<stop stop-color="#FF512F"/>
<stop offset="1" stop-color="#F09819"/>
</linearGradient>
<linearGradient id="paint33_linear" x1="271" y1="751.5" x2="286" y2="751.5" gradientUnits="userSpaceOnUse">
<stop stop-color="#4776E6"/>
<stop offset="1" stop-color="#8E54E9"/>
</linearGradient>
<linearGradient id="paint34_linear" x1="247" y1="751.5" x2="262" y2="751.5" gradientUnits="userSpaceOnUse">
<stop stop-color="#FFB347"/>
<stop offset="1" stop-color="#FFCC33"/>
</linearGradient>
<linearGradient id="paint35_linear" x1="490" y1="754" x2="831" y2="754" gradientUnits="userSpaceOnUse">
<stop stop-color="#833AB4"/>
<stop offset="0.5" stop-color="#FD1D1D"/>
<stop offset="1" stop-color="#FCB045"/>
</linearGradient>
<linearGradient id="paint36_linear" x1="386.352" y1="377.408" x2="557.268" y2="382.765" gradientUnits="userSpaceOnUse">
<stop stop-color="#0052D4"/>
<stop offset="0.5" stop-color="#4364F7"/>
<stop offset="1" stop-color="#6FB1FC"/>
</linearGradient>
<linearGradient id="paint37_linear" x1="481.5" y1="380" x2="622.133" y2="380" gradientUnits="userSpaceOnUse">
<stop stop-color="#833AB4"/>
<stop offset="0.5" stop-color="#FD1D1D"/>
<stop offset="1" stop-color="#FCB045"/>
</linearGradient>
<linearGradient id="paint38_linear" x1="605.5" y1="339.753" x2="680.82" y2="339.753" gradientUnits="userSpaceOnUse">
<stop stop-color="#F7FF00"/>
<stop offset="1" stop-color="#DB36A4"/>
</linearGradient>
</defs>
</svg>
