<svg width="586" height="245" viewBox="0 0 586 245" fill="none" xmlns="http://www.w3.org/2000/svg">
<path d="M101 191H136L88.4 51H47.6L0 191H35L42 169H94L101 191ZM51.6 139L68 87.6L84.4 139H51.6Z" fill="url(#paint0_linear)"/>
<path d="M145 108.8V91H115V191H145V145.8C145 126 162.6 121 175 123V89C162.4 89 149 95.4 145 108.8Z" fill="url(#paint1_linear)" fill-opacity="0.85"/>
<path d="M213 193.8C232.6 193.8 249.6 183.6 258.2 168L232 153C228.8 160 221.4 164.2 212.6 164.2C199.6 164.2 190 154.8 190 141C190 127.2 199.6 117.8 212.6 117.8C221.4 117.8 228.6 122 232 129L258.2 113.8C249.6 98.4 232.4 88.2 213 88.2C182.6 88.2 160 111.2 160 141C160 170.8 182.6 193.8 213 193.8Z" fill="url(#paint2_linear)" fill-opacity="0.85"/>
<path d="M296.6 88.2C283.4 88.2 273.4 93 268 100.4V51H238V191H268V136.4C268 122.2 275.6 115.8 286.6 115.8C296.2 115.8 304 121.6 304 134V191H334V129.6C334 102.6 316.8 88.2 296.6 88.2Z" fill="url(#paint3_linear)" fill-opacity="0.85"/>
<path d="M360 193.8C390.4 193.8 412 177.8 412 150.8C412 121.2 388.2 113.8 367 107.4C345.2 100.8 341.8 96.4 341.8 90C341.8 84.4 346.8 79.4 356.8 79.4C369.6 79.4 376.2 85.6 381 95.6L408 79.8C397.8 59.2 379.8 48.2 356.8 48.2C332.6 48.2 309.8 63.8 309.8 90.8C309.8 117.6 330.2 127.6 351 133.4C372 139.2 380 142.6 380 151.2C380 156.6 376.2 162.6 361 162.6C345.2 162.6 336.6 154.8 331.6 143.2L304 159.2C311.8 179.8 330.6 193.8 360 193.8Z" fill="url(#paint4_linear)" fill-opacity="0.85"/>
<path d="M476 191H511L463.4 51H422.6L375 191H410L417 169H469L476 191ZM426.6 139L443 87.6L459.4 139H426.6Z" fill="url(#paint5_linear)" fill-opacity="0.85"/>
<path d="M533 51H480V191H512V147H533C560.6 147 582 125.6 582 99C582 72.4 560.6 51 533 51ZM533 117H512V81H533C542.8 81 550 88.8 550 99C550 109.2 542.8 117 533 117Z" fill="url(#paint6_linear)" fill-opacity="0.85"/>
<path d="M101 191H136L88.4 51H47.6L0 191H35L42 169H94L101 191ZM51.6 139L68 87.6L84.4 139H51.6Z" fill="url(#paint7_linear)"/>
<path d="M144 108.8V91H114V191H144V145.8C144 126 161.6 121 174 123V89C161.4 89 148 95.4 144 108.8Z" fill="url(#paint8_linear)" fill-opacity="0.75"/>
<path d="M213 193.8C232.6 193.8 249.6 183.6 258.2 168L232 153C228.8 160 221.4 164.2 212.6 164.2C199.6 164.2 190 154.8 190 141C190 127.2 199.6 117.8 212.6 117.8C221.4 117.8 228.6 122 232 129L258.2 113.8C249.6 98.4 232.4 88.2 213 88.2C182.6 88.2 160 111.2 160 141C160 170.8 182.6 193.8 213 193.8Z" fill="url(#paint9_linear)" fill-opacity="0.75"/>
<path d="M296.6 88.2C283.4 88.2 273.4 93 268 100.4V51H238V191H268V136.4C268 122.2 275.6 115.8 286.6 115.8C296.2 115.8 304 121.6 304 134V191H334V129.6C334 102.6 316.8 88.2 296.6 88.2Z" fill="url(#paint10_linear)" fill-opacity="0.75"/>
<path d="M360 193.8C390.4 193.8 412 177.8 412 150.8C412 121.2 388.2 113.8 367 107.4C345.2 100.8 341.8 96.4 341.8 90C341.8 84.4 346.8 79.4 356.8 79.4C369.6 79.4 376.2 85.6 381 95.6L408 79.8C397.8 59.2 379.8 48.2 356.8 48.2C332.6 48.2 309.8 63.8 309.8 90.8C309.8 117.6 330.2 127.6 351 133.4C372 139.2 380 142.6 380 151.2C380 156.6 376.2 162.6 361 162.6C345.2 162.6 336.6 154.8 331.6 143.2L304 159.2C311.8 179.8 330.6 193.8 360 193.8Z" fill="url(#paint11_linear)" fill-opacity="0.75"/>
<path d="M476 191H511L463.4 51H422.6L375 191H410L417 169H469L476 191ZM426.6 139L443 87.6L459.4 139H426.6Z" fill="url(#paint12_linear)" fill-opacity="0.75"/>
<path d="M533 51H480V191H512V147H533C560.6 147 582 125.6 582 99C582 72.4 560.6 51 533 51ZM533 117H512V81H533C542.8 81 550 88.8 550 99C550 109.2 542.8 117 533 117Z" fill="url(#paint13_linear)" fill-opacity="0.75"/>
<path d="M101 191H136L88.4 51H47.6L0 191H35L42 169H94L101 191ZM51.6 139L68 87.6L84.4 139H51.6Z" fill="url(#paint14_linear)"/>
<path d="M144 108.8V91H114V191H144V145.8C144 126 161.6 121 174 123V89C161.4 89 148 95.4 144 108.8Z" fill="url(#paint15_linear)" fill-opacity="0.5"/>
<path d="M213 193.8C232.6 193.8 249.6 183.6 258.2 168L232 153C228.8 160 221.4 164.2 212.6 164.2C199.6 164.2 190 154.8 190 141C190 127.2 199.6 117.8 212.6 117.8C221.4 117.8 228.6 122 232 129L258.2 113.8C249.6 98.4 232.4 88.2 213 88.2C182.6 88.2 160 111.2 160 141C160 170.8 182.6 193.8 213 193.8Z" fill="url(#paint16_linear)" fill-opacity="0.5"/>
<path d="M296.6 88.2C283.4 88.2 273.4 93 268 100.4V51H238V191H268V136.4C268 122.2 275.6 115.8 286.6 115.8C296.2 115.8 304 121.6 304 134V191H334V129.6C334 102.6 316.8 88.2 296.6 88.2Z" fill="url(#paint17_linear)" fill-opacity="0.7"/>
<path d="M360 193.8C390.4 193.8 412 177.8 412 150.8C412 121.2 388.2 113.8 367 107.4C345.2 100.8 341.8 96.4 341.8 90C341.8 84.4 346.8 79.4 356.8 79.4C369.6 79.4 376.2 85.6 381 95.6L408 79.8C397.8 59.2 379.8 48.2 356.8 48.2C332.6 48.2 309.8 63.8 309.8 90.8C309.8 117.6 330.2 127.6 351 133.4C372 139.2 380 142.6 380 151.2C380 156.6 376.2 162.6 361 162.6C345.2 162.6 336.6 154.8 331.6 143.2L304 159.2C311.8 179.8 330.6 193.8 360 193.8Z" fill="url(#paint18_linear)" fill-opacity="0.7"/>
<path d="M476 191H511L463.4 51H422.6L375 191H410L417 169H469L476 191ZM426.6 139L443 87.6L459.4 139H426.6Z" fill="url(#paint19_linear)" fill-opacity="0.5"/>
<path d="M533 51H480V191H512V147H533C560.6 147 582 125.6 582 99C582 72.4 560.6 51 533 51ZM533 117H512V81H533C542.8 81 550 88.8 550 99C550 109.2 542.8 117 533 117Z" fill="url(#paint20_linear)" fill-opacity="0.5"/>
<circle cx="433.5" cy="34.5" r="7.5" fill="url(#paint21_linear)"/>
<circle cx="457.5" cy="34.5" r="7.5" fill="url(#paint22_linear)"/>
<circle cx="481.5" cy="34.5" r="7.5" fill="url(#paint23_linear)"/>
<circle cx="505.5" cy="34.5" r="7.5" fill="url(#paint24_linear)"/>
<circle cx="529.5" cy="34.5" r="7.5" fill="url(#paint25_linear)"/>
<circle cx="554.5" cy="34.5" r="7.5" fill="url(#paint26_linear)"/>
<circle cx="578.5" cy="34.5" r="7.5" fill="url(#paint27_linear)"/>
<circle cx="152.5" cy="211.5" r="7.5" transform="rotate(180 152.5 211.5)" fill="url(#paint28_linear)"/>
<circle cx="128.5" cy="211.5" r="7.5" transform="rotate(180 128.5 211.5)" fill="url(#paint29_linear)"/>
<circle cx="104.5" cy="211.5" r="7.5" transform="rotate(180 104.5 211.5)" fill="url(#paint30_linear)"/>
<circle cx="80.5" cy="211.5" r="7.5" transform="rotate(180 80.5 211.5)" fill="url(#paint31_linear)"/>
<circle cx="56.5" cy="211.5" r="7.5" transform="rotate(180 56.5 211.5)" fill="url(#paint32_linear)"/>
<circle cx="31.5" cy="211.5" r="7.5" transform="rotate(180 31.5 211.5)" fill="url(#paint33_linear)"/>
<circle cx="7.5" cy="211.5" r="7.5" transform="rotate(180 7.5 211.5)" fill="url(#paint34_linear)"/>
<path d="M252.5 211.74C253.14 212.047 253.647 212.487 254.02 213.06C254.407 213.633 254.6 214.293 254.6 215.04C254.6 216.16 254.207 217.1 253.42 217.86C252.633 218.62 251.673 219 250.54 219H244.5V205H250.1C251.193 205 252.12 205.367 252.88 206.1C253.64 206.833 254.02 207.74 254.02 208.82C254.02 210.06 253.513 211.033 252.5 211.74ZM250.1 206.74H246.36V211.02H250.1C250.687 211.02 251.18 210.813 251.58 210.4C251.98 209.987 252.18 209.48 252.18 208.88C252.18 208.293 251.973 207.793 251.56 207.38C251.16 206.953 250.673 206.74 250.1 206.74ZM250.54 217.26C251.167 217.26 251.693 217.04 252.12 216.6C252.547 216.16 252.76 215.62 252.76 214.98C252.76 214.353 252.54 213.82 252.1 213.38C251.673 212.94 251.153 212.72 250.54 212.72H246.36V217.26H250.54ZM271.105 219L267.965 213.64H264.665V219H262.805V205H268.405C269.605 205 270.631 205.427 271.485 206.28C272.338 207.12 272.765 208.14 272.765 209.34C272.765 210.247 272.491 211.073 271.945 211.82C271.411 212.567 270.718 213.093 269.865 213.4L273.165 219H271.105ZM264.665 206.74V211.96H268.405C269.098 211.96 269.685 211.707 270.165 211.2C270.658 210.68 270.905 210.06 270.905 209.34C270.905 208.62 270.658 208.007 270.165 207.5C269.685 206.993 269.098 206.74 268.405 206.74H264.665ZM281.031 205H282.891V219H281.031V205ZM305.395 212.06V212.9C305.395 214.727 304.768 216.247 303.515 217.46C302.261 218.66 300.601 219.26 298.535 219.26C296.401 219.26 294.635 218.56 293.235 217.16C291.848 215.747 291.155 214.027 291.155 212C291.155 209.973 291.848 208.26 293.235 206.86C294.635 205.447 296.388 204.74 298.495 204.74C299.788 204.74 300.975 205.053 302.055 205.68C303.135 206.293 303.968 207.107 304.555 208.12L302.955 209.06C302.555 208.3 301.948 207.693 301.135 207.24C300.335 206.773 299.448 206.54 298.475 206.54C296.875 206.54 295.561 207.067 294.535 208.12C293.508 209.16 292.995 210.453 292.995 212C292.995 213.547 293.508 214.84 294.535 215.88C295.575 216.92 296.915 217.44 298.555 217.44C299.955 217.44 301.088 217.1 301.955 216.42C302.821 215.727 303.348 214.833 303.535 213.74H298.395V212.06H305.395ZM322.316 205H324.156V219H322.316V212.7H315.516V219H313.656V205H315.516V210.94H322.316V205ZM342.112 205V206.76H337.972V219H336.132V206.76H332.012V205H342.112ZM351.813 217.24H358.313V219H349.953V205H358.213V206.76H351.813V211.06H357.713V212.8H351.813V217.24ZM375.259 205H377.119V219H375.619L368.419 208.54V219H366.559V205H368.059L375.259 215.44V205ZM407.533 205L402.573 213.34V219H400.713V213.32L395.773 205H397.853L401.653 211.56L405.453 205H407.533ZM425.808 217.14C424.408 218.553 422.695 219.26 420.668 219.26C418.641 219.26 416.928 218.553 415.528 217.14C414.128 215.727 413.428 214.013 413.428 212C413.428 209.973 414.128 208.26 415.528 206.86C416.928 205.447 418.641 204.74 420.668 204.74C422.695 204.74 424.408 205.447 425.808 206.86C427.221 208.26 427.928 209.973 427.928 212C427.928 214.013 427.221 215.727 425.808 217.14ZM416.808 215.88C417.848 216.92 419.135 217.44 420.668 217.44C422.201 217.44 423.481 216.92 424.508 215.88C425.548 214.827 426.068 213.533 426.068 212C426.068 210.453 425.548 209.16 424.508 208.12C423.481 207.067 422.201 206.54 420.668 206.54C419.135 206.54 417.848 207.067 416.808 208.12C415.781 209.16 415.268 210.453 415.268 212C415.268 213.533 415.781 214.827 416.808 215.88ZM444.926 217.92C443.953 218.813 442.693 219.26 441.146 219.26C439.6 219.26 438.333 218.813 437.346 217.92C436.373 217.013 435.886 215.807 435.886 214.3V205H437.746V214.22C437.746 215.207 438.04 215.993 438.626 216.58C439.213 217.153 440.053 217.44 441.146 217.44C442.24 217.44 443.08 217.153 443.666 216.58C444.253 215.993 444.546 215.207 444.546 214.22V205H446.386V214.3C446.386 215.807 445.9 217.013 444.926 217.92ZM463.53 219L460.39 213.64H457.09V219H455.23V205H460.83C462.03 205 463.057 205.427 463.91 206.28C464.764 207.12 465.19 208.14 465.19 209.34C465.19 210.247 464.917 211.073 464.37 211.82C463.837 212.567 463.144 213.093 462.29 213.4L465.59 219H463.53ZM457.09 206.74V211.96H460.83C461.524 211.96 462.11 211.707 462.59 211.2C463.084 210.68 463.33 210.06 463.33 209.34C463.33 208.62 463.084 208.007 462.59 207.5C462.11 206.993 461.524 206.74 460.83 206.74H457.09ZM492.517 206.76H486.317V211.3H492.257V213.06H486.317V219H484.457V205H492.517V206.76ZM509.63 217.92C508.656 218.813 507.396 219.26 505.85 219.26C504.303 219.26 503.036 218.813 502.05 217.92C501.076 217.013 500.59 215.807 500.59 214.3V205H502.45V214.22C502.45 215.207 502.743 215.993 503.33 216.58C503.916 217.153 504.756 217.44 505.85 217.44C506.943 217.44 507.783 217.153 508.37 216.58C508.956 215.993 509.25 215.207 509.25 214.22V205H511.09V214.3C511.09 215.807 510.603 217.013 509.63 217.92ZM528.894 205V206.76H524.754V219H522.914V206.76H518.794V205H528.894ZM545.594 217.92C544.621 218.813 543.361 219.26 541.814 219.26C540.268 219.26 539.001 218.813 538.014 217.92C537.041 217.013 536.554 215.807 536.554 214.3V205H538.414V214.22C538.414 215.207 538.708 215.993 539.294 216.58C539.881 217.153 540.721 217.44 541.814 217.44C542.908 217.44 543.748 217.153 544.334 216.58C544.921 215.993 545.214 215.207 545.214 214.22V205H547.054V214.3C547.054 215.807 546.568 217.013 545.594 217.92ZM564.198 219L561.058 213.64H557.758V219H555.898V205H561.498C562.698 205 563.725 205.427 564.578 206.28C565.432 207.12 565.858 208.14 565.858 209.34C565.858 210.247 565.585 211.073 565.038 211.82C564.505 212.567 563.812 213.093 562.958 213.4L566.258 219H564.198ZM557.758 206.74V211.96H561.498C562.192 211.96 562.778 211.707 563.258 211.2C563.752 210.68 563.998 210.06 563.998 209.34C563.998 208.62 563.752 208.007 563.258 207.5C562.778 206.993 562.192 206.74 561.498 206.74H557.758ZM575.985 217.24H582.485V219H574.125V205H582.385V206.76H575.985V211.06H581.885V212.8H575.985V217.24Z" fill="url(#paint35_linear)"/>
<defs>
<linearGradient id="paint0_linear" x1="0" y1="122.5" x2="136" y2="122.5" gradientUnits="userSpaceOnUse">
<stop stop-color="#0052D4"/>
<stop offset="0.5" stop-color="#4364F7"/>
<stop offset="1" stop-color="#6FB1FC"/>
</linearGradient>
<linearGradient id="paint1_linear" x1="104" y1="122.5" x2="179" y2="122.5" gradientUnits="userSpaceOnUse">
<stop stop-color="#ADD100"/>
<stop offset="1" stop-color="#7B920A"/>
</linearGradient>
<linearGradient id="paint2_linear" x1="154" y1="122.5" x2="261" y2="122.5" gradientUnits="userSpaceOnUse">
<stop stop-color="#F7971E"/>
<stop offset="1" stop-color="#FFD200"/>
</linearGradient>
<linearGradient id="paint3_linear" x1="227" y1="122.5" x2="344" y2="122.5" gradientUnits="userSpaceOnUse">
<stop stop-color="#9D50BB"/>
<stop offset="1" stop-color="#6E48AA"/>
</linearGradient>
<linearGradient id="paint4_linear" x1="299" y1="122.5" x2="416" y2="122.5" gradientUnits="userSpaceOnUse">
<stop stop-color="#FF9966"/>
<stop offset="1" stop-color="#FF5E62"/>
</linearGradient>
<linearGradient id="paint5_linear" x1="375" y1="122.5" x2="511" y2="122.5" gradientUnits="userSpaceOnUse">
<stop stop-color="#4E54C8"/>
<stop offset="1" stop-color="#8F94FB"/>
</linearGradient>
<linearGradient id="paint6_linear" x1="468" y1="122.5" x2="586" y2="122.5" gradientUnits="userSpaceOnUse">
<stop stop-color="#FFE259"/>
<stop offset="1" stop-color="#FFA751"/>
</linearGradient>
<linearGradient id="paint7_linear" x1="0" y1="122.5" x2="136" y2="122.5" gradientUnits="userSpaceOnUse">
<stop stop-color="#0052D4"/>
<stop offset="0.5" stop-color="#4364F7"/>
<stop offset="1" stop-color="#6FB1FC"/>
</linearGradient>
<linearGradient id="paint8_linear" x1="103" y1="122.5" x2="178" y2="122.5" gradientUnits="userSpaceOnUse">
<stop stop-color="#ADD100"/>
<stop offset="1" stop-color="#7B920A"/>
</linearGradient>
<linearGradient id="paint9_linear" x1="154" y1="122.5" x2="261" y2="122.5" gradientUnits="userSpaceOnUse">
<stop stop-color="#F7971E"/>
<stop offset="1" stop-color="#FFD200"/>
</linearGradient>
<linearGradient id="paint10_linear" x1="227" y1="122.5" x2="344" y2="122.5" gradientUnits="userSpaceOnUse">
<stop stop-color="#9D50BB"/>
<stop offset="1" stop-color="#6E48AA"/>
</linearGradient>
<linearGradient id="paint11_linear" x1="299" y1="122.5" x2="416" y2="122.5" gradientUnits="userSpaceOnUse">
<stop stop-color="#FF9966"/>
<stop offset="1" stop-color="#FF5E62"/>
</linearGradient>
<linearGradient id="paint12_linear" x1="375" y1="122.5" x2="511" y2="122.5" gradientUnits="userSpaceOnUse">
<stop stop-color="#4E54C8"/>
<stop offset="1" stop-color="#8F94FB"/>
</linearGradient>
<linearGradient id="paint13_linear" x1="468" y1="122.5" x2="586" y2="122.5" gradientUnits="userSpaceOnUse">
<stop stop-color="#FFE259"/>
<stop offset="1" stop-color="#FFA751"/>
</linearGradient>
<linearGradient id="paint14_linear" x1="0" y1="122.5" x2="136" y2="122.5" gradientUnits="userSpaceOnUse">
<stop stop-color="#0052D4"/>
<stop offset="0.5" stop-color="#4364F7"/>
<stop offset="1" stop-color="#6FB1FC"/>
</linearGradient>
<linearGradient id="paint15_linear" x1="103" y1="122.5" x2="178" y2="122.5" gradientUnits="userSpaceOnUse">
<stop stop-color="#ADD100"/>
<stop offset="1" stop-color="#7B920A"/>
</linearGradient>
<linearGradient id="paint16_linear" x1="154" y1="122.5" x2="261" y2="122.5" gradientUnits="userSpaceOnUse">
<stop stop-color="#F7971E"/>
<stop offset="1" stop-color="#FFD200"/>
</linearGradient>
<linearGradient id="paint17_linear" x1="227" y1="122.5" x2="344" y2="122.5" gradientUnits="userSpaceOnUse">
<stop stop-color="#9D50BB"/>
<stop offset="1" stop-color="#6E48AA"/>
</linearGradient>
<linearGradient id="paint18_linear" x1="299" y1="122.5" x2="416" y2="122.5" gradientUnits="userSpaceOnUse">
<stop stop-color="#FF9966"/>
<stop offset="1" stop-color="#FF5E62"/>
</linearGradient>
<linearGradient id="paint19_linear" x1="375" y1="122.5" x2="511" y2="122.5" gradientUnits="userSpaceOnUse">
<stop stop-color="#4E54C8"/>
<stop offset="1" stop-color="#8F94FB"/>
</linearGradient>
<linearGradient id="paint20_linear" x1="468" y1="122.5" x2="586" y2="122.5" gradientUnits="userSpaceOnUse">
<stop stop-color="#FFE259"/>
<stop offset="1" stop-color="#FFA751"/>
</linearGradient>
<linearGradient id="paint21_linear" x1="426" y1="34.5" x2="441" y2="34.5" gradientUnits="userSpaceOnUse">
<stop stop-color="#0052D4"/>
<stop offset="0.5" stop-color="#4364F7"/>
<stop offset="1" stop-color="#6FB1FC"/>
</linearGradient>
<linearGradient id="paint22_linear" x1="450" y1="34.5" x2="465" y2="34.5" gradientUnits="userSpaceOnUse">
<stop stop-color="#799F0C"/>
<stop offset="1" stop-color="#ACBB78"/>
</linearGradient>
<linearGradient id="paint23_linear" x1="474" y1="34.5" x2="489" y2="34.5" gradientUnits="userSpaceOnUse">
<stop stop-color="#FFE259"/>
<stop offset="1" stop-color="#FFA751"/>
</linearGradient>
<linearGradient id="paint24_linear" x1="498" y1="34.5" x2="513" y2="34.5" gradientUnits="userSpaceOnUse">
<stop stop-color="#DA22FF"/>
<stop offset="1" stop-color="#9733EE"/>
</linearGradient>
<linearGradient id="paint25_linear" x1="522" y1="34.5" x2="537" y2="34.5" gradientUnits="userSpaceOnUse">
<stop stop-color="#FF512F"/>
<stop offset="1" stop-color="#F09819"/>
</linearGradient>
<linearGradient id="paint26_linear" x1="547" y1="34.5" x2="562" y2="34.5" gradientUnits="userSpaceOnUse">
<stop stop-color="#4776E6"/>
<stop offset="1" stop-color="#8E54E9"/>
</linearGradient>
<linearGradient id="paint27_linear" x1="571" y1="34.5" x2="586" y2="34.5" gradientUnits="userSpaceOnUse">
<stop stop-color="#FFB347"/>
<stop offset="1" stop-color="#FFCC33"/>
</linearGradient>
<linearGradient id="paint28_linear" x1="145" y1="211.5" x2="160" y2="211.5" gradientUnits="userSpaceOnUse">
<stop stop-color="#0052D4"/>
<stop offset="0.5" stop-color="#4364F7"/>
<stop offset="1" stop-color="#6FB1FC"/>
</linearGradient>
<linearGradient id="paint29_linear" x1="121" y1="211.5" x2="136" y2="211.5" gradientUnits="userSpaceOnUse">
<stop stop-color="#799F0C"/>
<stop offset="1" stop-color="#ACBB78"/>
</linearGradient>
<linearGradient id="paint30_linear" x1="97" y1="211.5" x2="112" y2="211.5" gradientUnits="userSpaceOnUse">
<stop stop-color="#FFE259"/>
<stop offset="1" stop-color="#FFA751"/>
</linearGradient>
<linearGradient id="paint31_linear" x1="73" y1="211.5" x2="88" y2="211.5" gradientUnits="userSpaceOnUse">
<stop stop-color="#DA22FF"/>
<stop offset="1" stop-color="#9733EE"/>
</linearGradient>
<linearGradient id="paint32_linear" x1="49" y1="211.5" x2="64" y2="211.5" gradientUnits="userSpaceOnUse">
<stop stop-color="#FF512F"/>
<stop offset="1" stop-color="#F09819"/>
</linearGradient>
<linearGradient id="paint33_linear" x1="24" y1="211.5" x2="39" y2="211.5" gradientUnits="userSpaceOnUse">
<stop stop-color="#4776E6"/>
<stop offset="1" stop-color="#8E54E9"/>
</linearGradient>
<linearGradient id="paint34_linear" x1="0" y1="211.5" x2="15" y2="211.5" gradientUnits="userSpaceOnUse">
<stop stop-color="#FFB347"/>
<stop offset="1" stop-color="#FFCC33"/>
</linearGradient>
<linearGradient id="paint35_linear" x1="243" y1="214" x2="584" y2="214" gradientUnits="userSpaceOnUse">
<stop stop-color="#833AB4"/>
<stop offset="0.5" stop-color="#FD1D1D"/>
<stop offset="1" stop-color="#FCB045"/>
</linearGradient>
</defs>
</svg>
