<svg width="1080" height="1080" viewBox="0 0 1080 1080" fill="none" xmlns="http://www.w3.org/2000/svg">
<path d="M396.171 442.445L427.714 489.456C428.759 403.548 466.538 373.905 562.116 335.091C511.484 393.753 491.303 425.538 472.536 479.855C453.935 522.114 457.538 543.698 469.404 579.806C478.312 604.31 477.411 617.865 467.461 641.776C407.254 592.141 401.055 539.791 396.171 442.445Z" fill="url(#paint0_linear)"/>
<path d="M571.423 316C592.969 344.97 597.707 362.06 596.786 393.622C591.19 431.728 582.912 450.562 560.663 480.467C534.977 515.375 526.177 535.291 528.383 571.924C532.284 588.294 537.071 596.337 551.44 608.045C542.423 558.937 554.122 530.917 591.406 480.467L609.083 449.726C606.923 485.401 607.327 505.202 615.231 539.645C622.453 563.796 623.563 576.734 620.611 598.822C613.873 629.032 603.293 641.972 571.423 658C507.166 631.668 486.958 607.811 481.5 545.793C485.343 498.912 498.721 474.903 533.763 431.281C561.921 389.275 571.652 364.37 571.423 316Z" fill="url(#paint1_linear)"/>
<path d="M605.5 343C661.392 372.397 677.35 401.57 680.82 474.42C678.668 514.234 669.437 530.432 641.623 550.506C629.067 510.727 632.163 476.942 636.243 418.317C634.423 384.82 628.786 367.896 605.5 343Z" fill="url(#paint2_linear)"/>
<path d="M356.25 694.11C357.21 694.57 357.97 695.23 358.53 696.09C359.11 696.95 359.4 697.94 359.4 699.06C359.4 700.74 358.81 702.15 357.63 703.29C356.45 704.43 355.01 705 353.31 705H344.25V684H352.65C354.29 684 355.68 684.55 356.82 685.65C357.96 686.75 358.53 688.11 358.53 689.73C358.53 691.59 357.77 693.05 356.25 694.11ZM352.65 686.61H347.04V693.03H352.65C353.53 693.03 354.27 692.72 354.87 692.1C355.47 691.48 355.77 690.72 355.77 689.82C355.77 688.94 355.46 688.19 354.84 687.57C354.24 686.93 353.51 686.61 352.65 686.61ZM353.31 702.39C354.25 702.39 355.04 702.06 355.68 701.4C356.32 700.74 356.64 699.93 356.64 698.97C356.64 698.03 356.31 697.23 355.65 696.57C355.01 695.91 354.23 695.58 353.31 695.58H347.04V702.39H353.31ZM378.157 705L373.447 696.96H368.497V705H365.707V684H374.107C375.907 684 377.447 684.64 378.727 685.92C380.007 687.18 380.647 688.71 380.647 690.51C380.647 691.87 380.237 693.11 379.417 694.23C378.617 695.35 377.577 696.14 376.297 696.6L381.247 705H378.157ZM368.497 686.61V694.44H374.107C375.147 694.44 376.027 694.06 376.747 693.3C377.487 692.52 377.857 691.59 377.857 690.51C377.857 689.43 377.487 688.51 376.747 687.75C376.027 686.99 375.147 686.61 374.107 686.61H368.497ZM387.047 684H389.837V705H387.047V684ZM417.592 694.59V695.85C417.592 698.59 416.652 700.87 414.772 702.69C412.892 704.49 410.402 705.39 407.302 705.39C404.102 705.39 401.452 704.34 399.352 702.24C397.272 700.12 396.232 697.54 396.232 694.5C396.232 691.46 397.272 688.89 399.352 686.79C401.452 684.67 404.082 683.61 407.242 683.61C409.182 683.61 410.962 684.08 412.582 685.02C414.202 685.94 415.452 687.16 416.332 688.68L413.932 690.09C413.332 688.95 412.422 688.04 411.202 687.36C410.002 686.66 408.672 686.31 407.212 686.31C404.812 686.31 402.842 687.1 401.302 688.68C399.762 690.24 398.992 692.18 398.992 694.5C398.992 696.82 399.762 698.76 401.302 700.32C402.862 701.88 404.872 702.66 407.332 702.66C409.432 702.66 411.132 702.15 412.432 701.13C413.732 700.09 414.522 698.75 414.802 697.11H407.092V694.59H417.592ZM436.974 684H439.734V705H436.974V695.55H426.774V705H423.984V684H426.774V692.91H436.974V684ZM460.669 684V686.64H454.459V705H451.699V686.64H445.519V684H460.669ZM469.22 702.36H478.97V705H466.43V684H478.82V686.64H469.22V693.09H478.07V695.7H469.22V702.36ZM498.388 684H501.178V705H498.928L488.128 689.31V705H485.338V684H487.588L498.388 699.66V684ZM534.8 684L527.36 696.51V705H524.57V696.48L517.16 684H520.28L525.98 693.84L531.68 684H534.8ZM556.212 702.21C554.112 704.33 551.542 705.39 548.502 705.39C545.462 705.39 542.892 704.33 540.792 702.21C538.692 700.09 537.642 697.52 537.642 694.5C537.642 691.46 538.692 688.89 540.792 686.79C542.892 684.67 545.462 683.61 548.502 683.61C551.542 683.61 554.112 684.67 556.212 686.79C558.332 688.89 559.392 691.46 559.392 694.5C559.392 697.52 558.332 700.09 556.212 702.21ZM542.712 700.32C544.272 701.88 546.202 702.66 548.502 702.66C550.802 702.66 552.722 701.88 554.262 700.32C555.822 698.74 556.602 696.8 556.602 694.5C556.602 692.18 555.822 690.24 554.262 688.68C552.722 687.1 550.802 686.31 548.502 686.31C546.202 686.31 544.272 687.1 542.712 688.68C541.172 690.24 540.402 692.18 540.402 694.5C540.402 696.8 541.172 698.74 542.712 700.32ZM578.89 703.38C577.43 704.72 575.54 705.39 573.22 705.39C570.9 705.39 569 704.72 567.52 703.38C566.06 702.02 565.33 700.21 565.33 697.95V684H568.12V697.83C568.12 699.31 568.56 700.49 569.44 701.37C570.32 702.23 571.58 702.66 573.22 702.66C574.86 702.66 576.12 702.23 577 701.37C577.88 700.49 578.32 699.31 578.32 697.83V684H581.08V697.95C581.08 700.21 580.35 702.02 578.89 703.38ZM600.796 705L596.086 696.96H591.136V705H588.346V684H596.746C598.546 684 600.086 684.64 601.366 685.92C602.646 687.18 603.286 688.71 603.286 690.51C603.286 691.87 602.876 693.11 602.056 694.23C601.256 695.35 600.216 696.14 598.936 696.6L603.886 705H600.796ZM591.136 686.61V694.44H596.746C597.786 694.44 598.666 694.06 599.386 693.3C600.126 692.52 600.496 691.59 600.496 690.51C600.496 689.43 600.126 688.51 599.386 687.75C598.666 686.99 597.786 686.61 596.746 686.61H591.136ZM632.276 686.64H622.976V693.45H631.886V696.09H622.976V705H620.186V684H632.276V686.64ZM651.944 703.38C650.484 704.72 648.594 705.39 646.274 705.39C643.954 705.39 642.054 704.72 640.574 703.38C639.114 702.02 638.384 700.21 638.384 697.95V684H641.174V697.83C641.174 699.31 641.614 700.49 642.494 701.37C643.374 702.23 644.634 702.66 646.274 702.66C647.914 702.66 649.174 702.23 650.054 701.37C650.934 700.49 651.374 699.31 651.374 697.83V684H654.134V697.95C654.134 700.21 653.404 702.02 651.944 703.38ZM674.84 684V686.64H668.63V705H665.87V686.64H659.69V684H674.84ZM693.892 703.38C692.432 704.72 690.542 705.39 688.222 705.39C685.902 705.39 684.002 704.72 682.522 703.38C681.062 702.02 680.332 700.21 680.332 697.95V684H683.122V697.83C683.122 699.31 683.562 700.49 684.442 701.37C685.322 702.23 686.582 702.66 688.222 702.66C689.862 702.66 691.122 702.23 692.002 701.37C692.882 700.49 693.322 699.31 693.322 697.83V684H696.082V697.95C696.082 700.21 695.352 702.02 693.892 703.38ZM715.798 705L711.088 696.96H706.138V705H703.348V684H711.748C713.548 684 715.088 684.64 716.368 685.92C717.648 687.18 718.288 688.71 718.288 690.51C718.288 691.87 717.878 693.11 717.058 694.23C716.258 695.35 715.218 696.14 713.938 696.6L718.888 705H715.798ZM706.138 686.61V694.44H711.748C712.788 694.44 713.668 694.06 714.388 693.3C715.128 692.52 715.498 691.59 715.498 690.51C715.498 689.43 715.128 688.51 714.388 687.75C713.668 686.99 712.788 686.61 711.748 686.61H706.138ZM727.478 702.36H737.228V705H724.688V684H737.078V686.64H727.478V693.09H736.328V695.7H727.478V702.36Z" fill="url(#paint3_linear)"/>
<defs>
<linearGradient id="paint0_linear" x1="386.352" y1="484.408" x2="557.268" y2="489.765" gradientUnits="userSpaceOnUse">
<stop stop-color="#0052D4"/>
<stop offset="0.5" stop-color="#4364F7"/>
<stop offset="1" stop-color="#6FB1FC"/>
</linearGradient>
<linearGradient id="paint1_linear" x1="481.5" y1="487" x2="622.133" y2="487" gradientUnits="userSpaceOnUse">
<stop stop-color="#833AB4"/>
<stop offset="0.5" stop-color="#FD1D1D"/>
<stop offset="1" stop-color="#FCB045"/>
</linearGradient>
<linearGradient id="paint2_linear" x1="605.5" y1="446.753" x2="680.82" y2="446.753" gradientUnits="userSpaceOnUse">
<stop stop-color="#F7FF00"/>
<stop offset="1" stop-color="#DB36A4"/>
</linearGradient>
<linearGradient id="paint3_linear" x1="342" y1="697" x2="739" y2="697" gradientUnits="userSpaceOnUse">
<stop stop-color="#833AB4"/>
<stop offset="0.5" stop-color="#FD1D1D"/>
<stop offset="1" stop-color="#FCB045"/>
</linearGradient>
</defs>
</svg>
