<?xml version="1.0"?>
<svg xmlns="http://www.w3.org/2000/svg" width="512" height="512" viewBox="0 0 128 128"><g><path d="M31.513,16.7h5.03a1.75,1.75,0,0,0,0-3.5h-5.03a1.75,1.75,0,0,0,0,3.5Z"/><path d="M98.237,14.947a1.75,1.75,0,0,0-1.75-1.75h-5.03a1.75,1.75,0,0,0,0,3.5h5.03A1.749,1.749,0,0,0,98.237,14.947Z"/><path d="M123.938,41.119a64.524,64.524,0,0,0-12.661-20.663l.993-.171a11.347,11.347,0,0,0,9.442-11.206,1.749,1.749,0,0,0-1.7-1.749l-13.179-.406L103.8,5.147A18.122,18.122,0,0,0,87.068,4.3L70.9.459A1.749,1.749,0,0,0,68.79,1.778L66.275,12.987a1.748,1.748,0,0,0,.867,1.918L96.41,30.944a46.386,46.386,0,0,1,7.335,9.474h0a45.89,45.89,0,0,1,6.283,23.157c0,1.024-.039,2.078-.118,3.221h0a45.679,45.679,0,0,1-9.625,25.041A46.322,46.322,0,0,1,83.023,105.45a1.744,1.744,0,0,0-1.417-.73H46.394a1.743,1.743,0,0,0-1.417.73A46.322,46.322,0,0,1,27.714,91.838,45.679,45.679,0,0,1,18.089,66.8h0c-.079-1.143-.118-2.2-.118-3.221a45.89,45.89,0,0,1,6.283-23.157h0a46.386,46.386,0,0,1,7.335-9.474L60.858,14.905a1.75,1.75,0,0,0,.867-1.918L59.21,1.778A1.749,1.749,0,0,0,57.1.459L40.932,4.3A18.129,18.129,0,0,0,24.2,5.147L21.163,6.924,7.984,7.33a1.749,1.749,0,0,0-1.7,1.749,11.347,11.347,0,0,0,9.441,11.206l.994.171A64.527,64.527,0,0,0,4.061,41.119,63.747,63.747,0,0,0,0,63.576,64.586,64.586,0,0,0,.939,74.525a64.062,64.062,0,0,0,43.705,50.046v1.267a1.75,1.75,0,0,0,1.75,1.75H81.606a1.75,1.75,0,0,0,1.75-1.75v-1.267a64.013,64.013,0,0,0,40.582-83.452ZM71.817,4.274,86.861,7.847a1.753,1.753,0,0,0,1.187-.138,14.637,14.637,0,0,1,13.985.459l3.422,2a1.753,1.753,0,0,0,.83.238l11.745.362a7.851,7.851,0,0,1-6.353,6.066l-4.238.729a1.91,1.91,0,0,0-.94.488l-9.321,9.32-27.2-14.9Zm35.909,17.5a61.125,61.125,0,0,1,11.831,17.84l-13.234-1.707a49.964,49.964,0,0,0-6.373-8.357Zm.687,19.932,12.608,1.626A60.248,60.248,0,0,1,124.5,63.576a60.934,60.934,0,0,1-.522,7.942L113.47,65.9c.039-.8.059-1.571.059-2.327A49.374,49.374,0,0,0,108.413,41.707ZM71.332,108.22V114.4H56.667V108.22ZM21.677,37.908,8.442,39.615a61.148,61.148,0,0,1,11.832-17.84l7.776,7.776A49.911,49.911,0,0,0,21.677,37.908ZM9.97,10.77l11.745-.362a1.753,1.753,0,0,0,.83-.238l3.423-2a14.638,14.638,0,0,1,13.984-.459,1.753,1.753,0,0,0,1.187.138L56.183,4.274l1.838,8.2-27.2,14.9L21.5,18.053a1.919,1.919,0,0,0-.941-.488l-4.237-.729A7.851,7.851,0,0,1,9.97,10.77ZM6.979,43.333l12.608-1.626a49.374,49.374,0,0,0-5.116,21.869c0,.756.02,1.525.059,2.327L4.021,71.518A61.108,61.108,0,0,1,3.5,63.576,60.248,60.248,0,0,1,6.979,43.333Zm3.029,28.955,4.846-2.59A49.139,49.139,0,0,0,24.28,93.109l-5.4,10.759a60.035,60.035,0,0,1-14.269-28.7Zm11.44,34.275,4.671-9.312L26.7,96.1a49.756,49.756,0,0,0,17.948,13.049V120.9A60.677,60.677,0,0,1,21.448,106.563Zm58.408,17.525H48.144V108.22h5.023v7.934a1.751,1.751,0,0,0,1.75,1.75H73.082a1.75,1.75,0,0,0,1.75-1.75V108.22h5.024Zm3.5-14.939A49.756,49.756,0,0,0,101.3,96.1l.577,1.151,4.671,9.312a60.677,60.677,0,0,1-23.2,14.333Zm25.76-5.281-5.4-10.759A49.139,49.139,0,0,0,113.146,69.7l4.846,2.59,5.393,2.881A60.035,60.035,0,0,1,109.116,103.868Z"/></g></svg>
