<?xml version="1.0" encoding="iso-8859-1"?>
<!-- Generator: Adobe Illustrator 19.0.0, SVG Export Plug-In . SVG Version: 6.00 Build 0)  -->
<svg version="1.1" id="Layer_1" xmlns="http://www.w3.org/2000/svg" xmlns:xlink="http://www.w3.org/1999/xlink" x="0px" y="0px"
	 viewBox="0 0 512 512" style="enable-background:new 0 0 512 512;" xml:space="preserve">
<g>
	<g>
		<path d="M256,0c-4.142,0-7.5,3.358-7.5,7.5v51.29c0,4.142,3.358,7.5,7.5,7.5c4.142,0,7.5-3.358,7.5-7.5V7.5
			C263.5,3.358,260.142,0,256,0z"/>
	</g>
</g>
<g>
	<g>
		<path d="M256,445.71c-4.142,0-7.5,3.358-7.5,7.5v51.29c0,4.142,3.358,7.5,7.5,7.5c4.142,0,7.5-3.358,7.5-7.5v-51.29
			C263.5,449.068,260.142,445.71,256,445.71z"/>
	</g>
</g>
<g>
	<g>
		<path d="M504.5,248.5h-51.29c-4.142,0-7.5,3.358-7.5,7.5c0,4.142,3.358,7.5,7.5,7.5h51.29c4.142,0,7.5-3.358,7.5-7.5
			C512,251.858,508.642,248.5,504.5,248.5z"/>
	</g>
</g>
<g>
	<g>
		<path d="M58.79,248.5H7.5c-4.142,0-7.5,3.358-7.5,7.5c0,4.142,3.358,7.5,7.5,7.5h51.29c4.142,0,7.5-3.358,7.5-7.5
			C66.29,251.858,62.932,248.5,58.79,248.5z"/>
	</g>
</g>
<g>
	<g>
		<path d="M420.651,91.348c-2.928-2.929-7.677-2.929-10.606,0l-19.9,19.9c-2.929,2.929-2.929,7.678,0,10.606
			c1.464,1.464,3.384,2.197,5.303,2.197s3.839-0.732,5.303-2.197l19.9-19.9C423.58,99.025,423.58,94.276,420.651,91.348z"/>
	</g>
</g>
<g>
	<g>
		<path d="M121.854,390.146c-2.929-2.93-7.678-2.929-10.606,0l-19.899,19.9c-2.929,2.929-2.929,7.678,0,10.606
			c1.464,1.464,3.384,2.197,5.303,2.197c1.919,0,3.839-0.732,5.303-2.197l19.899-19.9
			C124.783,397.823,124.783,393.074,121.854,390.146z"/>
	</g>
</g>
<g>
	<g>
		<path d="M420.652,410.046l-19.9-19.9c-2.929-2.929-7.678-2.929-10.606,0c-2.929,2.929-2.929,7.678,0,10.606l19.9,19.9
			c1.464,1.464,3.384,2.197,5.303,2.197s3.839-0.732,5.303-2.197C423.581,417.723,423.581,412.974,420.652,410.046z"/>
	</g>
</g>
<g>
	<g>
		<path d="M121.854,111.248l-19.899-19.9c-2.928-2.929-7.677-2.929-10.606,0c-2.929,2.929-2.929,7.677,0,10.606l19.899,19.9
			c1.464,1.465,3.384,2.197,5.303,2.197s3.839-0.732,5.303-2.197C124.783,118.925,124.783,114.176,121.854,111.248z"/>
	</g>
</g>
<g>
	<g>
		<g>
			<path d="M349.957,137.894C349.972,138.055,349.95,137.814,349.957,137.894L349.957,137.894z"/>
			<path d="M342.49,302.5c4.142,0,7.5-3.358,7.5-7.5V138.592c-0.01-0.233-0.021-0.465-0.033-0.698
				c-0.327-3.486-3.213-5.656-5.513-7.956c-5.516-5.516-11.031-11.031-16.547-16.547c-3.002-3.002-5.873-6.441-9.159-9.141
				c-2.725-2.24-5.699-2.031-8.964-2.031c-28.667,0-57.334,0-86.001,0c-8.363,0-17.002-0.633-25.348,0
				c-4.394,0.333-6.696,3.544-9.593,6.441c-5.601,5.601-11.201,11.201-16.802,16.802c-4.276,4.276-9.966,7.965-10.023,14.457
				c-0.06,6.822,0,13.648,0,20.47c0,29.077,0,58.154,0,87.23c0,31.033,0,62.067,0,93.1c0,9.09,0,18.18,0,27.27
				c0,4.452-0.393,7.971,2.94,11.466c8.937,9.369,18.144,18.73,27.588,27.588c4.327,4.059,11.174,2.738,16.679,2.738
				c29.908,0,59.816,0,89.724,0c5.691,0,15.281,1.843,20.02-2.234c9.294-7.995,17.572-17.572,26.242-26.242
				c2.277-2.277,4.79-4.379,4.79-7.896V332c0-4.142-3.358-7.5-7.5-7.5c-4.142,0-7.5,3.358-7.5,7.5v27.543l-17.742-11.601V164.058
				l17.742-11.601V295C334.99,299.142,338.348,302.5,342.49,302.5z M299.514,117.22l-11.695,17.339H224.18l-11.695-17.339H299.514z
				 M197.25,121.456l13.267,19.671l-9.262,9.262l-19.916-13.022L197.25,121.456z M177.008,359.542V152.457l17.742,11.601V200
				c0,4.142,3.358,7.5,7.5,7.5c4.142,0,7.5-3.358,7.5-7.5v-36.893l13.549-13.549h65.402l13.549,13.549v185.785l-13.549,13.549
				h-65.402l-13.549-13.549V234c0-4.142-3.358-7.5-7.5-7.5c-4.142,0-7.5,3.358-7.5,7.5v113.941L177.008,359.542z M197.251,390.544
				l-15.911-15.911l19.916-13.022l9.262,9.262L197.251,390.544z M212.485,394.78l11.695-17.339h63.639l11.695,17.339H212.485z
				 M330.66,374.633l-15.911,15.911l-13.268-19.671l9.263-9.262L330.66,374.633z M310.745,150.389l-9.263-9.262l13.268-19.671
				l15.911,15.911L310.745,150.389z"/>
		</g>
	</g>
</g>
<g>
</g>
<g>
</g>
<g>
</g>
<g>
</g>
<g>
</g>
<g>
</g>
<g>
</g>
<g>
</g>
<g>
</g>
<g>
</g>
<g>
</g>
<g>
</g>
<g>
</g>
<g>
</g>
<g>
</g>
</svg>
