<svg id="clean-breath" enable-background="new 0 0 300 300" height="512" viewBox="0 0 300 300" width="512" xmlns="http://www.w3.org/2000/svg"><g><path d="m243.006 202.651c-2.362 0-4.276 1.915-4.276 4.277s1.915 4.276 4.276 4.276 4.277-1.915 4.277-4.276-1.916-4.277-4.277-4.277z"/><path d="m183.006 242.651c-2.362 0-4.276 1.915-4.276 4.277s1.915 4.276 4.276 4.276 4.277-1.915 4.277-4.276-1.916-4.277-4.277-4.277z"/><path d="m168.526 144.244-13.436-23.033v-.262c0-43.533-35.625-78.949-79.416-78.949-9.09 0-18.168 1.547-26.982 4.6-2.088.723-3.193 3-2.471 5.088.723 2.086 2.992 3.193 5.088 2.471 7.971-2.761 16.168-4.159 24.365-4.159 39.379 0 71.416 31.828 71.416 70.949v1.344c0 .709.188 1.404.545 2.016l13.98 23.967c.725 1.244.248 2.346.008 2.762-.234.41-.936 1.363-2.344 1.363h-10.291c-2.209 0-4 1.791-4 4v13.599h-18.988c-2.209 0-4 1.791-4 4 0 12.893 10.225 23.413 22.988 23.949v11.305c0 4.986-4.049 8.746-9.416 8.746h-33.572c-2.209 0-4 1.791-4 4s1.791 4 4 4h10.921c-2.819 3.588-4.594 8.047-4.594 12.887v11.113h-58.327c-2.209 0-4 1.791-4 4s1.791 4 4 4h62.326c2.209 0 4-1.791 4-4v-15.113c0-6.984 5.68-12.887 12.402-12.887h6.844c9.766 0 17.416-7.355 17.416-16.746v-11.254h1.012c2.209 0 4-1.791 4-4s-1.791-4-4-4h-8c-7.441 0-13.713-5.107-15.494-12h23.494c2.209 0 4-1.791 4-4s-1.791-4-4-4h-1.012v-9.6h6.291c3.877 0 7.346-2.01 9.281-5.377 1.942-3.38 1.931-7.41-.034-10.779z"/><path d="m116 126c0 4.418 3.582 8 8 8s8-3.582 8-8h2c2.209 0 4-1.791 4-4s-1.791-4-4-4h-20c-2.209 0-4 1.791-4 4s1.791 4 4 4z"/><path d="m178 174h52c8.822 0 16-7.178 16-16s-7.178-16-16-16h-20c-2.209 0-4 1.791-4 4s1.791 4 4 4h20c4.412 0 8 3.588 8 8s-3.588 8-8 8h-52c-2.209 0-4 1.791-4 4s1.791 4 4 4z"/><path d="m206 190h-32c-2.209 0-4 1.791-4 4s1.791 4 4 4h32c4.412 0 8 3.588 8 8s-3.588 8-8 8h-12c-2.209 0-4 1.791-4 4s1.791 4 4 4h12c8.822 0 16-7.178 16-16s-7.177-16-16-16z"/><path d="m174 186h32c2.209 0 4-1.791 4-4s-1.791-4-4-4h-32c-2.209 0-4 1.791-4 4s1.791 4 4 4z"/><path d="m250 178h-32c-2.209 0-4 1.791-4 4s1.791 4 4 4h32c2.209 0 4-1.791 4-4s-1.791-4-4-4z"/><path d="m194 98c2.209 0 4-1.791 4-4v-8c0-2.209-1.791-4-4-4s-4 1.791-4 4v8c0 2.209 1.791 4 4 4z"/><path d="m194 106c-2.209 0-4 1.791-4 4v8c0 2.209 1.791 4 4 4s4-1.791 4-4v-8c0-2.209-1.791-4-4-4z"/><path d="m178 106h8c2.209 0 4-1.791 4-4s-1.791-4-4-4h-8c-2.209 0-4 1.791-4 4s1.791 4 4 4z"/><path d="m202 106h8c2.209 0 4-1.791 4-4s-1.791-4-4-4h-8c-2.209 0-4 1.791-4 4s1.791 4 4 4z"/></g></svg>