<svg width="35" height="49" viewBox="0 0 35 49" fill="none" xmlns="http://www.w3.org/2000/svg">
<path opacity="0.5" d="M10.36 36.9H9.489L6.239 42.282L2.989 36.9H2.131V46H2.82V37.914L6.187 43.504H6.304L9.671 37.914V46H10.36V36.9ZM18.2073 39.5V40.969C17.6613 39.994 16.6603 39.357 15.4123 39.357C13.5663 39.357 12.0453 40.826 12.0453 42.75C12.0453 44.674 13.5663 46.143 15.4123 46.143C16.6603 46.143 17.6613 45.506 18.2073 44.531V46H18.8703V39.5H18.2073ZM15.4643 45.519C13.9173 45.519 12.7083 44.297 12.7083 42.75C12.7083 41.203 13.9173 39.981 15.4643 39.981C17.0113 39.981 18.2073 41.203 18.2073 42.75C18.2073 44.297 17.0113 45.519 15.4643 45.519ZM24.3112 39.357C23.0502 39.357 22.0492 40.007 21.5162 41.008V39.5H20.8662V48.6H21.5162V44.492C22.0492 45.493 23.0502 46.143 24.3112 46.143C26.1702 46.143 27.6782 44.674 27.6782 42.75C27.6782 40.826 26.1702 39.357 24.3112 39.357ZM24.2722 45.519C22.7252 45.519 21.5162 44.297 21.5162 42.75C21.5162 41.203 22.7252 39.981 24.2722 39.981C25.8192 39.981 27.0282 41.203 27.0282 42.75C27.0282 44.297 25.8192 45.519 24.2722 45.519ZM29.5602 41.203C29.5602 40.423 30.2752 39.981 31.1202 39.981C31.8352 39.981 32.5112 40.293 32.7842 40.969L33.3302 40.657C32.9792 39.864 32.1732 39.357 31.1202 39.357C29.7942 39.357 28.9102 40.176 28.9102 41.203C28.9102 43.543 32.8492 42.529 32.8492 44.297C32.8492 45.116 32.0822 45.519 31.1722 45.519C30.1972 45.519 29.4952 45.077 29.2612 44.375L28.7022 44.7C29.0142 45.532 29.8722 46.143 31.1722 46.143C32.5632 46.143 33.4992 45.363 33.4992 44.297C33.4992 41.918 29.5602 42.945 29.5602 41.203Z" fill="#DD0000"/>
<path d="M17.4997 2.91669C22.3268 2.91669 26.2497 6.79585 26.2497 11.5938C26.2497 18.0979 17.4997 27.7084 17.4997 27.7084C17.4997 27.7084 8.74967 18.0979 8.74967 11.5938C8.74967 6.79585 12.6726 2.91669 17.4997 2.91669ZM17.4997 8.75002C16.7261 8.75002 15.9843 9.05731 15.4373 9.60429C14.8903 10.1513 14.583 10.8931 14.583 11.6667C14.583 12.4402 14.8903 13.1821 15.4373 13.7291C15.9843 14.2761 16.7261 14.5834 17.4997 14.5834C18.2732 14.5834 19.0151 14.2761 19.5621 13.7291C20.109 13.1821 20.4163 12.4402 20.4163 11.6667C20.4163 10.8931 20.109 10.1513 19.5621 9.60429C19.0151 9.05731 18.2732 8.75002 17.4997 8.75002V8.75002ZM29.1663 27.7084C29.1663 30.9313 23.9455 33.5417 17.4997 33.5417C11.0538 33.5417 5.83301 30.9313 5.83301 27.7084C5.83301 25.8271 7.61217 24.15 10.3684 23.0854L11.3018 24.4125C9.72676 25.0688 8.74967 25.9729 8.74967 26.9792C8.74967 28.9917 12.6726 30.625 17.4997 30.625C22.3268 30.625 26.2497 28.9917 26.2497 26.9792C26.2497 25.9729 25.2726 25.0688 23.6976 24.4125L24.6309 23.0854C27.3872 24.15 29.1663 25.8271 29.1663 27.7084Z" fill="#F7BFBF"/>
</svg>
